<svg width="414" height="342" fill="none" xmlns="http://www.w3.org/2000/svg"><g clip-path="url(#a)"><path d="M0 0h414v316c0 13.807-11.193 25-25 25H25c-13.807 0-25-11.193-25-25V0z" fill="#AA2F4C" style="fill:color(display-p3 .6667 .1843 .298);fill-opacity:1"/><g clip-path="url(#b)"><path d="M304.093 308.862H94.76v35.183h209.333v-35.183z" fill="#5F7682" style="fill:color(display-p3 .3725 .4627 .5098);fill-opacity:1"/><path d="M93.156 407.184H89.81v-98.322h9.896l-6.549 98.322z" fill="#768C99" style="fill:color(display-p3 .4627 .549 .6);fill-opacity:1"/><path d="M279.745 407.688h3.345v-98.319h-9.897l6.552 98.319zM119.718 407.184h-3.345v-98.322h9.897l-6.552 98.322z" fill="#5F7682" style="fill:color(display-p3 .3725 .4627 .5098);fill-opacity:1"/><path d="M305.694 407.184h3.345v-98.322h-9.896l6.551 98.322z" fill="#768C99" style="fill:color(display-p3 .4627 .549 .6);fill-opacity:1"/><path d="M315.953 298.882H83.393v13.147h232.56v-13.147z" fill="#5F7682" style="fill:color(display-p3 .3725 .4627 .5098);fill-opacity:1"/><path d="M321.256 294.675H78.092v8.414h243.164v-8.414z" fill="#8E9DA8" style="fill:color(display-p3 .5569 .6157 .6588);fill-opacity:1"/><path d="M121.323 294.675H78.092v8.414h43.231v-8.414z" fill="#768C99" style="fill:color(display-p3 .4627 .549 .6);fill-opacity:1"/><path d="M238.204 177.124h-77.606v115.033h77.606V177.124z" fill="#96BBCC" style="fill:color(display-p3 .5882 .7333 .8);fill-opacity:1"/><path d="M238.661 174.538a2.223 2.223 0 0 0-.455-.046H160.6c-1.42 0-2.604 1.196-2.604 2.629v115.033c0 1.433 1.184 2.629 2.604 2.629h77.606c.811 0 1.423-.306 1.841-.771.457-.422.763-1.042.763-1.858v-115.03c0-1.275-.94-2.362-2.149-2.583v-.003zM235.6 289.525h-72.399V179.753H235.6v109.775-.003z" fill="#5F7682" style="fill:color(display-p3 .3725 .4627 .5098);fill-opacity:1"/><g style="mix-blend-mode:color-dodge" opacity=".2"><path d="m181.025 174.496-1.06 2.628-1.061 2.629-15.699 38.948-5.211 12.92v-31.665l2.604-6.458 2.607-6.459 2.935-7.286 1.06-2.629 1.061-2.628h12.764z" fill="#96BBCC" style="fill:color(display-p3 .5882 .7333 .8);fill-opacity:1"/></g><g style="mix-blend-mode:color-dodge" opacity=".2"><path d="m227.193 174.495-1.061 2.629-1.061 2.629-44.255 109.775-1.06 2.629-1.061 2.629h-18.101c-1.42 0-2.604-1.196-2.604-2.629v-37.143l5.208-12.92 25.133-62.344 1.06-2.629 1.061-2.629h36.738l.003.003z" fill="#96BBCC" style="fill:color(display-p3 .5882 .7333 .8);fill-opacity:1"/></g><g style="mix-blend-mode:color-dodge" opacity=".2"><path d="M240.807 177.124v18.223l-2.604 6.459-2.604 6.459-32.759 81.26-1.061 2.629-1.06 2.629H190.18l1.06-2.629 1.061-2.629 43.298-107.401 2.015-5 1.044-2.583a2.647 2.647 0 0 1 2.149 2.583z" fill="#96BBCC" style="fill:color(display-p3 .5882 .7333 .8);fill-opacity:1"/></g><path d="M264.925 263.88h-1.403a2.172 2.172 0 0 0-2.161 2.182v.543c0 1.205.968 2.182 2.161 2.182h1.403c1.193 0 2.16-.977 2.16-2.182v-.543a2.171 2.171 0 0 0-2.16-2.182z" fill="#518BBF" style="fill:color(display-p3 .3176 .5451 .749);fill-opacity:1"/><path d="M269.347 270.996H259.1a2.172 2.172 0 0 0-2.161 2.181v19.252c0 1.205.968 2.181 2.161 2.181h10.247a2.17 2.17 0 0 0 2.161-2.181v-19.252a2.171 2.171 0 0 0-2.161-2.181z" fill="#E8EAA4" style="fill:color(display-p3 .9098 .9176 .6431);fill-opacity:1"/><path d="M267.033 266.716h-5.615a2.17 2.17 0 0 0-2.16 2.181v4.36a2.17 2.17 0 0 0 2.16 2.181h5.615a2.172 2.172 0 0 0 2.161-2.181v-4.36a2.171 2.171 0 0 0-2.161-2.181z" fill="#E8EAA4" style="fill:color(display-p3 .9098 .9176 .6431);fill-opacity:1"/><path d="M269.804 280.599c0 2.289-2.498 4.142-5.578 4.142-3.081 0-5.581-1.856-5.581-4.142 0-2.286 2.497-4.144 5.581-4.144 3.083 0 5.578 1.855 5.578 4.144z" fill="#fff" style="fill:#fff;fill-opacity:1"/><path d="M128.37 267.444h-1.224v6.105h1.224v-6.105z" fill="#A55165" style="fill:color(display-p3 .6471 .3176 .3961);fill-opacity:1"/><path d="M135.281 267.807c0 .271-.216.49-.486.49h-7.522a.488.488 0 0 1-.486-.49c0-.272.219-.491.486-.491h7.522c.27 0 .486.221.486.491z" fill="#A55165" style="fill:color(display-p3 .6471 .3176 .3961);fill-opacity:1"/><path d="M135.282 267.807h-.991v1.198h.991v-1.198z" fill="#A55165" style="fill:color(display-p3 .6471 .3176 .3961);fill-opacity:1"/><path d="M128.866 270.424h-2.273c-1.933 0-3.499 1.582-3.499 3.532v.881c0 1.951 1.566 3.533 3.499 3.533h2.273c1.932 0 3.499-1.582 3.499-3.533v-.881c0-1.95-1.567-3.532-3.499-3.532z" fill="#DDA4B4" style="fill:color(display-p3 .8667 .6431 .7059);fill-opacity:1"/><path d="M123.459 274.934H132c.993 0 1.799.813 1.799 1.816v16.044A1.808 1.808 0 0 1 132 294.61h-8.541a1.807 1.807 0 0 1-1.799-1.816V276.75c0-1.003.805-1.816 1.799-1.816z" fill="#A55165" style="fill:color(display-p3 .6471 .3176 .3961);fill-opacity:1"/><path d="M133.801 282.803H121.66v4.408h12.141v-4.408z" fill="#fff" style="fill:#fff;fill-opacity:1"/><path d="m253.642 279.63-.631 4.893-.39 3.011-.713 5.544h-3.97l-2.006-13.448h7.71z" fill="#E8EAA4" style="fill:color(display-p3 .9098 .9176 .6431);fill-opacity:1"/><path d="M247.736 292.16v1.813c0 .354.284.64.634.64h3.039a.636.636 0 0 0 .634-.64v-1.813h-4.307z" fill="#A55165" style="fill:color(display-p3 .6471 .3176 .3961);fill-opacity:1"/><path d="m253.011 284.523-.39 3.014a4.384 4.384 0 0 1-1.17.155c-1.56 0-2.828-.773-2.828-1.727 0-.955 1.268-1.728 2.828-1.728.576 0 1.112.104 1.56.286z" fill="#fff" style="fill:#fff;fill-opacity:1"/><path d="m147.792 276.104-.78 6.045-.48 3.719-.881 6.85h-4.902l-2.478-16.614h9.521z" fill="#31A2C9" style="fill:color(display-p3 .1922 .6353 .7882);fill-opacity:1"/><path d="M140.496 291.582v2.238c0 .436.351.79.783.79h3.754a.787.787 0 0 0 .783-.79v-2.238h-5.32z" fill="#A55165" style="fill:color(display-p3 .6471 .3176 .3961);fill-opacity:1"/><path d="m147.012 282.149-.48 3.722c-.44.122-.929.193-1.445.193-1.928 0-3.493-.955-3.493-2.133 0-1.179 1.565-2.133 3.493-2.133.713 0 1.375.13 1.925.354v-.003z" fill="#fff" style="fill:#fff;fill-opacity:1"/><path d="M225.015 274.441h-2.902v1.433h2.902v-1.433z" fill="#414A54" style="fill:color(display-p3 .2549 .2902 .3294);fill-opacity:1"/><path d="M231.209 294.786h-7.419a7.08 7.08 0 0 1-3.294-5.994c0-3.904 3.137-7.071 7.001-7.071 3.864 0 7.001 3.167 7.001 7.071a7.082 7.082 0 0 1-3.292 5.994h.003z" fill="#518BBF" style="fill:color(display-p3 .3176 .5451 .749);fill-opacity:1"/><path d="M224.643 281.829h5.724c.623 0 1.125.507 1.125 1.136h-7.974c0-.629.502-1.136 1.125-1.136zM224.787 280.786c0 .575.463 1.043 1.033 1.043h3.372c.573 0 1.033-.468 1.033-1.043s-.46-1.042-1.033-1.042h-3.372c-.57 0-1.033.467-1.033 1.042z" fill="#fff" style="fill:#fff;fill-opacity:1"/><path d="M228.927 276.288h-2.839v3.456h2.839v-3.456z" fill="#414A54" style="fill:color(display-p3 .2549 .2902 .3294);fill-opacity:1"/><path d="M221.627 274.214c.233-.226.55-.365.895-.365h.679v2.617h-.679a1.28 1.28 0 0 1-.895-.365v-1.887z" fill="#fff" style="fill:#fff;fill-opacity:1"/><path d="M223.85 274.135c.71-.697 2.082-1.167 3.656-1.167 2.306 0 4.172 1.008 4.172 2.252 0 1.243-1.869 2.252-4.172 2.252-1.574 0-2.946-.47-3.656-1.167v-2.17z" fill="#518BBF" style="fill:color(display-p3 .3176 .5451 .749);fill-opacity:1"/><path opacity=".5" d="M229.093 279.744h-.538v2.082h.538v-2.082zM228.215 279.744h-.539v2.082h.539v-2.082zM227.334 279.744h-.539v2.082h.539v-2.082zM226.457 279.744h-.539v2.082h.539v-2.082z" fill="#fff" style="fill:#fff;fill-opacity:1"/><path d="M223.203 274.044h-.816v.184h.816v-.184zM223.203 274.441h-.816v.187h.816v-.187zM223.203 274.84h-.816v.187h.816v-.187zM223.203 275.24h-.816v.184h.816v-.184zM223.203 275.639h-.816v.187h.816v-.187zM223.203 276.039h-.816v.184h.816v-.184z" fill="#414A54" style="fill:color(display-p3 .2549 .2902 .3294);fill-opacity:1"/><path d="m224.576 275.027 2.219.748c-.14.088-3.591 6.6-4.849 6.762-.075-.493 3.514-4.567 2.63-7.51z" fill="#518BBF" style="fill:color(display-p3 .3176 .5451 .749);fill-opacity:1"/><path d="m110.263 271.668-.236-.026.309-5.073.701.076-.774 5.023zM111.149 271.764l-.233-.026.311-5.073.699.076-.777 5.023zM112.039 271.863l-.23-.028.308-5.071.699.077-.777 5.022zM112.928 271.959l-.233-.025.312-5.074.698.077-.777 5.022zM113.82 272.056l-.236-.026.311-5.073.699.079-.774 5.02zM114.708 272.155l-.233-.026.311-5.073.699.076-.777 5.023zM115.596 272.251l-.233-.025.312-5.074.698.077-.777 5.022z" fill="#141414" style="fill:color(display-p3 .0772 .0772 .0772);fill-opacity:1"/><path d="m109.937 271.562-.062.58 5.73.628.062-.58-5.73-.628z" fill="#fff" style="fill:#fff;fill-opacity:1"/><path d="M109.482 272.104c-.134 1.784 1.156 3.368 2.932 3.563 1.777.196 3.373-1.073 3.62-2.847l-6.552-.716z" fill="#141414" style="fill:color(display-p3 .0772 .0772 .0772);fill-opacity:1"/><path d="m111.133 289.236-.438-.045 1.156-14.237 1.182.13-1.9 14.152zM107.103 273.152l-.163-.674 2.781-.691-.093-.38-2.781.691-.165-.674 2.783-.691-.089-.38-2.784.691-.165-.674 2.78-.691-.092-.38-2.781.692-.166-.675 2.781-.688-.093-.38-2.78.692-.166-.675 2.784-.688-.093-.38-2.783.689-.163-.674 2.781-.692-.093-.379-2.781.691-.165-.674 2.78-.691-.089-.38-2.781.688-.166-.674 2.784-.691-.093-.377-2.783.689-.163-.675 2.781-.688-.093-.38-2.781.692-.165-.677 2.781-.692-.104-.422-2.27.567a1.738 1.738 0 0 0-1.26 2.102l5.78 23.733.27-.068-2.725-13.011a1.737 1.737 0 0 1 1.26-2.099l1.582-.394-.059-.238-2.78.691v-.011z" fill="#141414" style="fill:color(display-p3 .0772 .0772 .0772);fill-opacity:1"/><path d="m115.046 279.169-.772 15.693h-7.789l-1.229-15.693h9.79z" fill="#5F7682" style="fill:color(display-p3 .3725 .4627 .5098);fill-opacity:1"/><path d="M110.149 279.169v15.693h-3.664l-1.229-15.693h4.893z" fill="#8E9DA8" style="fill:color(display-p3 .5569 .6157 .6588);fill-opacity:1"/><path d="M249.372 241.456c-5.051-9.246-12.15-16.914-17.947-26.265l-5.042 2.869c3.272 18.549 12.576 37.704 20.427 36.481 1.24-4.774 3.367-7.81 2.562-13.088v.003z" fill="#ED805F" style="fill:color(display-p3 .9294 .502 .3725);fill-opacity:1"/><path d="M262.077 208.435c-5.651 7.79-14.119 26.9-21.679 36.466 2.809 2.901 3.267 7.237 6.524 9.657 3.564-2.813 9.585-7.666 11.917-10.55 32.465-40.109 8.942-43.437 3.235-35.576l.003.003z" fill="#ED805F" style="fill:color(display-p3 .9294 .502 .3725);fill-opacity:1"/><path d="M263.196 234.196c.682.784 1.364 1.569 2.049 2.354 23.623-33.401 1.414-35.622-4.414-27.894-2.41 3.198-6.776 9.387-9.681 15.042 1.067 1.042 9.622 7.71 12.046 10.495v.003z" fill="#fff" style="fill:#fff;fill-opacity:1"/><path d="M227.316 319.306c-2.39-1.303-9.756.054-12.307.261-5.858.478-11.768.816-17.621 1.379-9.242.893-19.899 1.604-28.328 5.72-1.667.813-5.023 1.988-5.374 4.475-1.765 12.476 65.799 3.42 65.799 3.42.121-3.38.794-13.637-2.169-15.255z" fill="#3A4F64" style="fill:color(display-p3 .2275 .3098 .3922);fill-opacity:1"/><path d="M175.998 329.507s-11.92-1.518-12.312 1.634c-1.145 9.193 12.508 59.401 10.087 69.559 1.512.513 3.892.462 5.297 0 4.883-17.169 7.231-29.333 4.967-46.472-.716-5.421-5.671-5.402-6.765-10.501-1.03-4.81-1.283-9.563-1.277-14.223l.003.003z" fill="#3A4F64" style="fill:color(display-p3 .2275 .3098 .3922);fill-opacity:1"/><path d="m188.014 328.997-12.346 2.133c2.102 7.048 3.544 12.917 3.151 16.07-1.145 9.196 9.389 42.832 6.97 52.993 1.512.513 3.892.462 5.298 0 4.882-17.17 7.23-29.333 4.966-46.472-.715-5.422-5.671-5.402-6.765-10.501-1.03-4.81-1.282-9.563-1.277-14.223h.003z" fill="#3A4F64" style="fill:color(display-p3 .2275 .3098 .3922);fill-opacity:1"/><path d="M160.732 310.627c2.946-1.032 11.089 1.218 11.089 1.218-1.299.866-2.486 1.77-3.94 2.396-1.139.493-2.567.98-3.793 1.147-1.207.165-2.871-.164-3.802.87-.873.969-.169 2.445-1.889 1.773-1.257-.49-1.313-1.818-1.313-2.946 0-2.736 1.237-3.617 3.648-4.458z" fill="#F48E69" style="fill:color(display-p3 .9569 .5569 .4118);fill-opacity:1"/><path d="m199.261 364.404-5.415-23.589h33.407l-5.749 23.589h-22.243z" fill="#5F7682" style="fill:color(display-p3 .3725 .4627 .5098);fill-opacity:1"/><path d="m187.072 364.404-5.416-23.589h26.205l.393 23.589h-21.182z" fill="#C1C1C1" style="fill:color(display-p3 .7551 .7551 .7551);fill-opacity:1"/><path d="M238.263 340.815h-71.245v9.629h71.245v-9.629z" fill="#3A4F64" style="fill:color(display-p3 .2275 .3098 .3922);fill-opacity:1"/><path d="M180.891 340.337c0 3.053 1.641 5.529 3.667 5.529h66.916c2.026 0 3.667-2.476 3.667-5.529v-1.202c0-3.053-1.641-5.529-3.667-5.529h-66.916c-2.026 0-3.667 2.476-3.667 5.529v1.202z" fill="#5F7682" style="fill:color(display-p3 .3725 .4627 .5098);fill-opacity:1"/><path d="M161.607 340.337c0 3.053 1.743 5.529 3.889 5.529h34.23c2.149 0 3.889-2.476 3.889-5.529v-1.202c0-3.053-1.743-5.529-3.889-5.529h-34.23c-2.146 0-3.889 2.476-3.889 5.529v1.202z" fill="#C1C1C1" style="fill:color(display-p3 .7551 .7551 .7551);fill-opacity:1"/><path d="M196.645 271.143v57.058a3.3 3.3 0 0 0 3.299 3.303h51.152c1.824 0 3.3-1.476 3.3-3.303v-57.058a3.3 3.3 0 0 0-3.3-3.303h-51.152a3.3 3.3 0 0 0-3.299 3.303z" fill="#F06562" style="fill:color(display-p3 .9412 .3961 .3843);fill-opacity:1"/><path d="M205.957 271.143v57.058a3.303 3.303 0 0 0 3.3 3.303h42.583a3.299 3.299 0 0 0 3.299-3.303v-57.058a3.3 3.3 0 0 0-3.299-3.303h-42.583a3.303 3.303 0 0 0-3.3 3.303z" fill="#A55165" style="fill:color(display-p3 .6471 .3176 .3961);fill-opacity:1"/><path d="M223.719 347.639c0 1.55.94 2.808 2.101 2.808h9.504c1.162 0 2.102-1.258 2.102-2.808v-23.747c0-1.549-.943-2.807-2.102-2.807h-9.504c-1.161 0-2.101 1.255-2.101 2.807v23.747z" fill="#602B3B" style="fill:color(display-p3 .3765 .1686 .2314);fill-opacity:1"/><path d="M227.041 347.639c0 1.55.94 2.808 2.102 2.808h9.503c1.162 0 2.102-1.258 2.102-2.808v-23.747c0-1.549-.94-2.807-2.102-2.807h-9.503c-1.162 0-2.102 1.255-2.102 2.807v23.747z" fill="#A55165" style="fill:color(display-p3 .6471 .3176 .3961);fill-opacity:1"/><path d="M158.59 315.488c0 1.702 1.364 3.082 3.053 3.082h32.924v36.545a3.301 3.301 0 0 0 2.461 3.201c.258.065.531.102.808.102h.048c1.807 0 3.272-1.479 3.272-3.303v-39.406c0-.037-.006-.074-.006-.111 0-.037.006-.074.006-.11 0-1.703-1.367-3.082-3.053-3.082h-36.46c-1.687 0-3.053 1.379-3.053 3.082z" fill="#7F3B4E" style="fill:color(display-p3 .498 .2314 .3059);fill-opacity:1"/><path d="M158.59 315.488c0 1.702 1.364 3.082 3.053 3.082h32.924v36.545a3.301 3.301 0 0 0 2.461 3.201 3.3 3.3 0 0 0 2.464-3.201v-39.406c0-.037-.006-.074-.006-.111 0-.037.006-.074.006-.11 0-1.703-1.367-3.082-3.053-3.082h-34.796c-1.687 0-3.053 1.379-3.053 3.082z" fill="#C1C1C1" style="fill:color(display-p3 .7551 .7551 .7551);fill-opacity:1"/><path d="M206.65 231.391c-.46.723-.951 1.377-1.565 1.946-.674.621-1.527 1.199-2.265 1.726 1.024 2.062 2.716 3.223 4.961 3.424l.174-9.464c-.463.354-.892 1.731-1.302 2.371l-.003-.003zM241.086 261.875c-8.41-12.286-11.381-10.422-13.371-19.895-1.024-4.875-9.015.966-10.592 1.261-1.184 7.855-.542 11.634-8.028 15.195-5.309 2.527-10.69 4.192-12.234 10.676-1.627 6.836-1.45 14.504-1.45 21.575 0 7.07-.292 13.532-.292 20.339 0 4.47-.376 8.841-.648 13.249 2.225 1.073 4.332 2.427 6.571 3.456 3.314 1.524 6.706 2.864 10.118 4.144 4.672 1.754 9.448 3.161 14.204 4.643 3.589-.535 7.127-1.487 10.604-2.263 4.778-1.065 4.054-4.448 4.385-8.907.763-10.299 2.618-20.33 3.508-30.585.687-7.889-2.122-15.427-.971-23.195.482-3.263.196-6.764-1.807-9.693h.003z" fill="#F48E69" style="fill:color(display-p3 .9569 .5569 .4118);fill-opacity:1"/><path d="M226.411 237.626c-.881 1.507-1.79 2.898-3.095 4.099-2.755 2.541-10.197 8.391-13.673 6.921-3.909-1.652-3.822-12.343-2.618-14.45.053-.091.098-.176.143-.261.351-.646-.073-1.297-.298-1.824a.352.352 0 0 1-.019-.051 1.47 1.47 0 0 1-.082-.255.575.575 0 0 1-.019-.176c.008-.158.011-.308.011-.447a14.735 14.735 0 0 0-.051-1.499c0-.034-.005-.071-.008-.107l-.017-.182a28.739 28.739 0 0 1-.087-1.393c-.014-.374.107-.785.188-1.153a5.632 5.632 0 0 0 .073-.391c.584-3.714 3.429-5.122 4.818-8.334l14.731 19.506.003-.003z" fill="#F48E69" style="fill:color(display-p3 .9569 .5569 .4118);fill-opacity:1"/><path d="M210.962 229.374c-.048.507-.309.87-.609 1.269-.146.196-.337.369-.499.68a.298.298 0 0 0-.02.04c-.042.017-.081.028-.123.04a3.773 3.773 0 0 1-1.159.127 5.364 5.364 0 0 1-.475-.037c-.025 0-.053 0-.078-.008a.286.286 0 0 1-.073-.012h-.006c-.03 0-.059-.008-.089-.014a.35.35 0 0 1-.079-.011c-.081-.014-.163-.028-.236-.045a4.123 4.123 0 0 1-.3-.074 5.102 5.102 0 0 1-.247-.074c-.011 0-.019-.008-.028-.011-.045-.017-.087-.028-.126-.048-.017-.009-.037-.014-.053-.02a14.714 14.714 0 0 0-.051-1.498c0-.034-.006-.071-.008-.108l-.017-.181a26.369 26.369 0 0 1-.087-1.394c-.014-.374.106-.785.188-1.153.019-.094.039-.19.053-.278.006-.037.011-.076.02-.113a15.29 15.29 0 0 1 1.027 0c.799.025 1.714.309 2.362.788.618.458.78 1.407.713 2.127v.008z" fill="#E86A43" style="fill:color(display-p3 .9098 .4157 .2627);fill-opacity:1"/><path d="m209.812 231.366-.028-.009-.009.012h.037v-.003z" fill="#E86A43" style="fill:color(display-p3 .9098 .4157 .2627);fill-opacity:1"/><path d="M209.773 231.375s0-.003.003-.006c-.006 0-.009 0-.003.006z" fill="#E86A43" style="fill:color(display-p3 .9098 .4157 .2627);fill-opacity:1"/><path d="M216.422 248.881c-.379.756-3.622 4.787-6.369 4.742-.017-.813-.135-1.649-.132-2.391.006-1.139-.278-2.184-.39-3.286 0 1.153.064 2.323-.199 3.456a9.058 9.058 0 0 1-.648 1.79c-1.796-1.226-3.02-5.283-2.371-15.002 8.142.059 8.774-3.003 9.301-3.348l1.353 1.15c-.59.858 1.032 9.722-.542 12.892l-.003-.003zM239.217 230.032c-2.904 9.518-8.653 9.801-10.483 14.982-1.366 3.864-9.411-6.779-9.562-7.949-.317-2.441-1.167-2.634-3.362-2.75.618-2.009.929-4.329.517-6.436-.441-2.261-1.375-4.966-3.412-5.884-5.856-2.646-6.454-7-5.708-10.645.466-2.287 1.459-4.292 2.009-5.428 4.871 5.858 36.242 3.649 30.001 24.11z" fill="#3A2019" style="fill:color(display-p3 .2275 .1255 .098);fill-opacity:1"/><path d="M206.533 238.13c-.586-.087-1.248-.348-1.874-.203-.864.198-.73.883-1.103 1.515-.626 1.051-1.695 1.541-2.8 1.909.482-.051.988.269 1.448.408.788.235 1.703.258 2.522.182.747-.071 1.37-.397 1.998-.785.587-.363 1.28-.632 1.827-1.054l.522-1.972c-.853 0-1.698.131-2.54.003v-.003z" fill="#3A2019" style="fill:color(display-p3 .2275 .1255 .098);fill-opacity:1"/><path d="M209.894 231.533s-.056.034-.162.085c-.054.025-.115.057-.188.091-.073.034-.157.07-.25.099-.093.034-.194.071-.3.105-.11.036-.225.059-.345.09-.121.026-.244.057-.374.074-.129.02-.26.034-.39.051-.131.008-.263.014-.392.017-.129.008-.259 0-.379-.011-.084-.009-.163-.012-.241-.017a.27.27 0 0 1-.02-.051 1.47 1.47 0 0 1-.082-.255h.006c.107 0 .225-.017.342-.017.118-.006.239-.009.365-.02.124-.012.247-.017.376-.026.126-.014.25-.025.373-.037.127-.008.247-.028.365-.039.118-.017.236-.02.342-.037.11-.017.214-.026.309-.034.194-.017.351-.043.466-.051.115-.009.182-.011.182-.011l-.003-.006z" fill="#E86A43" style="fill:color(display-p3 .9098 .4157 .2627);fill-opacity:1"/><path d="m209.864 231.355-.033.011a.985.985 0 0 1-.124.039 3.77 3.77 0 0 1-1.159.128 5.312 5.312 0 0 1-.474-.037c-.025 0-.053 0-.078-.008a.279.279 0 0 1-.073-.012h-.006c-.031 0-.059-.008-.09-.014-.025 0-.053-.006-.078-.011a4.128 4.128 0 0 1-.236-.046c-.067-.014-.135-.028-.199-.045a1.16 1.16 0 0 1-.101-.028c-.062-.017-.124-.034-.177-.051a.713.713 0 0 0-.07-.023c-.011 0-.02-.008-.028-.011-.045-.017-.087-.028-.127-.048-.016-.009-.036-.014-.053-.02a15.075 15.075 0 0 0-.05-1.499c0-.034-.006-.07-.009-.107.298-.91.831-1.861 1.709-1.459.654.297 1.007 2.076 1.378 3.054.011.031.022.059.036.09l.025.063.014.028.003.006z" fill="#fff" style="fill:#fff;fill-opacity:1"/><path d="M208.821 230.244a3.075 3.075 0 0 1-.289 1.283 5.492 5.492 0 0 1-.553-.048c-.017 0-.037 0-.053-.006h-.034c-.02 0-.042-.005-.059-.008-.025 0-.053-.009-.079-.014a4.264 4.264 0 0 1-.235-.046 3.644 3.644 0 0 1-.301-.073c-.061-.017-.123-.034-.176-.051a.713.713 0 0 0-.07-.023 3.09 3.09 0 0 1-.062-1.011c.09-1.009.595-1.773 1.119-1.705.309.039.559.351.691.81.078.263.115.566.106.895l-.005-.003z" fill="#77524F" style="fill:color(display-p3 .4667 .3216 .3098);fill-opacity:1"/><path d="M208.029 230.476c0 .097 0 .196-.014.295-.025.269-.093.51-.185.691-.025 0-.053-.006-.079-.011a4.264 4.264 0 0 1-.235-.046 3.907 3.907 0 0 1-.301-.073c-.061-.017-.123-.034-.176-.051a2.159 2.159 0 0 1-.02-.64c.059-.618.334-1.088.612-1.054.145.02.266.181.336.422a2 2 0 0 1 .065.462l-.003.005z" fill="#23100C" style="fill:color(display-p3 .1373 .0627 .0471);fill-opacity:1"/><path d="M209.304 230.125c-.356-.076-1.695 0-1.695 0 .301.252.606.538 1.137.66.146-.181.412-.484.558-.663v.003z" fill="#fff" style="fill:#fff;fill-opacity:1"/><path d="M209.827 231.261a1.012 1.012 0 0 1-.036-.091c-.379-.929-.814-1.963-1.465-2.26-.85-.388-1.333.133-1.613.776 0-.034-.006-.071-.009-.108l-.016-.181c.283-1.057.833-2.326 1.784-1.892.236.11.424.479.589.957.306.893.519 2.159.766 2.802v-.003z" fill="#542316" style="fill:color(display-p3 .3294 .1373 .0863);fill-opacity:1"/><path d="M212.317 227.904c.241.207-2.736-.374-2.736-.374s.073-.595-.045-.784c-.138.116-.236.603-.3.776-.848-.136-1.546-.323-3.668-.927.065-.382.89-1.56 1.299-1.725 3.034.745 4.627 2.329 5.45 3.031v.003z" fill="#3A2019" style="fill:color(display-p3 .2275 .1255 .098);fill-opacity:1"/><path d="M217.292 230.258c-1.356.391-2.164 4.725-2.164 4.725-.118 2.031-1.016 3.921 1.479 3.156 1.768-.544 3.906-2.507 4.346-4.343.556-2.317-1.565-4.144-3.659-3.538h-.002z" fill="#F48E69" style="fill:color(display-p3 .9569 .5569 .4118);fill-opacity:1"/><path d="M220.479 232.624a2.293 2.293 0 0 0-.152-.408 3.337 3.337 0 0 0-.471-.734 2.663 2.663 0 0 0-.668-.584 1.638 1.638 0 0 0-.89-.249 1.599 1.599 0 0 0-.889.326 2.94 2.94 0 0 0-.643.666c-.356.495-.603 1.042-.816 1.594l.348.428s.025.009.059.026a.769.769 0 0 1 .112.059c.078.048.157.114.222.181a.502.502 0 0 1 .12.182c.003.025-.005 0-.011.008-.006.014-.011.014-.014.009-.003-.006-.006-.009-.017 0a1.084 1.084 0 0 1-.314.079c-.101.011-.211.02-.326.023h-.179l-.098.005-.11.006.129 1.088.079-.014.09-.014.196-.032c.135-.022.278-.051.424-.093.148-.043.3-.094.466-.19.081-.048.168-.108.249-.19a.886.886 0 0 0 .166-1.031 1.273 1.273 0 0 0-.357-.405 1.855 1.855 0 0 0-.409-.241c-.031-.014-.065-.025-.098-.037.129-.405.283-.801.493-1.158.135-.23.295-.448.486-.615.191-.167.415-.289.665-.32.247-.031.508.023.749.139.241.113.466.283.665.479.196.195.373.419.519.662.07.122.135.25.183.383a.822.822 0 0 1 .058.419c.04-.139.014-.292-.019-.43l.003-.017z" fill="#E86A43" style="fill:color(display-p3 .9098 .4157 .2627);fill-opacity:1"/><path d="M166.714 312.406s14.655.226 16.942 1.577c4.486 2.649 10.432 19.64 14.024 23.374 7.012 7.294 37.032 15.75 62.055 8.322 1.137-8.643-.314-33.534-4.596-56.445-3.493-18.702-9.708-32.886-25.042-42.175-1.712-1.036-9.207 2.119-13.289.694-1.934 3.388-10.408 10.292-13.654 12.598-4.318 3.073-6.706 6.77-8.463 11.487-.364.988-.844 1.985-1.029 3.096-3.943 23.713-21.407 32.477-28.509 35.574-2.104.915-.538 1.892 1.563 1.892l-.002.006z" fill="#3D313F" style="fill:color(display-p3 .2392 .1922 .2471);fill-opacity:1"/><path d="M296.011 348.889c2.135 17.469-.432 32.347-5.57 49.78-1.436.456-3.67 1.623-5.202 1.088.598-2.955.783-7.51.682-11.227-.196-7.356-1.487-15.455-2.781-21.336-1.958-8.906-5.864-15.764-4.61-25.112 1.268-9.453-13.451-43.061-13.973-60.545l10.544-.283 5.177-.136c3.505 2.119 8.084-4.377 9.627-.354 2.211 5.767-2.068 17.854-1.756 20.676 1.265 11.368-1.549 23.806 1.08 36.693 1.064 5.201 6.109 5.229 6.785 10.756h-.003z" fill="#231E25" style="fill:color(display-p3 .1373 .1176 .1451);fill-opacity:1"/><path d="M314.599 349.56c3.32 17.28 1.201 31.857-2.741 49.602-1.403.555-3.047 1.294-4.613.864.396-2.989.334-6.521-.02-10.221-.695-7.325-2.533-15.317-4.225-21.095-2.559-8.751-6.923-15.32-6.305-24.733.623-9.521-16.348-42.027-18.056-59.435l10.502-1.011 5.155-.496c3.642 1.873 7.769-4.926 9.582-1.019 2.598 5.6-.853 17.957-.348 20.75 2.034 11.251.07 23.857 3.572 36.531 1.414 5.116 6.451 4.796 7.5 10.263h-.003z" fill="#231E25" style="fill:color(display-p3 .1373 .1176 .1451);fill-opacity:1"/><path d="M305.393 284.967c-.583.57-2.228.573-3.148.833-4.863 1.391-13.676-.813-18.494.422-5.424 1.388-6.748-5.512-6.748-5.512-.056-11.66-8.752-38.024-13.556-47.704-.095-.195-.199-.408-.303-.637-.794-1.74-1.79-4.414-2.662-7.309-.009-.023-.014-.048-.02-.071-1.456-4.847-2.565-10.294-1.827-13.008.104-.385.388-.841.811-1.345.674-.805 1.712-1.737 2.955-2.725a55.133 55.133 0 0 1 1.95-1.479c.396-.286.808-.575 1.221-.867.333-.235.67-.465 1.012-.7.441-.297.884-.597 1.331-.892 5.126-3.391 10.485-6.419 10.662-6.518-.556.428 1.229.595 2.309.912.48.144 2.321.476 4.636.881.35.065.715.127 1.088.195.326.057.657.117.994.173.359.063.724.128 1.088.196a306.064 306.064 0 0 1 3.129.563c2.629.485 4.933.949 5.814 1.25 4.094 1.396 4.273 19.928 1.069 27.766-2.461 6.017 4.534 46.478 6.684 55.579l.005-.003z" fill="#fff" style="fill:#fff;fill-opacity:1"/><path d="M280.74 199.002c-.028 7.226-5.087 12.124-7.542 13.132-4.12 1.691-7.526-10.575-6.909-10.957.085-.051.169-.105.256-.153 1.133-.694 2.334-1.439 2.362-2.15.051-1.235.009-2.445-.154-3.566a12.046 12.046 0 0 0-.334-1.578c-.37-1.298-.962-2.394-1.849-3.147l7.253-8.997c.205.323.907 2.719 1.83 5.643l.07.223a128.975 128.975 0 0 0 1.776 5.278c.115.32.233.631.351.937.999 2.618 2.028 4.774 2.893 5.335h-.003z" fill="#F48E69" style="fill:color(display-p3 .9569 .5569 .4118);fill-opacity:1"/><path d="M280.74 198.999c-.025 7.226-5.087 12.124-7.542 13.132-4.12 1.692-7.526-10.574-6.909-10.957l.02-.011c.878 3.518 3.578 10.17 6.681 8.895 2.245-.921 6.67-5.099 7.427-11.334.107.113.216.204.32.272l.003.003z" fill="#fff" style="fill:#fff;fill-opacity:1"/><path d="M277.499 192.727c-1.925 5.872-6.209 10.368-7.365 10.393-.494.009-2.467-1.133-3.589-2.096 1.134-.694 2.334-1.439 2.363-2.15.05-1.235.008-2.445-.155-3.566a12.046 12.046 0 0 0-.334-1.578l7.304-6.278a128.975 128.975 0 0 0 1.776 5.278v-.003z" fill="#E86A43" style="fill:color(display-p3 .9098 .4157 .2627);fill-opacity:1"/><path d="M253.941 185.954c1.117.175 2.189 3.546 2.189 3.546.294 1.609 1.195 3.023-.865 2.663-1.461-.255-3.358-1.606-3.891-3.022-.671-1.791.839-3.459 2.567-3.184v-.003z" fill="#F48E69" style="fill:color(display-p3 .9569 .5569 .4118);fill-opacity:1"/><path d="M251.635 188.161c.014-.117.045-.23.079-.34.073-.221.174-.437.303-.635s.283-.382.474-.532c.191-.151.424-.264.685-.289a1.26 1.26 0 0 1 .74.17c.225.121.41.288.578.467.334.36.584.77.809 1.187l-.233.377s-.02.008-.045.025a.807.807 0 0 0-.242.227c-.044.059-.078.124-.078.158 0 .02.006 0 .008.006.006.011.012.011.012.006 0-.006.002-.009.014-.003.008 0 .028.008.053.014.05.011.123.017.205.017.081 0 .168-.006.261-.014l.143-.017.078-.009.087-.008.006.878h-.065l-.073-.006-.159-.005a4.149 4.149 0 0 1-.348-.031 1.663 1.663 0 0 1-.39-.105.964.964 0 0 1-.216-.128.719.719 0 0 1-.194-.226.677.677 0 0 1-.081-.284.675.675 0 0 1 .042-.297 1 1 0 0 1 .244-.357c.092-.093.191-.167.303-.232l.076-.04a4.647 4.647 0 0 0-.508-.872 2.022 2.022 0 0 0-.449-.442.985.985 0 0 0-.559-.19c-.199 0-.404.068-.583.187a2.004 2.004 0 0 0-.483.447 2.656 2.656 0 0 0-.348.581 1.889 1.889 0 0 0-.109.323.653.653 0 0 0-.006.34.686.686 0 0 1-.028-.346l-.003-.002z" fill="#E86A43" style="fill:color(display-p3 .9098 .4157 .2627);fill-opacity:1"/><path d="M251.772 167.481c-1.613 1.063-4.902 2.978-5.168 4.898-.494 3.55 4.997 9.892 5.785 11.34-.291-.856 2.04-13.105 4.622-13.742l-5.239-2.496z" fill="#3A2019" style="fill:color(display-p3 .2275 .1255 .098);fill-opacity:1"/><path d="M275.542 186.883c-1.179-3.901-6.123-15.864-9.086-17.954-3.302-2.331-8.389-3.244-12.017-.884-4.7 3.059-2.843 13.28-2.568 14.374.118.467.671 1.478 1.271 3.354.275.861.199 2.821.533 3.846 2.147 6.547 8.216 11.227 8.205 13.762-.006 1.442 2.795 1.258 5.457.422 8.859-2.776 9.409-12.926 8.199-16.92h.006z" fill="#F48E69" style="fill:color(display-p3 .9569 .5569 .4118);fill-opacity:1"/><path d="M254.775 188.115s.085-.042.23-.105c.073-.031.163-.068.27-.107.104-.04.222-.085.345-.139.123-.054.255-.111.396-.164.143-.049.286-.128.44-.187.152-.065.312-.128.469-.204.157-.074.317-.145.48-.218.157-.08.317-.159.474-.233.16-.071.308-.155.457-.229.149-.077.298-.139.432-.215.135-.071.267-.136.387-.196.245-.116.444-.227.59-.289.146-.068.233-.102.233-.102s-.059.071-.172.19c-.056.057-.123.13-.204.207-.079.079-.172.17-.278.252-.107.091-.222.184-.345.283-.124.099-.264.187-.407.283-.146.094-.292.196-.455.278-.157.088-.322.17-.485.255-.171.074-.34.144-.508.212-.166.074-.34.119-.505.17-.166.046-.323.102-.483.128-.157.031-.306.054-.443.076-.067.012-.135.026-.196.029l-.177.008c-.11.009-.208.009-.289.012-.16.002-.253 0-.253 0l-.003.005zM254.669 179.41c-.853.215-1.869.751-2.464 1.431.418.861 1.818 5.359 2.085 6.495l5.227-1.779c.202-.586-1.672-6.954-4.848-6.147z" fill="#E86A43" style="fill:color(display-p3 .9098 .4157 .2627);fill-opacity:1"/><path d="M254.276 187.308c.141.037.407.031.752-.017l.208-.031a11.934 11.934 0 0 0 1.681-.417c.878-.277 1.801-.668 2.491-1.144.073-.045.141-.094.208-.147a5.335 5.335 0 0 1-.098-.068c-1.019-.726-2.43-2.414-3.572-2.309-2.155.201-1.905 2.824-1.74 3.784.039.216.073.349.073.349h-.003z" fill="#fff" style="fill:#fff;fill-opacity:1"/><path d="M254.437 186.393c.115.374.328.683.589.898l.207-.031a11.836 11.836 0 0 0 1.681-.417c.152-.359.18-.801.045-1.24a1.502 1.502 0 0 0-.076-.204 1.801 1.801 0 0 0-.477-.663c-.345-.298-.78-.422-1.187-.292-.695.218-1.049 1.091-.782 1.949z" fill="#77524F" style="fill:color(display-p3 .4667 .3216 .3098);fill-opacity:1"/><path d="M254.738 186.62c.089.291.275.518.496.64.275-.046.592-.114.929-.199.168-.235.224-.58.118-.923a1.072 1.072 0 0 0-.39-.572c-.202-.15-.446-.21-.674-.139-.429.136-.642.668-.482 1.193h.003z" fill="#23100C" style="fill:color(display-p3 .1373 .0627 .0471);fill-opacity:1"/><path d="M256.532 184.586c-.323.348-1.024 1.677-1.024 1.677.536-.287 1.122-.575 1.619-1.097-.166-.153-.432-.43-.598-.58h.003z" fill="#fff" style="fill:#fff;fill-opacity:1"/><path d="M259.515 185.484c-1.019-.726-2.189-1.558-3.328-1.454-1.664.153-2.037 1.244-2.046 2.173v.026c0 .266.028.518.065.73-.065-.266-1.013-4.203 1.537-4.441.402-.037.853.221 1.322.603.87.714 1.782 1.864 2.452 2.363h-.002z" fill="#542316" style="fill:color(display-p3 .3294 .1373 .0863);fill-opacity:1"/><path d="M269.996 182.594s-.093.02-.247.062c-.076.023-.171.049-.275.083-.107.034-.225.073-.354.107-.129.034-.266.074-.412.119-.141.048-.303.08-.46.125-.16.042-.323.096-.491.13-.169.04-.34.085-.511.128-.171.036-.345.073-.514.113-.168.042-.336.071-.499.105-.163.031-.32.076-.471.099-.152.028-.292.059-.424.088-.264.059-.486.099-.643.139-.154.036-.244.065-.244.065s.09.02.25.042c.078.012.177.026.286.037.112.014.239.026.376.026.138.002.286.008.443.005.158.003.323-.017.494-.031.171-.017.351-.028.528-.065.179-.031.359-.068.539-.102.176-.048.356-.099.53-.15.174-.046.339-.116.502-.182.16-.068.314-.121.457-.201.144-.073.275-.147.396-.215.059-.034.118-.065.171-.099.051-.037.101-.071.146-.102.093-.062.169-.125.233-.17.126-.099.199-.159.199-.159l-.005.003zM264.272 175.753c-.836.272-1.815.87-2.368 1.586.474.836 2.155 5.232 2.492 6.349l5.107-2.114c.162-.597-2.108-6.832-5.228-5.821h-.003z" fill="#E86A43" style="fill:color(display-p3 .9098 .4157 .2627);fill-opacity:1"/><path d="M264.404 183.62c.082 0 .166-.006.25-.017a7.193 7.193 0 0 0 1.204-.221c.471-.122.948-.286 1.397-.465 1.176-.467 2.166-1.048 2.382-1.345 0 0-.059-.125-.162-.315-.472-.853-1.922-3.042-3.715-1.821-.405.277-.643.835-.811 1.478-.068.267-.127.547-.177.83v.006c-.118.637-.202 1.278-.337 1.756a.982.982 0 0 1-.031.116v-.002z" fill="#fff" style="fill:#fff;fill-opacity:1"/><path d="M264.884 182.325c.185.516.555.898.974 1.057.471-.122.948-.286 1.397-.465.247-.396.306-.955.115-1.496-.011-.028-.02-.056-.034-.082a1.833 1.833 0 0 0-.381-.592c-.379-.402-.907-.575-1.375-.405a1.175 1.175 0 0 0-.634.572 1.643 1.643 0 0 0-.177.83v.006c.008.19.045.385.115.578v-.003z" fill="#77524F" style="fill:color(display-p3 .4667 .3216 .3098);fill-opacity:1"/><path d="M266.883 181.948c.185.519-.006 1.063-.427 1.213-.421.153-.912-.142-1.094-.66-.185-.519.005-1.063.426-1.216.421-.153.909.142 1.095.66v.003z" fill="#23100C" style="fill:color(display-p3 .1373 .0627 .0471);fill-opacity:1"/><path d="M267.324 180.331c-.356.314-1.195 1.555-1.195 1.555.564-.227 1.178-.45 1.728-.912-.148-.17-.384-.473-.533-.643z" fill="#fff" style="fill:#fff;fill-opacity:1"/><path d="M264.436 183.503c.333-1.212.718-2.603 1.669-3.252 1.386-.943 2.357-.339 2.946.377a4.227 4.227 0 0 1 .424.626c-.118-.249-1.846-3.903-3.973-2.459-.334.227-.525.717-.646 1.312-.227 1.108-.213 2.581-.418 3.394l-.002.002z" fill="#542316" style="fill:color(display-p3 .3294 .1373 .0863);fill-opacity:1"/><path d="M250.632 182.087c-.182.224 2.371-.776 2.371-.776s-.16-.518-.084-.703c.141.083.306.499.39.641.73-.258 1.322-.539 3.109-1.417-.118-.328-1.038-1.243-1.428-1.323-2.576 1.153-3.74 2.816-4.358 3.575v.003zM266.79 174.402c.275.079-2.391.716-2.391.716s-.16-.518-.326-.628c-.07.147.029.583.04.75-.747.204-1.392.312-3.359.609-.087-.34.16-1.617.435-1.906 2.769-.524 4.663.184 5.598.456l.003.003zM260.664 191.761l3.659-2.198c2.517-.72 5.213-1.255 7.655-1.598.718 1.3 3.198 8.595 2.856 9.824-.578 2.068-4.374 8.983-4.374 8.983l-1.718-2.439s1.243 2.374.028 4.317c-1.529-.887-2.677-2.513-3.03-3.479-.309.275-.124 2.114.463 2.779-.971-.354-6.527-5.246-8.617-11.28.929-1.824 1.818-3.297 3.078-4.912v.003z" fill="#3A2019" style="fill:color(display-p3 .2275 .1255 .098);fill-opacity:1"/><path d="M260.983 190.566c-.52-.057-2.287-.751-2.332.478-.054 1.417 5.064 2.082 6.207-2.096-.898 1.031-2.588 1.756-3.875 1.618z" fill="#E86A43" style="fill:color(display-p3 .9098 .4157 .2627);fill-opacity:1"/><path d="M257.904 180.13c.438.612 4.38 7.41 1.336 10.438l2.096.148c.839-2.323-.443-7.96-3.432-10.586z" fill="#E86A43" style="fill:color(display-p3 .9098 .4157 .2627);fill-opacity:1"/><path d="M271.032 189.846a9.87 9.87 0 0 1-.225 2.994c-.034.139-.07.275-.109.414-.042.144-.087.286-.135.428-.612 1.781-1.829 3.388-3.931 4.045-.979.306-1.81.45-2.523.476a5.543 5.543 0 0 1-1.088-.054c-2.239-.332-2.904-1.963-3.339-2.218l.639-.315c.334-.167.794-.399 1.372-.696a245.627 245.627 0 0 0 9.341-5.077l-.002.003z" fill="#682C19" style="fill:color(display-p3 .4078 .1725 .098);fill-opacity:1"/><path d="M271.032 189.846a9.818 9.818 0 0 1-.224 2.994c-2.668 1.66-6.715 3.717-7.823 3.943-.974.199-1.93-.456-2.663-1.164.334-.167.794-.399 1.372-.697a243.815 243.815 0 0 0 9.341-5.076h-.003z" fill="#fff" style="fill:#fff;fill-opacity:1"/><path d="M270.926 192.257c-.034.195-.073.391-.118.586-2.668 1.66-6.715 3.717-7.823 3.943-.974.199-1.93-.456-2.663-1.164.334-.167.794-.399 1.372-.697.463.422.954.765 1.201.745.929-.076 4.88-1.665 8.031-3.413z" fill="#EFEFEF" style="fill:color(display-p3 .9375 .9375 .9375);fill-opacity:1"/><path d="M270.698 193.257c-.042.144-.086.286-.134.427-.612 1.782-1.83 3.388-3.931 4.046-.98.306-1.81.45-2.523.476a5.557 5.557 0 0 1-1.089-.054c.073-.343.217-.655.461-.898.757-.754 4.851-3.026 7.216-4v.003z" fill="#fff" style="fill:#fff;fill-opacity:1"/><path d="M270.698 193.257c-.042.144-.086.286-.134.428-2.742 1.391-5.853 3.524-6.358 4.158-.057.071-.085.199-.096.366a5.557 5.557 0 0 1-1.089-.054c.073-.343.217-.655.461-.898.757-.754 4.851-3.026 7.216-4z" fill="#EFEFEF" style="fill:color(display-p3 .9375 .9375 .9375);fill-opacity:1"/><path d="M266.722 198.004h-.006c-.942.298-1.815.462-2.598.49-.401.017-.785 0-1.142-.056-1.782-.264-2.621-1.292-3.12-1.907-.123-.153-.253-.311-.32-.348l-.466-.275.486-.235.637-.314c.334-.168.794-.4 1.366-.694a243.684 243.684 0 0 0 9.33-5.071l.39-.224.036.451a10.108 10.108 0 0 1-.342 3.515 7.95 7.95 0 0 1-.109.351l-.031.094c-.517 1.501-1.647 3.45-4.114 4.223h.003zm-6.546-1.988c.039.048.081.096.123.15.48.586 1.201 1.47 2.764 1.7.32.048.668.065 1.036.051.729-.029 1.554-.185 2.449-.465h.006c2.205-.691 3.241-2.442 3.723-3.81l.017-.054c.048-.139.09-.275.132-.416.039-.133.073-.269.107-.403.042-.189.081-.382.115-.566a9.716 9.716 0 0 0 .129-1.878 240.986 240.986 0 0 1-8.948 4.855c-.576.295-1.039.53-1.375.697l-.275.136-.003.003z" fill="#E86A43" style="fill:color(display-p3 .9098 .4157 .2627);fill-opacity:1"/><path d="M266.829 161.136c-19.302-1.246-24.538 6.473-25.994 9.512-2.079 4.329 6.024 7.683 8.959 9.368 4.498-2.085-6.198-2.28 5.407-7.305 2.268-.983 8.864-1.267 11.266.357 1.184.798 5.769 6.144 6.196 7.577.67-.385 1.389-.816 2.129-1.048-.342-1.331.087-2.275-.451-5.833-1.171-7.708-1.765-12.254-7.509-12.625l-.003-.003z" fill="#3A2019" style="fill:color(display-p3 .2275 .1255 .098);fill-opacity:1"/><path d="M265.184 163.598c.331.422.763.883.971 1.382-.637.026-1.308.133-1.9.235.789.269 1.255 1.36 1.861 1.96-1.221-1.32-10.935 1.949-12.475 3.148 0 0 12.957-2.745 14.91 3.458.09-.739-.028-2.07-.3-2.807.688.034 1.616.439 2.211.81.211-1.626.154-2.917-.46-4.481.483-.278 1.198-.255 1.72-.06-.121-2.614-4.512-3.937-6.538-3.64v-.005z" fill="#512E25" style="fill:color(display-p3 .3176 .1804 .1451);fill-opacity:1"/><path d="M272.545 178.314c-.915 1.051.693 5.076.693 5.076.971 1.748 1.224 3.796 2.885 1.822 1.178-1.4 1.919-4.176 1.316-5.932-.761-2.221-3.48-2.595-4.897-.969l.003.003z" fill="#F48E69" style="fill:color(display-p3 .9569 .5569 .4118);fill-opacity:1"/><path d="M276.434 178.566a2.443 2.443 0 0 0-.339-.258 3.246 3.246 0 0 0-.778-.357 2.642 2.642 0 0 0-.861-.127 1.6 1.6 0 0 0-.867.269 1.61 1.61 0 0 0-.567.748 2.936 2.936 0 0 0-.182.895c-.034.603.047 1.19.162 1.759l.514.17s.025-.006.062-.011a.743.743 0 0 1 .123-.012c.093 0 .191.009.278.032a.454.454 0 0 1 .196.084c.017.02-.005 0-.005.012.003.014 0 .017-.006.014-.006 0-.008-.003-.017.006-.008.011-.019.031-.039.053a1.082 1.082 0 0 1-.18.179 2.935 2.935 0 0 1-.258.193l-.148.099-.082.054-.087.062.679.833.059-.057.067-.059.146-.134c.101-.093.202-.192.303-.306a1.95 1.95 0 0 0 .287-.407c.042-.085.081-.179.106-.292a.853.853 0 0 0-.409-.944 1.274 1.274 0 0 0-.508-.144 1.816 1.816 0 0 0-.466.02c-.034.005-.067.014-.101.022a5.563 5.563 0 0 1-.199-1.223 2.498 2.498 0 0 1 .078-.771c.07-.243.194-.464.382-.623.188-.159.435-.255.696-.286.261-.037.536-.014.802.04.267.056.531.147.777.269.124.062.242.133.354.218.109.085.216.181.269.314a.821.821 0 0 0-.244-.345l.003.011z" fill="#E86A43" style="fill:color(display-p3 .9098 .4157 .2627);fill-opacity:1"/><path d="M302.11 285.276c-1.114-4.331-2.497-9.359 1.981-12.314-2.132-.147-6.178 1.111-7.545-.688-.917-1.21-6.81-47.177-6.518-51.137-8.468 4.303-20.071 3.898-29.544 3.923 0 0 6.996 103.447 8.017 112.597 14.133 1.371 28.561 3.008 42.888 1.952-2.27-4.873-7.789-48.554-9.279-54.333z" fill="#F2D644" style="fill:color(display-p3 .9492 .8399 .2659);fill-opacity:1"/><path d="M289.853 221.219c.065 2.918.224 5.835.421 8.719l-2.857.201a205.082 205.082 0 0 1-.398-7.708c-.233-7.623.115-15.311 1.975-22.565.952.167 1.908.339 2.826.509-1.734 6.649-2.127 13.753-1.97 20.847l.003-.003z" fill="#681831" style="fill:color(display-p3 .4078 .0941 .1922);fill-opacity:1"/><path d="m264.488 232.131-1.341.238-1.479.266c-.426-2.445-.83-4.921-1.175-7.408v-.017c-.012-.076-.02-.15-.031-.224-.648-4.767-1.069-9.586-1.016-14.356.673-.804 1.712-1.736 2.955-2.725-.306 5.648.165 11.433.959 17.152.331 2.374.716 4.737 1.125 7.071l.003.003z" fill="#F2D644" style="fill:color(display-p3 .9492 .8399 .2659);fill-opacity:1"/><path d="M308.056 281.242c-2.205 0-3.838-1.951-4.094-3.787a6.242 6.242 0 0 1-.05-.748c-.014-.499-.023-.83-.385-1.266-.131-.159-.305-.258-.51-.374-.284-.162-.604-.343-.817-.714l-.457-.793-.208.116c-.934-1.7.654-5.445 2.357-6.513 1.002-.628 1.992-.382 2.713.672.957 1.396-.58 2.901-2.051 4.107 1.588-.311 3.567-.365 4.636.153.631.306.948.81.892 1.422-.039.425-.258.788-.637 1.048-1.142.785-3.664.578-5.373.304a.595.595 0 0 1 .056.065c.533.646.55 1.206.564 1.75.005.207.011.422.045.66.21 1.524 1.56 3.145 3.381 3.108l.017.787h-.079v.003zm-6.254-7.713.844.249c1.109.326 5.124.989 6.359.139.188-.128.283-.278.3-.468.017-.187-.02-.43-.452-.64-1.49-.722-5.41-.031-6.013.555l-.544-.566c.28-.275.673-.589 1.128-.952 1.358-1.082 3.221-2.564 2.539-3.564-.486-.711-1.013-.855-1.658-.45-1.485.929-2.753 4.246-2.085 5.459l-.415.232-.003.006z" fill="#681831" style="fill:color(display-p3 .4078 .0941 .1922);fill-opacity:1"/><path d="M283.992 249.716c-10.126-2.645-20.519-2.705-31.235-4.875l-1.398 5.671c15.599 10.343 35.779 16.674 40.291 10.074-2.585-4.187-3.309-7.836-7.661-10.87h.003z" fill="#F48E69" style="fill:color(display-p3 .9569 .5569 .4118);fill-opacity:1"/><path d="M287.44 208.653c-2.174 10.311-2.469 32.916-5.715 45.885 3.774 1.394 5.929 5.34 9.93 6.048 2.202-4.482 5.892-12.147 6.922-16.082 14.33-54.76-8.94-46.256-11.134-35.848l-.003-.003z" fill="#F48E69" style="fill:color(display-p3 .9569 .5569 .4118);fill-opacity:1"/><path d="M299.716 230.595c.949.414 1.897.833 2.848 1.25 7.24-40.387-13.782-32.824-15.786-23.325-.828 3.931-2.16 11.41-2.393 17.775 1.403.485 11.961 2.827 15.331 4.3z" fill="#fff" style="fill:#fff;fill-opacity:1"/><path d="m235.149 234.391-3.169 4.67 1.387.959 3.168-4.67-1.386-.959z" fill="#728387" style="fill:color(display-p3 .4471 .5137 .5294);fill-opacity:1"/><path d="m249.502 247.579-.211.311 1.642 1.133.211-.31-1.642-1.134z" fill="#1D363D" style="fill:color(display-p3 .1137 .2118 .2392);fill-opacity:1"/><path d="m248.54 246.613-.421.619 1.639 1.134.42-.619-1.638-1.134z" fill="#fff" style="fill:#fff;fill-opacity:1"/><path d="m240.041 238.176.305-.748-1.097-.456-1.094-.756-.227.337.996.691-.166.402 1.283.53z" fill="#403A51" style="fill:color(display-p3 .251 .2275 .3176);fill-opacity:1"/><path d="M248.126 244.062a2.26 2.26 0 0 1 .578 3.125 2.211 2.211 0 0 1-3.095.583 2.255 2.255 0 0 1-.578-3.124 2.212 2.212 0 0 1 3.095-.584z" fill="#fff" style="fill:#fff;fill-opacity:1"/><path d="m248.114 244.076-2.497 3.68-11.56-7.266 3.168-4.671 10.889 8.257z" fill="#403A51" style="fill:color(display-p3 .251 .2275 .3176);fill-opacity:1"/><path d="m235.841 234.868-3.169 4.669 1.386.959 3.169-4.669-1.386-.959z" fill="#A5A5A5" style="fill:color(display-p3 .6471 .6471 .6471);fill-opacity:1"/><path d="M247.09 245.586a.402.402 0 0 1 .101.55.392.392 0 0 1-.545.105.403.403 0 0 1-.101-.553.393.393 0 0 1 .545-.102z" fill="#3F5051" style="fill:color(display-p3 .2471 .3137 .3176);fill-opacity:1"/><path d="M246.992 245.734a.213.213 0 0 1 .053.291.207.207 0 0 1-.289.057.215.215 0 0 1-.056-.295.207.207 0 0 1 .292-.053z" fill="#fff" style="fill:#fff;fill-opacity:1"/><path d="m230.265 237.477-.173.254 2.566 1.787.174-.255-2.567-1.786zM230.869 236.615l-.174.252 2.573 1.779.171-.255-2.57-1.776zM231.471 235.747l-.172.255 2.577 1.771.172-.255-2.577-1.771zM232.067 234.847l-.174.252 2.573 1.779.174-.252-2.573-1.779zM232.665 233.963l-.171.255 2.57 1.779.174-.255-2.573-1.779zM233.266 233.082l-.174.253 2.573 1.781.174-.257-2.573-1.777z" fill="#728387" style="fill:color(display-p3 .4471 .5137 .5294);fill-opacity:1"/><path d="M233.29 239.215a.221.221 0 0 1 .126.284.218.218 0 0 1-.284.127.22.22 0 0 1-.126-.283.218.218 0 0 1 .281-.13l.003.002zM236.084 235.295a.22.22 0 0 1-.028.311.213.213 0 0 1-.306-.028.22.22 0 0 1 .028-.309.214.214 0 0 1 .306.029v-.003z" fill="#1D363D" style="fill:color(display-p3 .1137 .2118 .2392);fill-opacity:1"/><path d="M250.897 243.986c-1.094-.507-2.233-1.062-3.347-1.547-.879-.382-1.636-1.105-2.565-1.289-1.052-.207-2.424.21-3.457.422-1.456.301-6.456.765-5.025 2.901.269.402.797.487 1.046.881.334.521.205 1.161.528 1.691.539.89 1.625 1.153 2.318 1.83 1.027 1.003 1.475 1.227 2.859 1.601 1.178.317 1.933.034 3.171.053 1.248.02 2.446.244 3.686.25 1.322.003 2.498-.388 3.727-.536l.777-4.558c-.126-.512-2.89-1.314-3.721-1.702l.003.003z" fill="#F48E69" style="fill:color(display-p3 .9569 .5569 .4118);fill-opacity:1"/></g><path d="M190.495 57.038h3.951v1.114a1.27 1.27 0 0 0-.67 0 .995.995 0 0 0-.425.37 1.626 1.626 0 0 0-.201.914v29.408h-3.772l-7.417-25.576v23.17c-.027.31.043.622.201.891.104.161.251.29.424.372.219.06.451.06.67 0v1.158h-3.932v-1.158c.204.06.422.06.626 0a1.19 1.19 0 0 0 .447-.372c.172-.263.251-.577.223-.89V59.432a1.485 1.485 0 0 0-.223-.914 1.123 1.123 0 0 0-.447-.371 1.122 1.122 0 0 0-.626 0v-1.114h4.558l7.909 27.106V59.433a1.485 1.485 0 0 0-.223-.914 1.123 1.123 0 0 0-.447-.371 1.122 1.122 0 0 0-.626 0v-1.11zM224.498 86.49a1.31 1.31 0 0 0 1.028 1.248c.265.06.54.06.804 0v1.114h-6.564v-1.114c.234.06.48.06.715 0a.902.902 0 0 0 .402-.371c.132-.278.164-.593.089-.892 0-.06-.082-.586-.246-1.581-.163-.996-.36-2.304-.588-3.925H214.4a245.45 245.45 0 0 0-.693 3.943c-.163.995-.245 1.522-.245 1.582-.097.29-.089.606.022.891a.788.788 0 0 0 .372.371c.235.06.481.06.715 0v1.114h-4.282v-1.114c.265.06.54.06.804 0 .244-.067.467-.194.648-.371a1.66 1.66 0 0 0 .425-.891c0-.03.074-.468.223-1.315.149-.846.35-1.96.603-3.341.249-1.382.539-2.949.872-4.701.332-1.753.66-3.55.983-5.392l2.681-14.615h2.279c.864 5.446 1.638 10.303 2.323 14.57.298 1.842.581 3.64.849 5.392.268 1.753.517 3.32.745 4.701.223 1.381.41 2.503.558 3.364.149.862.221 1.306.216 1.333zm-9.919-6.683h5.406a285.331 285.331 0 0 0-.603-3.922c-.223-1.396-.447-2.8-.67-4.21a532.232 532.232 0 0 0-.67-4.122 373.014 373.014 0 0 1-.604-3.713 79.52 79.52 0 0 0-.715 3.713c-.228 1.347-.476 2.72-.744 4.122-.248 1.41-.497 2.814-.745 4.21l-.655 3.921zM232.8 86.445c-.023.318.046.635.201.914.082.15.214.269.373.334a.653.653 0 0 0 .58 0v1.158h-5.388v-1.158a.748.748 0 0 0 .626 0 .856.856 0 0 0 .335-.334c.155-.279.225-.596.201-.914V59.4a1.726 1.726 0 0 0-.201-.958 1.488 1.488 0 0 0-.335-.372 1.122 1.122 0 0 0-.626 0V57h5.407v1.07a.957.957 0 0 0-.581 0c-.152.093-.279.22-.372.372a1.726 1.726 0 0 0-.201.958l-.019 27.046z" fill="#fff" style="fill:#fff;fill-opacity:1"/><path d="M205.452 61.579a2.112 2.112 0 0 1-.525-.063 2.312 2.312 0 0 1-1.699-1.883 2.302 2.302 0 0 1 1.058-2.302 2.2 2.2 0 0 1 1.683-.268 2.298 2.298 0 0 1 1.669 2.751 2.279 2.279 0 0 1-1.028 1.434c-.348.216-.749.33-1.158.33zm0-3.836c-.273 0-.54.075-.771.219a1.54 1.54 0 0 0-.693.97 1.548 1.548 0 0 0 1.118 1.856 1.45 1.45 0 0 0 1.117-.178 1.54 1.54 0 0 0 .692-.97 1.544 1.544 0 0 0-1.117-1.856 1.569 1.569 0 0 0-.35-.041h.004zM198.61 62.804c-.276 0-.549-.055-.804-.16a2.387 2.387 0 0 1-1.307-1.351 2.47 2.47 0 0 1 1.176-3.156 2.126 2.126 0 0 1 1.676-.034 2.417 2.417 0 0 1 1.311 1.352 2.474 2.474 0 0 1-1.181 3.16 2.1 2.1 0 0 1-.871.19zm-.063-4.114c-.194 0-.386.042-.563.123a1.724 1.724 0 0 0-.793 2.228 1.625 1.625 0 0 0 .898.935 1.36 1.36 0 0 0 1.087 0 1.723 1.723 0 0 0 .793-2.228 1.641 1.641 0 0 0-.897-.935 1.381 1.381 0 0 0-.51-.123h-.015zM194.594 83.568c-.156.817-.465 1.34-.465 2.454l.458 2.447 7.388-21.591c.041-.446.078-.895.119-1.345 0-.03.372-.508.208-.612-.164-.104-.83.16-.845.204-2.286 6.154-4.574 12.302-6.863 18.443z" fill="#000" style="fill:#000;fill-opacity:1"/><path d="m209.109 89-7.216-21.815.372-3.913c0-.086.164-.275.372.285.041.127.034-.233.064-.237.029-.004.022.037.022.04.033.1 2.781 8.359 6.684 20.07.174 1.105.212 2.228.112 3.342a13.481 13.481 0 0 1-.41 2.228zM197.358 58.334c-.68.044-1.356.148-2.018.311a1.83 1.83 0 0 0-.972.531c-.116.129-.216.27-.298.424a1 1 0 0 0 .082.742c.085.146.216.26.373.323a1.163 1.163 0 0 1 .216-1.177.787.787 0 0 1 .689-.104c.744.152 1.158.973 1.251 1.181.223-.74.449-1.484.677-2.231z" fill="#000" style="fill:#000;fill-opacity:1"/><path d="m203.329 59.928-1.763 5.227.706.236 1.763-5.226-.706-.237z" fill="#000" style="fill:#000;fill-opacity:1"/><path d="m200.706 60.918-.722.185 1.501 5.83.722-.185-1.501-5.83z" fill="#000" style="fill:#000;fill-opacity:1"/><path d="M95.1 107.714c.215-.476.541-.845.98-1.106.448-.261.994-.392 1.638-.392v1.022h-.266c-.71 0-1.279.191-1.708.574-.43.383-.644 1.022-.644 1.918V114h-.98v-7.644h.98v1.358zm11.008 2.072c0 .336-.009.593-.028.77h-6.342c.028.579.168 1.073.42 1.484.252.411.584.723.994.938a2.97 2.97 0 0 0 1.344.308c.635 0 1.167-.154 1.596-.462.439-.308.728-.723.868-1.246h1.036a3.252 3.252 0 0 1-1.204 1.834c-.606.467-1.372.7-2.296.7-.718 0-1.362-.159-1.932-.476a3.52 3.52 0 0 1-1.344-1.372c-.317-.597-.476-1.293-.476-2.086 0-.793.159-1.489.476-2.086a3.31 3.31 0 0 1 1.33-1.372c.57-.317 1.218-.476 1.946-.476s1.363.159 1.904.476a3.21 3.21 0 0 1 1.26 1.288c.299.532.448 1.125.448 1.778zm-.994-.028c.01-.569-.107-1.055-.35-1.456a2.267 2.267 0 0 0-.966-.91 2.963 2.963 0 0 0-1.344-.308c-.728 0-1.348.233-1.862.7-.513.467-.798 1.125-.854 1.974h5.376zm2.339.406c0-.784.159-1.47.476-2.058a3.37 3.37 0 0 1 1.302-1.372c.56-.327 1.19-.49 1.89-.49a3.45 3.45 0 0 1 1.82.49c.542.327.938.751 1.19 1.274v-4.368h.98V114h-.98v-1.708c-.233.532-.616.971-1.148 1.316-.532.336-1.157.504-1.876.504-.7 0-1.33-.163-1.89-.49a3.471 3.471 0 0 1-1.302-1.386c-.308-.597-.462-1.288-.462-2.072zm6.678.014c0-.616-.126-1.157-.378-1.624a2.678 2.678 0 0 0-1.036-1.078 2.767 2.767 0 0 0-1.428-.378c-.541 0-1.026.121-1.456.364-.429.243-.77.597-1.022 1.064-.242.457-.364 1.003-.364 1.638 0 .625.122 1.176.364 1.652.252.467.593.826 1.022 1.078.43.243.915.364 1.456.364.523 0 .999-.126 1.428-.378a2.678 2.678 0 0 0 1.036-1.078c.252-.467.378-1.008.378-1.624zm10.134-.392c0 .336-.01.593-.028.77h-6.342c.028.579.168 1.073.42 1.484.252.411.583.723.994.938.41.205.858.308 1.344.308.634 0 1.166-.154 1.596-.462a2.16 2.16 0 0 0 .868-1.246h1.036a3.257 3.257 0 0 1-1.204 1.834c-.607.467-1.372.7-2.296.7-.719 0-1.363-.159-1.932-.476a3.512 3.512 0 0 1-1.344-1.372c-.318-.597-.476-1.293-.476-2.086 0-.793.158-1.489.476-2.086a3.303 3.303 0 0 1 1.33-1.372c.569-.317 1.218-.476 1.946-.476s1.362.159 1.904.476c.55.317.97.747 1.26 1.288.298.532.448 1.125.448 1.778zm-.994-.028c.009-.569-.108-1.055-.35-1.456a2.279 2.279 0 0 0-.966-.91 2.97 2.97 0 0 0-1.344-.308c-.728 0-1.349.233-1.862.7-.514.467-.798 1.125-.854 1.974h5.376zm5.797-2.576h-1.778V114h-.98v-6.818h-1.064v-.826h1.064v-.532c0-.831.21-1.442.63-1.834.429-.392 1.12-.588 2.072-.588v.84c-.635 0-1.083.121-1.344.364-.252.243-.378.649-.378 1.218v.532h1.778v.826zm2.032-2.268a.687.687 0 0 1-.504-.21.704.704 0 0 1-.21-.518.66.66 0 0 1 .21-.504c.14-.14.308-.21.504-.21s.364.07.504.21a.66.66 0 0 1 .21.504c0 .205-.07.378-.21.518a.687.687 0 0 1-.504.21zm.49 1.442V114h-.98v-7.644h.98zm5.803-.14c.915 0 1.662.285 2.24.854.579.56.868 1.377.868 2.45V114h-.966v-4.368c0-.831-.21-1.465-.63-1.904-.41-.439-.975-.658-1.694-.658-.737 0-1.325.233-1.764.7-.438.467-.658 1.153-.658 2.058V114h-.98v-7.644h.98v1.302a2.463 2.463 0 0 1 1.05-1.064 3.17 3.17 0 0 1 1.554-.378zm5.766-1.302a.687.687 0 0 1-.504-.21.704.704 0 0 1-.21-.518.66.66 0 0 1 .21-.504c.14-.14.308-.21.504-.21s.364.07.504.21a.66.66 0 0 1 .21.504c0 .205-.07.378-.21.518a.687.687 0 0 1-.504.21zm.49 1.442V114h-.98v-7.644h.98zm5.803-.14c.915 0 1.661.285 2.24.854.579.56.868 1.377.868 2.45V114h-.966v-4.368c0-.831-.21-1.465-.63-1.904-.411-.439-.975-.658-1.694-.658-.737 0-1.325.233-1.764.7-.439.467-.658 1.153-.658 2.058V114h-.98v-7.644h.98v1.302a2.463 2.463 0 0 1 1.05-1.064 3.164 3.164 0 0 1 1.554-.378zm8.481.028c.719 0 1.344.168 1.876.504.532.336.915.761 1.148 1.274v-1.666h.98v7.84c0 .7-.154 1.321-.462 1.862a3.05 3.05 0 0 1-1.26 1.246c-.541.299-1.157.448-1.848.448-.98 0-1.796-.233-2.45-.7-.644-.467-1.045-1.101-1.204-1.904h.966c.168.532.486.957.952 1.274.476.317 1.055.476 1.736.476.495 0 .938-.107 1.33-.322.392-.205.7-.513.924-.924.224-.411.336-.896.336-1.456v-1.89c-.242.523-.63.957-1.162 1.302-.522.336-1.143.504-1.862.504-.7 0-1.33-.163-1.89-.49a3.471 3.471 0 0 1-1.302-1.386c-.308-.597-.462-1.288-.462-2.072s.154-1.47.462-2.058a3.37 3.37 0 0 1 1.302-1.372c.56-.327 1.19-.49 1.89-.49zm3.024 3.934c0-.616-.126-1.157-.378-1.624a2.678 2.678 0 0 0-1.036-1.078 2.767 2.767 0 0 0-1.428-.378c-.541 0-1.026.121-1.456.364-.429.243-.77.597-1.022 1.064-.242.457-.364 1.003-.364 1.638 0 .625.122 1.176.364 1.652.252.467.593.826 1.022 1.078.43.243.915.364 1.456.364.523 0 .999-.126 1.428-.378a2.678 2.678 0 0 0 1.036-1.078c.252-.467.378-1.008.378-1.624zm13.359-3.822-4.536 11.242h-1.022l1.484-3.64-3.136-7.602h1.078l2.604 6.524 2.52-6.524h1.008zm4.675 7.756a3.986 3.986 0 0 1-1.946-.476 3.622 3.622 0 0 1-1.358-1.372c-.326-.597-.49-1.293-.49-2.086 0-.793.168-1.484.504-2.072a3.469 3.469 0 0 1 1.372-1.372 3.888 3.888 0 0 1 1.946-.49c.719 0 1.368.163 1.946.49a3.346 3.346 0 0 1 1.372 1.372c.336.588.504 1.279.504 2.072 0 .784-.168 1.475-.504 2.072a3.539 3.539 0 0 1-1.386 1.386 4.063 4.063 0 0 1-1.96.476zm0-.854a2.98 2.98 0 0 0 1.4-.336c.43-.233.775-.579 1.036-1.036.271-.467.406-1.036.406-1.708 0-.672-.13-1.237-.392-1.694-.261-.467-.606-.812-1.036-1.036a2.888 2.888 0 0 0-1.4-.35c-.504 0-.97.117-1.4.35-.429.224-.774.569-1.036 1.036-.252.457-.378 1.022-.378 1.694 0 .672.126 1.241.378 1.708.262.457.602.803 1.022 1.036.43.224.896.336 1.4.336zm12.259-6.902V114h-.98v-1.344c-.224.476-.57.84-1.036 1.092a3.25 3.25 0 0 1-1.568.378c-.915 0-1.662-.28-2.24-.84-.579-.569-.868-1.391-.868-2.464v-4.466h.966v4.354c0 .831.205 1.465.616 1.904.42.439.989.658 1.708.658.737 0 1.325-.233 1.764-.7.438-.467.658-1.153.658-2.058v-4.158h.98zm3.217 1.358a2.41 2.41 0 0 1 .98-1.106c.448-.261.994-.392 1.638-.392v1.022h-.266c-.709 0-1.278.191-1.708.574-.429.383-.644 1.022-.644 1.918V114h-.98v-7.644h.98v1.358zm10.566 6.398c-.877 0-1.596-.201-2.156-.602-.55-.411-.858-.966-.924-1.666h1.008c.047.429.248.779.602 1.05.364.261.85.392 1.456.392.532 0 .948-.126 1.246-.378.308-.252.462-.565.462-.938a.873.873 0 0 0-.252-.644 1.696 1.696 0 0 0-.644-.392 8.241 8.241 0 0 0-1.036-.322 10.64 10.64 0 0 1-1.386-.448 2.46 2.46 0 0 1-.91-.658c-.242-.299-.364-.695-.364-1.19 0-.373.112-.719.336-1.036.224-.317.542-.569.952-.756.411-.187.878-.28 1.4-.28.822 0 1.484.21 1.988.63.504.411.775.98.812 1.708h-.98c-.028-.448-.205-.807-.532-1.078-.317-.28-.756-.42-1.316-.42-.494 0-.896.117-1.204.35-.308.233-.462.523-.462.868 0 .299.089.546.266.742.187.187.416.336.686.448.271.103.635.219 1.092.35.551.149.99.294 1.316.434.327.14.607.345.84.616.234.271.355.63.364 1.078 0 .411-.112.779-.336 1.106a2.31 2.31 0 0 1-.938.756c-.401.187-.863.28-1.386.28zm4.057-3.948c0-.784.154-1.47.462-2.058a3.357 3.357 0 0 1 1.302-1.372c.56-.327 1.19-.49 1.89-.49.728 0 1.353.168 1.876.504.532.336.915.765 1.148 1.288v-1.68h.98V114h-.98v-1.694c-.243.523-.63.957-1.162 1.302-.523.336-1.148.504-1.876.504a3.65 3.65 0 0 1-1.876-.49 3.458 3.458 0 0 1-1.302-1.386c-.308-.597-.462-1.288-.462-2.072zm6.678.014c0-.616-.126-1.157-.378-1.624a2.678 2.678 0 0 0-1.036-1.078 2.767 2.767 0 0 0-1.428-.378c-.541 0-1.027.121-1.456.364-.429.243-.77.597-1.022 1.064-.243.457-.364 1.003-.364 1.638 0 .625.121 1.176.364 1.652.252.467.593.826 1.022 1.078.429.243.915.364 1.456.364.523 0 .999-.126 1.428-.378a2.678 2.678 0 0 0 1.036-1.078c.252-.467.378-1.008.378-1.624zm4.197-6.538V114h-.98v-10.36h.98zm5.565 10.472a3.986 3.986 0 0 1-1.946-.476 3.622 3.622 0 0 1-1.358-1.372c-.326-.597-.49-1.293-.49-2.086 0-.793.168-1.484.504-2.072a3.469 3.469 0 0 1 1.372-1.372 3.888 3.888 0 0 1 1.946-.49c.719 0 1.368.163 1.946.49a3.346 3.346 0 0 1 1.372 1.372c.336.588.504 1.279.504 2.072 0 .784-.168 1.475-.504 2.072a3.539 3.539 0 0 1-1.386 1.386 4.063 4.063 0 0 1-1.96.476zm0-.854a2.98 2.98 0 0 0 1.4-.336c.43-.233.775-.579 1.036-1.036.271-.467.406-1.036.406-1.708 0-.672-.13-1.237-.392-1.694-.261-.467-.606-.812-1.036-1.036a2.888 2.888 0 0 0-1.4-.35c-.504 0-.97.117-1.4.35-.429.224-.774.569-1.036 1.036-.252.457-.378 1.022-.378 1.694 0 .672.126 1.241.378 1.708.262.457.602.803 1.022 1.036.43.224.896.336 1.4.336zm9.221-7.042c.915 0 1.661.285 2.24.854.579.56.868 1.377.868 2.45V114h-.966v-4.368c0-.831-.21-1.465-.63-1.904-.411-.439-.975-.658-1.694-.658-.737 0-1.325.233-1.764.7-.439.467-.658 1.153-.658 2.058V114h-.98v-7.644h.98v1.302a2.463 2.463 0 0 1 1.05-1.064 3.164 3.164 0 0 1 1.554-.378zm16.033 3.57c0 .336-.009.593-.028.77h-6.342c.028.579.168 1.073.42 1.484.252.411.583.723.994.938a2.97 2.97 0 0 0 1.344.308c.635 0 1.167-.154 1.596-.462.439-.308.728-.723.868-1.246h1.036a3.257 3.257 0 0 1-1.204 1.834c-.607.467-1.372.7-2.296.7-.719 0-1.363-.159-1.932-.476a3.525 3.525 0 0 1-1.344-1.372c-.317-.597-.476-1.293-.476-2.086 0-.793.159-1.489.476-2.086a3.309 3.309 0 0 1 1.33-1.372c.569-.317 1.218-.476 1.946-.476s1.363.159 1.904.476a3.21 3.21 0 0 1 1.26 1.288c.299.532.448 1.125.448 1.778zm-.994-.028c.009-.569-.107-1.055-.35-1.456a2.267 2.267 0 0 0-.966-.91 2.97 2.97 0 0 0-1.344-.308c-.728 0-1.349.233-1.862.7-.513.467-.798 1.125-.854 1.974h5.376zm6.791 4.242-1.974-3.08-1.904 3.08h-1.036l2.464-3.822-2.436-3.822h1.106l1.946 3.038 1.89-3.038h1.022l-2.436 3.78 2.464 3.864h-1.106zm3.401-5.964c.243-.513.626-.938 1.148-1.274.532-.345 1.162-.518 1.89-.518.691 0 1.312.163 1.862.49.56.317.994.775 1.302 1.372.318.588.476 1.274.476 2.058 0 .784-.158 1.475-.476 2.072a3.34 3.34 0 0 1-1.302 1.386c-.55.327-1.171.49-1.862.49-.718 0-1.344-.168-1.876-.504-.532-.345-.919-.775-1.162-1.288v5.292h-.966v-11.256h.966v1.68zm5.684 2.128c0-.635-.126-1.181-.378-1.638a2.518 2.518 0 0 0-1.008-1.064 2.9 2.9 0 0 0-1.456-.364c-.522 0-1.003.126-1.442.378-.429.252-.77.611-1.022 1.078-.252.467-.378 1.008-.378 1.624 0 .616.126 1.157.378 1.624.252.467.593.826 1.022 1.078.439.252.92.378 1.442.378a2.9 2.9 0 0 0 1.456-.364c.43-.252.766-.611 1.008-1.078.252-.476.378-1.027.378-1.652zm9.714-.378c0 .336-.01.593-.028.77h-6.342c.028.579.168 1.073.42 1.484.252.411.583.723.994.938.41.205.858.308 1.344.308.634 0 1.166-.154 1.596-.462a2.16 2.16 0 0 0 .868-1.246h1.036a3.257 3.257 0 0 1-1.204 1.834c-.607.467-1.372.7-2.296.7-.719 0-1.363-.159-1.932-.476a3.512 3.512 0 0 1-1.344-1.372c-.318-.597-.476-1.293-.476-2.086 0-.793.158-1.489.476-2.086a3.303 3.303 0 0 1 1.33-1.372c.569-.317 1.218-.476 1.946-.476s1.362.159 1.904.476c.55.317.97.747 1.26 1.288.298.532.448 1.125.448 1.778zm-.994-.028c.009-.569-.108-1.055-.35-1.456a2.279 2.279 0 0 0-.966-.91 2.97 2.97 0 0 0-1.344-.308c-.728 0-1.349.233-1.862.7-.514.467-.798 1.125-.854 1.974h5.376zm3.767-2.044c.214-.476.541-.845.98-1.106.448-.261.994-.392 1.638-.392v1.022h-.266c-.71 0-1.279.191-1.708.574-.43.383-.644 1.022-.644 1.918V114h-.98v-7.644h.98v1.358zm4.582-2.8a.687.687 0 0 1-.504-.21.704.704 0 0 1-.21-.518.66.66 0 0 1 .21-.504c.14-.14.308-.21.504-.21s.364.07.504.21a.66.66 0 0 1 .21.504c0 .205-.07.378-.21.518a.687.687 0 0 1-.504.21zm.49 1.442V114h-.98v-7.644h.98zm9.135 3.43c0 .336-.009.593-.028.77h-6.342c.028.579.168 1.073.42 1.484.252.411.584.723.994.938a2.97 2.97 0 0 0 1.344.308c.635 0 1.167-.154 1.596-.462.439-.308.728-.723.868-1.246h1.036a3.252 3.252 0 0 1-1.204 1.834c-.606.467-1.372.7-2.296.7-.718 0-1.362-.159-1.932-.476a3.525 3.525 0 0 1-1.344-1.372c-.317-.597-.476-1.293-.476-2.086 0-.793.159-1.489.476-2.086a3.315 3.315 0 0 1 1.33-1.372c.57-.317 1.218-.476 1.946-.476s1.363.159 1.904.476a3.21 3.21 0 0 1 1.26 1.288c.299.532.448 1.125.448 1.778zm-.994-.028c.01-.569-.107-1.055-.35-1.456a2.267 2.267 0 0 0-.966-.91 2.963 2.963 0 0 0-1.344-.308c-.728 0-1.348.233-1.862.7-.513.467-.798 1.125-.854 1.974h5.376zm6.371-3.542c.915 0 1.662.285 2.24.854.579.56.868 1.377.868 2.45V114h-.966v-4.368c0-.831-.21-1.465-.63-1.904-.41-.439-.975-.658-1.694-.658-.737 0-1.325.233-1.764.7-.438.467-.658 1.153-.658 2.058V114h-.98v-7.644h.98v1.302a2.463 2.463 0 0 1 1.05-1.064 3.17 3.17 0 0 1 1.554-.378zm4.828 3.962c0-.793.158-1.484.476-2.072a3.332 3.332 0 0 1 1.316-1.372c.56-.327 1.199-.49 1.918-.49.942 0 1.717.233 2.324.7.616.467 1.012 1.101 1.19 1.904h-1.05c-.131-.551-.416-.98-.854-1.288-.43-.317-.966-.476-1.61-.476-.514 0-.976.117-1.386.35-.411.233-.738.583-.98 1.05-.234.457-.35 1.022-.35 1.694 0 .672.116 1.241.35 1.708.242.467.569.817.98 1.05.41.233.872.35 1.386.35.644 0 1.18-.154 1.61-.462.438-.317.723-.756.854-1.316h1.05c-.178.784-.574 1.414-1.19 1.89s-1.391.714-2.324.714c-.719 0-1.358-.159-1.918-.476a3.45 3.45 0 0 1-1.316-1.372c-.318-.597-.476-1.293-.476-2.086zm15.95-.392c0 .336-.01.593-.028.77h-6.342c.028.579.168 1.073.42 1.484.252.411.583.723.994.938.41.205.858.308 1.344.308.634 0 1.166-.154 1.596-.462a2.16 2.16 0 0 0 .868-1.246h1.036a3.257 3.257 0 0 1-1.204 1.834c-.607.467-1.372.7-2.296.7-.719 0-1.363-.159-1.932-.476a3.512 3.512 0 0 1-1.344-1.372c-.318-.597-.476-1.293-.476-2.086 0-.793.158-1.489.476-2.086a3.303 3.303 0 0 1 1.33-1.372c.569-.317 1.218-.476 1.946-.476s1.362.159 1.904.476c.55.317.97.747 1.26 1.288.298.532.448 1.125.448 1.778zm-.994-.028c.009-.569-.108-1.055-.35-1.456a2.279 2.279 0 0 0-.966-.91 2.97 2.97 0 0 0-1.344-.308c-.728 0-1.349.233-1.862.7-.514.467-.798 1.125-.854 1.974h5.376z" fill="#fff" style="fill:#fff;fill-opacity:1"/></g><defs><clipPath id="a"><path fill="#fff" style="fill:#fff;fill-opacity:1" d="M0 0h414v342H0z"/></clipPath><clipPath id="b"><path fill="#fff" style="fill:#fff;fill-opacity:1" transform="translate(78 161)" d="M0 0h244v247H0z"/></clipPath></defs></svg>