<svg width="414" height="342" viewBox="0 0 414 342" fill="none" xmlns="http://www.w3.org/2000/svg">
<g clip-path="url(#clip0_3930_12126)">
<path d="M0 0H414V316C414 329.807 402.807 341 389 341H25C11.1929 341 0 329.807 0 316V0Z" fill="#AA2F4C" style="fill:#AA2F4C;fill:color(display-p3 0.6667 0.1843 0.2980);fill-opacity:1;"/>
<g clip-path="url(#clip1_3930_12126)">
<path d="M304.093 308.862H94.7598V344.045H304.093V308.862Z" fill="#5F7682" style="fill:#5F7682;fill:color(display-p3 0.3725 0.4627 0.5098);fill-opacity:1;"/>
<path d="M93.1561 407.184H89.8086V308.862H99.7051L93.1561 407.184Z" fill="#768C99" style="fill:#768C99;fill:color(display-p3 0.4627 0.5490 0.6000);fill-opacity:1;"/>
<path d="M279.745 407.688H283.09V309.369H273.193L279.745 407.688Z" fill="#5F7682" style="fill:#5F7682;fill:color(display-p3 0.3725 0.4627 0.5098);fill-opacity:1;"/>
<path d="M119.718 407.184H116.373V308.862H126.27L119.718 407.184Z" fill="#5F7682" style="fill:#5F7682;fill:color(display-p3 0.3725 0.4627 0.5098);fill-opacity:1;"/>
<path d="M305.694 407.184H309.039V308.862H299.143L305.694 407.184Z" fill="#768C99" style="fill:#768C99;fill:color(display-p3 0.4627 0.5490 0.6000);fill-opacity:1;"/>
<path d="M315.953 298.882H83.3926V312.029H315.953V298.882Z" fill="#5F7682" style="fill:#5F7682;fill:color(display-p3 0.3725 0.4627 0.5098);fill-opacity:1;"/>
<path d="M321.256 294.675H78.0918V303.089H321.256V294.675Z" fill="#8E9DA8" style="fill:#8E9DA8;fill:color(display-p3 0.5569 0.6157 0.6588);fill-opacity:1;"/>
<path d="M121.323 294.675H78.0918V303.089H121.323V294.675Z" fill="#768C99" style="fill:#768C99;fill:color(display-p3 0.4627 0.5490 0.6000);fill-opacity:1;"/>
<path d="M238.204 177.124H160.598V292.157H238.204V177.124Z" fill="#96BBCC" style="fill:#96BBCC;fill:color(display-p3 0.5882 0.7333 0.8000);fill-opacity:1;"/>
<path d="M238.661 174.538C238.512 174.507 238.361 174.492 238.206 174.492H160.6C159.18 174.492 157.996 175.688 157.996 177.121V292.154C157.996 293.587 159.18 294.783 160.6 294.783H238.206C239.017 294.783 239.629 294.477 240.047 294.012C240.504 293.59 240.81 292.97 240.81 292.154V177.124C240.81 175.849 239.87 174.762 238.661 174.541V174.538ZM235.6 289.525H163.201V179.753H235.6V289.528V289.525Z" fill="#5F7682" style="fill:#5F7682;fill:color(display-p3 0.3725 0.4627 0.5098);fill-opacity:1;"/>
<g style="mix-blend-mode:color-dodge" opacity="0.2">
<path d="M181.025 174.496L179.965 177.124L178.904 179.753L163.205 218.701L157.994 231.621V199.956L160.598 193.498L163.205 187.039L166.14 179.753L167.2 177.124L168.261 174.496H181.025Z" fill="#96BBCC" style="fill:#96BBCC;fill:color(display-p3 0.5882 0.7333 0.8000);fill-opacity:1;"/>
</g>
<g style="mix-blend-mode:color-dodge" opacity="0.2">
<path d="M227.193 174.495L226.132 177.124L225.071 179.753L180.816 289.528L179.756 292.157L178.695 294.786H160.594C159.174 294.786 157.99 293.59 157.99 292.157V255.014L163.198 242.094L188.331 179.75L189.391 177.121L190.452 174.492H227.19L227.193 174.495Z" fill="#96BBCC" style="fill:#96BBCC;fill:color(display-p3 0.5882 0.7333 0.8000);fill-opacity:1;"/>
</g>
<g style="mix-blend-mode:color-dodge" opacity="0.2">
<path d="M240.807 177.124V195.347L238.203 201.806L235.599 208.265L202.84 289.525L201.779 292.154L200.719 294.783H190.18L191.24 292.154L192.301 289.525L235.599 182.124L237.614 177.124L238.658 174.541C239.867 174.762 240.807 175.849 240.807 177.124Z" fill="#96BBCC" style="fill:#96BBCC;fill:color(display-p3 0.5882 0.7333 0.8000);fill-opacity:1;"/>
</g>
<path d="M264.925 263.88H263.522C262.329 263.88 261.361 264.857 261.361 266.062V266.605C261.361 267.81 262.329 268.787 263.522 268.787H264.925C266.118 268.787 267.085 267.81 267.085 266.605V266.062C267.085 264.857 266.118 263.88 264.925 263.88Z" fill="#518BBF" style="fill:#518BBF;fill:color(display-p3 0.3176 0.5451 0.7490);fill-opacity:1;"/>
<path d="M269.347 270.996H259.1C257.907 270.996 256.939 271.973 256.939 273.177V292.429C256.939 293.634 257.907 294.61 259.1 294.61H269.347C270.541 294.61 271.508 293.634 271.508 292.429V273.177C271.508 271.973 270.541 270.996 269.347 270.996Z" fill="#E8EAA4" style="fill:#E8EAA4;fill:color(display-p3 0.9098 0.9176 0.6431);fill-opacity:1;"/>
<path d="M267.033 266.716H261.418C260.225 266.716 259.258 267.692 259.258 268.897V273.257C259.258 274.461 260.225 275.438 261.418 275.438H267.033C268.226 275.438 269.194 274.461 269.194 273.257V268.897C269.194 267.692 268.226 266.716 267.033 266.716Z" fill="#E8EAA4" style="fill:#E8EAA4;fill:color(display-p3 0.9098 0.9176 0.6431);fill-opacity:1;"/>
<path d="M269.804 280.599C269.804 282.888 267.306 284.741 264.226 284.741C261.145 284.741 258.645 282.885 258.645 280.599C258.645 278.313 261.142 276.455 264.226 276.455C267.309 276.455 269.804 278.31 269.804 280.599Z" fill="white" style="fill:white;fill-opacity:1;"/>
<path d="M128.37 267.444H127.146V273.549H128.37V267.444Z" fill="#A55165" style="fill:#A55165;fill:color(display-p3 0.6471 0.3176 0.3961);fill-opacity:1;"/>
<path d="M135.281 267.807C135.281 268.078 135.065 268.297 134.795 268.297H127.273C127.003 268.297 126.787 268.076 126.787 267.807C126.787 267.535 127.006 267.316 127.273 267.316H134.795C135.065 267.316 135.281 267.537 135.281 267.807Z" fill="#A55165" style="fill:#A55165;fill:color(display-p3 0.6471 0.3176 0.3961);fill-opacity:1;"/>
<path d="M135.282 267.807H134.291V269.005H135.282V267.807Z" fill="#A55165" style="fill:#A55165;fill:color(display-p3 0.6471 0.3176 0.3961);fill-opacity:1;"/>
<path d="M128.866 270.424H126.593C124.66 270.424 123.094 272.006 123.094 273.956V274.837C123.094 276.788 124.66 278.37 126.593 278.37H128.866C130.798 278.37 132.365 276.788 132.365 274.837V273.956C132.365 272.006 130.798 270.424 128.866 270.424Z" fill="#DDA4B4" style="fill:#DDA4B4;fill:color(display-p3 0.8667 0.6431 0.7059);fill-opacity:1;"/>
<path d="M123.459 274.934H132C132.993 274.934 133.799 275.747 133.799 276.75V292.794C133.799 293.797 132.993 294.61 132 294.61H123.459C122.465 294.61 121.66 293.797 121.66 292.794V276.75C121.66 275.747 122.465 274.934 123.459 274.934Z" fill="#A55165" style="fill:#A55165;fill:color(display-p3 0.6471 0.3176 0.3961);fill-opacity:1;"/>
<path d="M133.801 282.803H121.66V287.211H133.801V282.803Z" fill="white" style="fill:white;fill-opacity:1;"/>
<path d="M253.642 279.63L253.011 284.523L252.621 287.534L251.908 293.078H247.938L245.932 279.63H253.642Z" fill="#E8EAA4" style="fill:#E8EAA4;fill:color(display-p3 0.9098 0.9176 0.6431);fill-opacity:1;"/>
<path d="M247.736 292.16V293.973C247.736 294.327 248.02 294.613 248.37 294.613H251.409C251.76 294.613 252.043 294.327 252.043 293.973V292.16H247.736Z" fill="#A55165" style="fill:#A55165;fill:color(display-p3 0.6471 0.3176 0.3961);fill-opacity:1;"/>
<path d="M253.011 284.523L252.621 287.537C252.265 287.636 251.869 287.692 251.451 287.692C249.891 287.692 248.623 286.919 248.623 285.965C248.623 285.01 249.891 284.237 251.451 284.237C252.027 284.237 252.563 284.341 253.011 284.523Z" fill="white" style="fill:white;fill-opacity:1;"/>
<path d="M147.792 276.104L147.012 282.149L146.532 285.868L145.651 292.718H140.749L138.271 276.104H147.792Z" fill="#31A2C9" style="fill:#31A2C9;fill:color(display-p3 0.1922 0.6353 0.7882);fill-opacity:1;"/>
<path d="M140.496 291.582V293.82C140.496 294.256 140.847 294.61 141.279 294.61H145.033C145.465 294.61 145.816 294.256 145.816 293.82V291.582H140.496Z" fill="#A55165" style="fill:#A55165;fill:color(display-p3 0.6471 0.3176 0.3961);fill-opacity:1;"/>
<path d="M147.012 282.149L146.532 285.871C146.092 285.993 145.603 286.064 145.087 286.064C143.159 286.064 141.594 285.109 141.594 283.931C141.594 282.752 143.159 281.798 145.087 281.798C145.8 281.798 146.462 281.928 147.012 282.152V282.149Z" fill="white" style="fill:white;fill-opacity:1;"/>
<path d="M225.015 274.441H222.113V275.874H225.015V274.441Z" fill="#414A54" style="fill:#414A54;fill:color(display-p3 0.2549 0.2902 0.3294);fill-opacity:1;"/>
<path d="M231.209 294.786H223.79C221.812 293.536 220.496 291.318 220.496 288.792C220.496 284.888 223.633 281.721 227.497 281.721C231.361 281.721 234.498 284.888 234.498 288.792C234.498 291.318 233.182 293.536 231.206 294.786H231.209Z" fill="#518BBF" style="fill:#518BBF;fill:color(display-p3 0.3176 0.5451 0.7490);fill-opacity:1;"/>
<path d="M224.643 281.829H230.367C230.99 281.829 231.492 282.336 231.492 282.965H223.518C223.518 282.336 224.02 281.829 224.643 281.829Z" fill="white" style="fill:white;fill-opacity:1;"/>
<path d="M224.787 280.786C224.787 281.361 225.25 281.829 225.82 281.829H229.192C229.765 281.829 230.225 281.361 230.225 280.786C230.225 280.211 229.765 279.744 229.192 279.744H225.82C225.25 279.744 224.787 280.211 224.787 280.786Z" fill="white" style="fill:white;fill-opacity:1;"/>
<path d="M228.927 276.288H226.088V279.744H228.927V276.288Z" fill="#414A54" style="fill:#414A54;fill:color(display-p3 0.2549 0.2902 0.3294);fill-opacity:1;"/>
<path d="M221.627 274.214C221.86 273.988 222.177 273.849 222.522 273.849H223.201V276.466H222.522C222.177 276.466 221.857 276.327 221.627 276.101V274.214Z" fill="white" style="fill:white;fill-opacity:1;"/>
<path d="M223.85 274.135C224.56 273.438 225.932 272.968 227.506 272.968C229.812 272.968 231.678 273.976 231.678 275.22C231.678 276.463 229.809 277.472 227.506 277.472C225.932 277.472 224.56 277.002 223.85 276.305V274.138V274.135Z" fill="#518BBF" style="fill:#518BBF;fill:color(display-p3 0.3176 0.5451 0.7490);fill-opacity:1;"/>
<path opacity="0.5" d="M229.093 279.744H228.555V281.826H229.093V279.744Z" fill="white" style="fill:white;fill-opacity:1;"/>
<path opacity="0.5" d="M228.215 279.744H227.676V281.826H228.215V279.744Z" fill="white" style="fill:white;fill-opacity:1;"/>
<path opacity="0.5" d="M227.334 279.744H226.795V281.826H227.334V279.744Z" fill="white" style="fill:white;fill-opacity:1;"/>
<path opacity="0.5" d="M226.457 279.744H225.918V281.826H226.457V279.744Z" fill="white" style="fill:white;fill-opacity:1;"/>
<path d="M223.203 274.044H222.387V274.228H223.203V274.044Z" fill="#414A54" style="fill:#414A54;fill:color(display-p3 0.2549 0.2902 0.3294);fill-opacity:1;"/>
<path d="M223.203 274.441H222.387V274.628H223.203V274.441Z" fill="#414A54" style="fill:#414A54;fill:color(display-p3 0.2549 0.2902 0.3294);fill-opacity:1;"/>
<path d="M223.203 274.84H222.387V275.027H223.203V274.84Z" fill="#414A54" style="fill:#414A54;fill:color(display-p3 0.2549 0.2902 0.3294);fill-opacity:1;"/>
<path d="M223.203 275.24H222.387V275.424H223.203V275.24Z" fill="#414A54" style="fill:#414A54;fill:color(display-p3 0.2549 0.2902 0.3294);fill-opacity:1;"/>
<path d="M223.203 275.639H222.387V275.826H223.203V275.639Z" fill="#414A54" style="fill:#414A54;fill:color(display-p3 0.2549 0.2902 0.3294);fill-opacity:1;"/>
<path d="M223.203 276.039H222.387V276.223H223.203V276.039Z" fill="#414A54" style="fill:#414A54;fill:color(display-p3 0.2549 0.2902 0.3294);fill-opacity:1;"/>
<path d="M224.576 275.027L226.795 275.775C226.655 275.863 223.204 282.375 221.946 282.537C221.871 282.044 225.46 277.97 224.576 275.027Z" fill="#518BBF" style="fill:#518BBF;fill:color(display-p3 0.3176 0.5451 0.7490);fill-opacity:1;"/>
<path d="M110.263 271.668L110.027 271.642L110.336 266.569L111.037 266.645L110.263 271.668Z" fill="#141414" style="fill:#141414;fill:color(display-p3 0.0772 0.0772 0.0772);fill-opacity:1;"/>
<path d="M111.149 271.764L110.916 271.738L111.227 266.665L111.926 266.741L111.149 271.764Z" fill="#141414" style="fill:#141414;fill:color(display-p3 0.0772 0.0772 0.0772);fill-opacity:1;"/>
<path d="M112.039 271.863L111.809 271.835L112.117 266.764L112.816 266.841L112.039 271.863Z" fill="#141414" style="fill:#141414;fill:color(display-p3 0.0772 0.0772 0.0772);fill-opacity:1;"/>
<path d="M112.928 271.959L112.695 271.934L113.007 266.86L113.705 266.937L112.928 271.959Z" fill="#141414" style="fill:#141414;fill:color(display-p3 0.0772 0.0772 0.0772);fill-opacity:1;"/>
<path d="M113.82 272.056L113.584 272.03L113.895 266.957L114.594 267.036L113.82 272.056Z" fill="#141414" style="fill:#141414;fill:color(display-p3 0.0772 0.0772 0.0772);fill-opacity:1;"/>
<path d="M114.708 272.155L114.475 272.129L114.786 267.056L115.485 267.132L114.708 272.155Z" fill="#141414" style="fill:#141414;fill:color(display-p3 0.0772 0.0772 0.0772);fill-opacity:1;"/>
<path d="M115.596 272.251L115.363 272.226L115.675 267.152L116.373 267.229L115.596 272.251Z" fill="#141414" style="fill:#141414;fill:color(display-p3 0.0772 0.0772 0.0772);fill-opacity:1;"/>
<path d="M109.937 271.562L109.875 272.142L115.605 272.77L115.667 272.19L109.937 271.562Z" fill="white" style="fill:white;fill-opacity:1;"/>
<path d="M109.482 272.104C109.348 273.888 110.638 275.472 112.414 275.667C114.191 275.863 115.787 274.594 116.034 272.82L109.482 272.104Z" fill="#141414" style="fill:#141414;fill:color(display-p3 0.0772 0.0772 0.0772);fill-opacity:1;"/>
<path d="M111.133 289.236L110.695 289.191L111.851 274.954L113.033 275.084L111.133 289.236Z" fill="#141414" style="fill:#141414;fill:color(display-p3 0.0772 0.0772 0.0772);fill-opacity:1;"/>
<path d="M107.103 273.152L106.94 272.478L109.721 271.787L109.628 271.407L106.847 272.098L106.682 271.424L109.465 270.733L109.376 270.353L106.592 271.044L106.427 270.37L109.207 269.679L109.115 269.299L106.334 269.991L106.168 269.316L108.949 268.628L108.856 268.248L106.076 268.94L105.91 268.265L108.694 267.577L108.601 267.197L105.818 267.886L105.655 267.212L108.436 266.52L108.343 266.141L105.562 266.832L105.397 266.158L108.177 265.467L108.088 265.087L105.307 265.775L105.141 265.101L107.925 264.41L107.832 264.033L105.049 264.722L104.886 264.047L107.667 263.359L107.574 262.979L104.793 263.671L104.628 262.994L107.409 262.302L107.305 261.88L105.035 262.447C104.112 262.676 103.548 263.617 103.775 264.549L109.555 288.282L109.825 288.214L107.1 275.203C106.875 274.271 107.439 273.33 108.36 273.104L109.942 272.71L109.883 272.472L107.103 273.163V273.152Z" fill="#141414" style="fill:#141414;fill:color(display-p3 0.0772 0.0772 0.0772);fill-opacity:1;"/>
<path d="M115.046 279.169L114.274 294.862H106.485L105.256 279.169H115.046Z" fill="#5F7682" style="fill:#5F7682;fill:color(display-p3 0.3725 0.4627 0.5098);fill-opacity:1;"/>
<path d="M110.149 279.169V294.862H106.485L105.256 279.169H110.149Z" fill="#8E9DA8" style="fill:#8E9DA8;fill:color(display-p3 0.5569 0.6157 0.6588);fill-opacity:1;"/>
<path d="M249.372 241.456C244.321 232.21 237.222 224.542 231.425 215.191L226.383 218.06C229.655 236.609 238.959 255.764 246.81 254.541C248.05 249.767 250.177 246.731 249.372 241.453V241.456Z" fill="#ED805F" style="fill:#ED805F;fill:color(display-p3 0.9294 0.5020 0.3725);fill-opacity:1;"/>
<path d="M262.077 208.435C256.426 216.225 247.958 235.335 240.398 244.901C243.207 247.802 243.665 252.138 246.922 254.558C250.486 251.745 256.507 246.892 258.839 244.008C291.304 203.899 267.781 200.571 262.074 208.432L262.077 208.435Z" fill="#ED805F" style="fill:#ED805F;fill:color(display-p3 0.9294 0.5020 0.3725);fill-opacity:1;"/>
<path d="M263.196 234.196C263.878 234.98 264.56 235.765 265.245 236.55C288.868 203.149 266.659 200.928 260.831 208.656C258.421 211.854 254.055 218.043 251.15 223.698C252.217 224.74 260.772 231.408 263.196 234.193V234.196Z" fill="white" style="fill:white;fill-opacity:1;"/>
<path d="M227.316 319.306C224.926 318.003 217.56 319.36 215.009 319.567C209.151 320.045 203.241 320.383 197.388 320.946C188.146 321.839 177.489 322.55 169.06 326.666C167.393 327.479 164.037 328.654 163.686 331.141C161.921 343.617 229.485 334.561 229.485 334.561C229.606 331.181 230.279 320.924 227.316 319.306Z" fill="#3A4F64" style="fill:#3A4F64;fill:color(display-p3 0.2275 0.3098 0.3922);fill-opacity:1;"/>
<path d="M175.998 329.507C175.998 329.507 164.078 327.989 163.686 331.141C162.541 340.334 176.194 390.542 173.773 400.7C175.285 401.213 177.665 401.162 179.07 400.7C183.953 383.531 186.301 371.367 184.037 354.228C183.321 348.807 178.366 348.826 177.272 343.727C176.242 338.917 175.989 334.164 175.995 329.504L175.998 329.507Z" fill="#3A4F64" style="fill:#3A4F64;fill:color(display-p3 0.2275 0.3098 0.3922);fill-opacity:1;"/>
<path d="M188.014 328.997L175.668 331.13C177.77 338.178 179.212 344.047 178.819 347.2C177.674 356.396 188.208 390.032 185.789 400.193C187.301 400.706 189.681 400.655 191.087 400.193C195.969 383.023 198.317 370.86 196.053 353.721C195.338 348.299 190.382 348.319 189.288 343.22C188.258 338.41 188.006 333.657 188.011 328.997H188.014Z" fill="#3A4F64" style="fill:#3A4F64;fill:color(display-p3 0.2275 0.3098 0.3922);fill-opacity:1;"/>
<path d="M160.732 310.627C163.678 309.595 171.821 311.845 171.821 311.845C170.522 312.711 169.335 313.615 167.881 314.241C166.742 314.734 165.314 315.221 164.088 315.388C162.881 315.553 161.217 315.224 160.286 316.258C159.413 317.227 160.117 318.703 158.397 318.031C157.14 317.541 157.084 316.213 157.084 315.085C157.084 312.349 158.321 311.468 160.732 310.627Z" fill="#F48E69" style="fill:#F48E69;fill:color(display-p3 0.9569 0.5569 0.4118);fill-opacity:1;"/>
<path d="M199.261 364.404L193.846 340.815H227.253L221.504 364.404H199.261Z" fill="#5F7682" style="fill:#5F7682;fill:color(display-p3 0.3725 0.4627 0.5098);fill-opacity:1;"/>
<path d="M187.072 364.404L181.656 340.815H207.861L208.254 364.404H187.072Z" fill="#C1C1C1" style="fill:#C1C1C1;fill:color(display-p3 0.7551 0.7551 0.7551);fill-opacity:1;"/>
<path d="M238.263 340.815H167.018V350.444H238.263V340.815Z" fill="#3A4F64" style="fill:#3A4F64;fill:color(display-p3 0.2275 0.3098 0.3922);fill-opacity:1;"/>
<path d="M180.891 340.337C180.891 343.39 182.532 345.866 184.558 345.866H251.474C253.5 345.866 255.141 343.39 255.141 340.337V339.135C255.141 336.082 253.5 333.606 251.474 333.606H184.558C182.532 333.606 180.891 336.082 180.891 339.135V340.337Z" fill="#5F7682" style="fill:#5F7682;fill:color(display-p3 0.3725 0.4627 0.5098);fill-opacity:1;"/>
<path d="M161.607 340.337C161.607 343.39 163.35 345.866 165.496 345.866H199.726C201.875 345.866 203.615 343.39 203.615 340.337V339.135C203.615 336.082 201.872 333.606 199.726 333.606H165.496C163.35 333.606 161.607 336.082 161.607 339.135V340.337Z" fill="#C1C1C1" style="fill:#C1C1C1;fill:color(display-p3 0.7551 0.7551 0.7551);fill-opacity:1;"/>
<path d="M196.645 271.143V328.201C196.645 330.025 198.12 331.504 199.944 331.504H251.096C252.92 331.504 254.396 330.028 254.396 328.201V271.143C254.396 269.319 252.92 267.84 251.096 267.84H199.944C198.12 267.84 196.645 269.319 196.645 271.143Z" fill="#F06562" style="fill:#F06562;fill:color(display-p3 0.9412 0.3961 0.3843);fill-opacity:1;"/>
<path d="M205.957 271.143V328.201C205.957 330.025 207.436 331.504 209.257 331.504H251.84C253.663 331.504 255.139 330.028 255.139 328.201V271.143C255.139 269.319 253.663 267.84 251.84 267.84H209.257C207.436 267.84 205.957 269.319 205.957 271.143Z" fill="#A55165" style="fill:#A55165;fill:color(display-p3 0.6471 0.3176 0.3961);fill-opacity:1;"/>
<path d="M223.719 347.639C223.719 349.189 224.659 350.447 225.82 350.447H235.324C236.486 350.447 237.426 349.189 237.426 347.639V323.892C237.426 322.343 236.483 321.085 235.324 321.085H225.82C224.659 321.085 223.719 322.34 223.719 323.892V347.639Z" fill="#602B3B" style="fill:#602B3B;fill:color(display-p3 0.3765 0.1686 0.2314);fill-opacity:1;"/>
<path d="M227.041 347.639C227.041 349.189 227.981 350.447 229.143 350.447H238.646C239.808 350.447 240.748 349.189 240.748 347.639V323.892C240.748 322.343 239.808 321.085 238.646 321.085H229.143C227.981 321.085 227.041 322.34 227.041 323.892V347.639Z" fill="#A55165" style="fill:#A55165;fill:color(display-p3 0.6471 0.3176 0.3961);fill-opacity:1;"/>
<path d="M158.59 315.488C158.59 317.19 159.954 318.57 161.643 318.57H194.567V355.115C194.567 356.656 195.614 357.951 197.028 358.316C197.286 358.381 197.559 358.418 197.836 358.418H197.884C199.691 358.418 201.156 356.939 201.156 355.115V315.709C201.156 315.672 201.15 315.635 201.15 315.598C201.15 315.561 201.156 315.524 201.156 315.488C201.156 313.785 199.789 312.406 198.103 312.406H161.643C159.956 312.406 158.59 313.785 158.59 315.488Z" fill="#7F3B4E" style="fill:#7F3B4E;fill:color(display-p3 0.4980 0.2314 0.3059);fill-opacity:1;"/>
<path d="M158.59 315.488C158.59 317.19 159.954 318.57 161.643 318.57H194.567V355.115C194.567 356.656 195.614 357.951 197.028 358.316C198.445 357.951 199.492 356.656 199.492 355.115V315.709C199.492 315.672 199.486 315.635 199.486 315.598C199.486 315.561 199.492 315.524 199.492 315.488C199.492 313.785 198.125 312.406 196.439 312.406H161.643C159.956 312.406 158.59 313.785 158.59 315.488Z" fill="#C1C1C1" style="fill:#C1C1C1;fill:color(display-p3 0.7551 0.7551 0.7551);fill-opacity:1;"/>
<path d="M206.65 231.391C206.19 232.114 205.699 232.768 205.085 233.337C204.411 233.958 203.558 234.536 202.82 235.063C203.844 237.125 205.536 238.286 207.781 238.487L207.955 229.023C207.492 229.377 207.063 230.754 206.653 231.394L206.65 231.391Z" fill="#F48E69" style="fill:#F48E69;fill:color(display-p3 0.9569 0.5569 0.4118);fill-opacity:1;"/>
<path d="M241.086 261.875C232.676 249.589 229.705 251.453 227.715 241.98C226.691 237.105 218.7 242.946 217.123 243.241C215.939 251.096 216.581 254.875 209.095 258.436C203.786 260.963 198.405 262.628 196.861 269.112C195.234 275.948 195.411 283.616 195.411 290.687C195.411 297.757 195.119 304.219 195.119 311.026C195.119 315.496 194.743 319.867 194.471 324.275C196.696 325.348 198.803 326.702 201.042 327.731C204.356 329.255 207.748 330.595 211.16 331.875C215.832 333.629 220.608 335.036 225.364 336.518C228.953 335.983 232.491 335.031 235.968 334.255C240.746 333.19 240.022 329.807 240.353 325.348C241.116 315.049 242.971 305.018 243.861 294.763C244.548 286.874 241.739 279.336 242.89 271.568C243.372 268.305 243.086 264.804 241.083 261.875H241.086Z" fill="#F48E69" style="fill:#F48E69;fill:color(display-p3 0.9569 0.5569 0.4118);fill-opacity:1;"/>
<path d="M226.411 237.626C225.53 239.133 224.621 240.524 223.316 241.725C220.561 244.266 213.119 250.116 209.643 248.646C205.734 246.994 205.821 236.303 207.025 234.196C207.078 234.105 207.123 234.02 207.168 233.935C207.519 233.289 207.095 232.638 206.87 232.111C206.862 232.094 206.856 232.077 206.851 232.06C206.814 231.969 206.786 231.887 206.769 231.805C206.753 231.745 206.747 231.683 206.75 231.629C206.758 231.471 206.761 231.321 206.761 231.182C206.772 230.575 206.744 230.125 206.71 229.683C206.71 229.649 206.705 229.612 206.702 229.576L206.685 229.394C206.652 228.986 206.618 228.561 206.598 228.001C206.584 227.627 206.705 227.216 206.786 226.848C206.806 226.754 206.826 226.658 206.84 226.57C206.845 226.533 206.851 226.493 206.859 226.457C207.443 222.743 210.288 221.335 211.677 218.123L226.408 237.629L226.411 237.626Z" fill="#F48E69" style="fill:#F48E69;fill:color(display-p3 0.9569 0.5569 0.4118);fill-opacity:1;"/>
<path d="M210.962 229.374C210.914 229.881 210.653 230.244 210.353 230.643C210.207 230.839 210.016 231.012 209.854 231.323C209.845 231.338 209.84 231.349 209.834 231.363C209.792 231.38 209.753 231.391 209.711 231.403C209.36 231.505 208.953 231.544 208.552 231.53C208.392 231.524 208.235 231.513 208.077 231.493C208.052 231.493 208.024 231.493 207.999 231.485C207.974 231.485 207.948 231.479 207.926 231.473H207.92C207.89 231.473 207.861 231.465 207.831 231.459C207.805 231.459 207.777 231.454 207.752 231.448C207.671 231.434 207.589 231.42 207.516 231.403C207.449 231.389 207.382 231.374 207.317 231.357C207.283 231.349 207.25 231.34 207.216 231.329C207.154 231.312 207.093 231.295 207.039 231.278C207.017 231.27 206.992 231.261 206.969 231.255C206.958 231.255 206.95 231.247 206.941 231.244C206.896 231.227 206.854 231.216 206.815 231.196C206.798 231.187 206.778 231.182 206.762 231.176C206.773 230.57 206.745 230.119 206.711 229.678C206.711 229.644 206.705 229.607 206.703 229.57L206.686 229.389C206.652 228.981 206.618 228.556 206.599 227.995C206.585 227.621 206.705 227.21 206.787 226.842C206.806 226.748 206.826 226.652 206.84 226.564C206.846 226.527 206.851 226.488 206.86 226.451C207.202 226.437 207.547 226.442 207.887 226.451C208.686 226.476 209.601 226.76 210.249 227.239C210.867 227.697 211.029 228.646 210.962 229.366V229.374Z" fill="#E86A43" style="fill:#E86A43;fill:color(display-p3 0.9098 0.4157 0.2627);fill-opacity:1;"/>
<path d="M209.812 231.366L209.784 231.357C209.784 231.357 209.778 231.366 209.775 231.369C209.784 231.369 209.801 231.369 209.812 231.369V231.366Z" fill="#E86A43" style="fill:#E86A43;fill:color(display-p3 0.9098 0.4157 0.2627);fill-opacity:1;"/>
<path d="M209.773 231.375C209.773 231.375 209.773 231.372 209.776 231.369C209.77 231.369 209.767 231.369 209.773 231.375Z" fill="#E86A43" style="fill:#E86A43;fill:color(display-p3 0.9098 0.4157 0.2627);fill-opacity:1;"/>
<path d="M216.422 248.881C216.043 249.637 212.8 253.668 210.053 253.623C210.036 252.81 209.918 251.974 209.921 251.232C209.927 250.093 209.643 249.048 209.531 247.946C209.531 249.099 209.595 250.269 209.332 251.402C209.189 252.011 208.958 252.614 208.684 253.192C206.888 251.966 205.664 247.909 206.313 238.19C214.455 238.249 215.087 235.187 215.614 234.842L216.967 235.992C216.377 236.85 217.999 245.714 216.425 248.884L216.422 248.881Z" fill="#3A2019" style="fill:#3A2019;fill:color(display-p3 0.2275 0.1255 0.0980);fill-opacity:1;"/>
<path d="M239.217 230.032C236.313 239.55 230.564 239.833 228.734 245.014C227.368 248.878 219.323 238.235 219.172 237.065C218.855 234.624 218.005 234.431 215.81 234.315C216.428 232.306 216.739 229.986 216.327 227.879C215.886 225.618 214.952 222.913 212.915 221.995C207.059 219.349 206.461 214.995 207.207 211.35C207.673 209.063 208.666 207.058 209.216 205.922C214.087 211.78 245.458 209.571 239.217 230.032Z" fill="#3A2019" style="fill:#3A2019;fill:color(display-p3 0.2275 0.1255 0.0980);fill-opacity:1;"/>
<path d="M206.533 238.13C205.947 238.043 205.285 237.782 204.659 237.927C203.795 238.125 203.929 238.81 203.556 239.442C202.93 240.493 201.861 240.983 200.756 241.351C201.238 241.3 201.744 241.62 202.204 241.759C202.992 241.994 203.907 242.017 204.726 241.941C205.473 241.87 206.096 241.544 206.724 241.156C207.311 240.793 208.004 240.524 208.551 240.102L209.073 238.13C208.22 238.13 207.375 238.261 206.533 238.133V238.13Z" fill="#3A2019" style="fill:#3A2019;fill:color(display-p3 0.2275 0.1255 0.0980);fill-opacity:1;"/>
<path d="M209.894 231.533C209.894 231.533 209.838 231.567 209.732 231.618C209.678 231.643 209.617 231.675 209.544 231.709C209.471 231.743 209.387 231.779 209.294 231.808C209.201 231.842 209.1 231.879 208.994 231.913C208.884 231.949 208.769 231.972 208.649 232.003C208.528 232.029 208.405 232.06 208.275 232.077C208.146 232.097 208.015 232.111 207.885 232.128C207.754 232.136 207.622 232.142 207.493 232.145C207.364 232.153 207.234 232.145 207.114 232.134C207.03 232.125 206.951 232.122 206.873 232.117C206.864 232.1 206.858 232.083 206.853 232.066C206.816 231.975 206.788 231.893 206.771 231.811H206.777C206.884 231.811 207.002 231.794 207.119 231.794C207.237 231.788 207.358 231.785 207.484 231.774C207.608 231.762 207.731 231.757 207.86 231.748C207.986 231.734 208.11 231.723 208.233 231.711C208.36 231.703 208.48 231.683 208.598 231.672C208.716 231.655 208.834 231.652 208.94 231.635C209.05 231.618 209.154 231.609 209.249 231.601C209.443 231.584 209.6 231.558 209.715 231.55C209.83 231.541 209.897 231.539 209.897 231.539L209.894 231.533Z" fill="#E86A43" style="fill:#E86A43;fill:color(display-p3 0.9098 0.4157 0.2627);fill-opacity:1;"/>
<path d="M209.864 231.355C209.864 231.355 209.842 231.363 209.831 231.366C209.789 231.383 209.749 231.394 209.707 231.405C209.356 231.507 208.95 231.547 208.548 231.533C208.388 231.527 208.231 231.516 208.074 231.496C208.049 231.496 208.021 231.496 207.996 231.488C207.97 231.488 207.945 231.482 207.923 231.476H207.917C207.886 231.476 207.858 231.468 207.827 231.462C207.802 231.462 207.774 231.456 207.749 231.451C207.667 231.437 207.586 231.422 207.513 231.405C207.446 231.391 207.378 231.377 207.314 231.36C207.28 231.352 207.246 231.343 207.213 231.332C207.151 231.315 207.089 231.298 207.036 231.281C207.013 231.272 206.988 231.264 206.966 231.258C206.955 231.258 206.946 231.25 206.938 231.247C206.893 231.23 206.851 231.219 206.811 231.199C206.795 231.19 206.775 231.185 206.758 231.179C206.769 230.573 206.741 230.122 206.708 229.68C206.708 229.646 206.702 229.61 206.699 229.573C206.997 228.663 207.53 227.712 208.408 228.114C209.062 228.411 209.415 230.19 209.786 231.168C209.797 231.199 209.808 231.227 209.822 231.258C209.831 231.278 209.839 231.301 209.847 231.321C209.853 231.332 209.856 231.34 209.861 231.349L209.864 231.355Z" fill="white" style="fill:white;fill-opacity:1;"/>
<path d="M208.821 230.244C208.821 230.323 208.815 230.406 208.809 230.488C208.77 230.884 208.672 231.241 208.532 231.527C208.344 231.519 208.158 231.505 207.979 231.479C207.962 231.479 207.942 231.479 207.926 231.473H207.92C207.92 231.473 207.9 231.473 207.892 231.473C207.872 231.473 207.85 231.468 207.833 231.465C207.808 231.465 207.78 231.456 207.754 231.451C207.673 231.437 207.592 231.422 207.519 231.405C207.451 231.391 207.384 231.377 207.32 231.36C207.286 231.352 207.252 231.343 207.218 231.332C207.157 231.315 207.095 231.298 207.042 231.281C207.019 231.272 206.994 231.264 206.972 231.258C206.899 230.961 206.876 230.615 206.91 230.247C207 229.238 207.505 228.474 208.029 228.542C208.338 228.581 208.588 228.893 208.72 229.352C208.798 229.615 208.835 229.918 208.826 230.247L208.821 230.244Z" fill="#77524F" style="fill:#77524F;fill:color(display-p3 0.4667 0.3216 0.3098);fill-opacity:1;"/>
<path d="M208.029 230.476C208.029 230.573 208.029 230.672 208.015 230.771C207.99 231.04 207.922 231.281 207.83 231.462C207.805 231.462 207.777 231.456 207.751 231.451C207.67 231.437 207.589 231.422 207.516 231.405C207.448 231.391 207.381 231.377 207.316 231.36C207.283 231.352 207.249 231.343 207.215 231.332C207.154 231.315 207.092 231.298 207.039 231.281C207.005 231.097 206.991 230.873 207.019 230.641C207.078 230.023 207.353 229.553 207.631 229.587C207.776 229.607 207.897 229.768 207.967 230.009C208.004 230.139 208.026 230.301 208.032 230.471L208.029 230.476Z" fill="#23100C" style="fill:#23100C;fill:color(display-p3 0.1373 0.0627 0.0471);fill-opacity:1;"/>
<path d="M209.304 230.125C208.948 230.049 207.609 230.125 207.609 230.125C207.91 230.377 208.215 230.663 208.746 230.785C208.892 230.604 209.158 230.301 209.304 230.122V230.125Z" fill="white" style="fill:white;fill-opacity:1;"/>
<path d="M209.827 231.261C209.813 231.23 209.802 231.202 209.791 231.17C209.412 230.241 208.977 229.207 208.326 228.91C207.476 228.522 206.993 229.043 206.713 229.686C206.713 229.652 206.707 229.615 206.704 229.578L206.688 229.397C206.971 228.34 207.521 227.071 208.472 227.505C208.708 227.615 208.896 227.984 209.061 228.462C209.367 229.355 209.58 230.621 209.827 231.264V231.261Z" fill="#542316" style="fill:#542316;fill:color(display-p3 0.3294 0.1373 0.0863);fill-opacity:1;"/>
<path d="M212.317 227.904C212.558 228.111 209.581 227.53 209.581 227.53C209.581 227.53 209.654 226.935 209.536 226.746C209.398 226.862 209.3 227.349 209.236 227.522C208.388 227.386 207.69 227.199 205.568 226.595C205.633 226.213 206.458 225.035 206.867 224.87C209.901 225.615 211.494 227.199 212.317 227.901V227.904Z" fill="#3A2019" style="fill:#3A2019;fill:color(display-p3 0.2275 0.1255 0.0980);fill-opacity:1;"/>
<path d="M217.292 230.258C215.936 230.649 215.128 234.983 215.128 234.983C215.01 237.014 214.112 238.904 216.607 238.139C218.375 237.595 220.513 235.632 220.953 233.796C221.509 231.479 219.388 229.652 217.294 230.258H217.292Z" fill="#F48E69" style="fill:#F48E69;fill:color(display-p3 0.9569 0.5569 0.4118);fill-opacity:1;"/>
<path d="M220.479 232.624C220.442 232.482 220.389 232.346 220.327 232.216C220.204 231.952 220.044 231.706 219.856 231.482C219.668 231.258 219.449 231.054 219.188 230.898C218.93 230.743 218.621 230.638 218.298 230.649C217.976 230.658 217.661 230.788 217.409 230.975C217.151 231.162 216.946 231.394 216.766 231.641C216.41 232.136 216.163 232.683 215.95 233.235L216.298 233.663C216.298 233.663 216.323 233.672 216.357 233.689C216.39 233.703 216.43 233.723 216.469 233.748C216.547 233.796 216.626 233.862 216.691 233.929C216.752 233.995 216.806 234.074 216.811 234.111C216.814 234.136 216.806 234.111 216.8 234.119C216.794 234.133 216.789 234.133 216.786 234.128C216.783 234.122 216.78 234.119 216.769 234.128C216.758 234.133 216.735 234.142 216.705 234.153C216.646 234.176 216.553 234.196 216.455 234.207C216.354 234.218 216.244 234.227 216.129 234.23H215.95L215.852 234.235L215.742 234.241L215.871 235.329L215.95 235.315L216.04 235.301L216.236 235.269C216.371 235.247 216.514 235.218 216.66 235.176C216.808 235.133 216.96 235.082 217.126 234.986C217.207 234.938 217.294 234.878 217.375 234.796C217.457 234.717 217.532 234.609 217.58 234.488C217.628 234.366 217.645 234.235 217.639 234.125C217.639 234.006 217.591 233.853 217.541 233.765C217.437 233.573 217.311 233.462 217.184 233.36C217.055 233.261 216.923 233.182 216.775 233.119C216.744 233.105 216.71 233.094 216.677 233.082C216.806 232.677 216.96 232.281 217.17 231.924C217.305 231.694 217.465 231.476 217.656 231.309C217.847 231.142 218.071 231.02 218.321 230.989C218.568 230.958 218.829 231.012 219.07 231.128C219.311 231.241 219.536 231.411 219.735 231.607C219.931 231.802 220.108 232.026 220.254 232.269C220.324 232.391 220.389 232.519 220.437 232.652C220.484 232.785 220.521 232.927 220.495 233.071C220.535 232.932 220.509 232.779 220.476 232.641L220.479 232.624Z" fill="#E86A43" style="fill:#E86A43;fill:color(display-p3 0.9098 0.4157 0.2627);fill-opacity:1;"/>
<path d="M166.714 312.406C166.714 312.406 181.369 312.632 183.656 313.983C188.142 316.632 194.088 333.623 197.68 337.357C204.692 344.651 234.712 353.107 259.735 345.679C260.872 337.036 259.421 312.145 255.139 289.234C251.646 270.532 245.431 256.348 230.097 247.059C228.385 246.023 220.89 249.178 216.808 247.753C214.874 251.141 206.4 258.045 203.154 260.351C198.836 263.424 196.448 267.121 194.691 271.838C194.327 272.826 193.847 273.823 193.662 274.934C189.719 298.647 172.255 307.411 165.153 310.508C163.049 311.423 164.615 312.4 166.716 312.4L166.714 312.406Z" fill="#3D313F" style="fill:#3D313F;fill:color(display-p3 0.2392 0.1922 0.2471);fill-opacity:1;"/>
<path d="M296.011 348.889C298.146 366.358 295.579 381.236 290.441 398.669C289.005 399.125 286.771 400.292 285.239 399.757C285.837 396.802 286.022 392.247 285.921 388.53C285.725 381.174 284.434 373.075 283.14 367.194C281.182 358.288 277.276 351.43 278.53 342.082C279.798 332.629 265.079 299.021 264.557 281.537L275.101 281.254L280.278 281.118C283.783 283.237 288.362 276.741 289.905 280.764C292.116 286.531 287.837 298.618 288.149 301.44C289.414 312.808 286.6 325.246 289.229 338.133C290.293 343.334 295.338 343.362 296.014 348.889H296.011Z" fill="#231E25" style="fill:#231E25;fill:color(display-p3 0.1373 0.1176 0.1451);fill-opacity:1;"/>
<path d="M314.599 349.56C317.919 366.84 315.8 381.417 311.858 399.162C310.455 399.717 308.811 400.456 307.245 400.026C307.641 397.037 307.579 393.505 307.225 389.805C306.53 382.48 304.692 374.488 303 368.71C300.441 359.959 296.077 353.39 296.695 343.977C297.318 334.456 280.347 301.95 278.639 284.542L289.141 283.531L294.296 283.035C297.938 284.908 302.065 278.109 303.878 282.016C306.476 287.616 303.025 299.973 303.53 302.766C305.564 314.017 303.6 326.623 307.102 339.297C308.516 344.413 313.553 344.093 314.602 349.56H314.599Z" fill="#231E25" style="fill:#231E25;fill:color(display-p3 0.1373 0.1176 0.1451);fill-opacity:1;"/>
<path d="M305.393 284.967C304.81 285.537 303.165 285.54 302.245 285.8C297.382 287.191 288.569 284.987 283.751 286.222C278.327 287.61 277.003 280.71 277.003 280.71C276.947 269.05 268.251 242.686 263.447 233.006C263.352 232.811 263.248 232.598 263.144 232.369C262.35 230.629 261.354 227.955 260.482 225.06C260.473 225.037 260.468 225.012 260.462 224.989C259.006 220.142 257.897 214.695 258.635 211.981C258.739 211.596 259.023 211.14 259.446 210.636C260.12 209.831 261.158 208.899 262.401 207.911C263.007 207.426 263.664 206.933 264.351 206.432C264.747 206.146 265.159 205.857 265.572 205.565C265.905 205.33 266.242 205.1 266.584 204.865C267.025 204.568 267.468 204.268 267.915 203.973C273.041 200.582 278.4 197.554 278.577 197.455C278.021 197.883 279.806 198.05 280.886 198.367C281.366 198.511 283.207 198.843 285.522 199.248C285.872 199.313 286.237 199.375 286.61 199.443C286.936 199.5 287.267 199.56 287.604 199.616C287.963 199.679 288.328 199.744 288.692 199.812C288.793 199.829 288.892 199.846 288.995 199.866C289.947 200.033 290.903 200.205 291.821 200.375C294.45 200.86 296.754 201.324 297.635 201.625C301.729 203.021 301.908 221.553 298.704 229.391C296.243 235.408 303.238 275.869 305.388 284.97L305.393 284.967Z" fill="white" style="fill:white;fill-opacity:1;"/>
<path d="M280.74 199.002C280.712 206.228 275.653 211.126 273.198 212.134C269.078 213.825 265.672 201.559 266.289 201.177C266.374 201.126 266.458 201.072 266.545 201.024C267.678 200.33 268.879 199.585 268.907 198.874C268.958 197.639 268.916 196.429 268.753 195.308C268.672 194.755 268.562 194.228 268.419 193.73C268.049 192.432 267.457 191.336 266.57 190.583L273.823 181.586C274.028 181.909 274.73 184.305 275.653 187.229C275.675 187.302 275.7 187.379 275.723 187.452C276.259 189.146 276.868 191.005 277.499 192.73C277.614 193.05 277.732 193.361 277.85 193.667C278.849 196.285 279.878 198.441 280.743 199.002H280.74Z" fill="#F48E69" style="fill:#F48E69;fill:color(display-p3 0.9569 0.5569 0.4118);fill-opacity:1;"/>
<path d="M280.74 198.999C280.715 206.225 275.653 211.123 273.198 212.131C269.078 213.823 265.672 201.557 266.289 201.174L266.309 201.163C267.187 204.681 269.887 211.333 272.99 210.058C275.235 209.137 279.66 204.959 280.417 198.724C280.524 198.837 280.633 198.928 280.737 198.996L280.74 198.999Z" fill="white" style="fill:white;fill-opacity:1;"/>
<path d="M277.499 192.727C275.574 198.599 271.29 203.095 270.134 203.12C269.64 203.129 267.667 201.987 266.545 201.024C267.679 200.33 268.879 199.585 268.908 198.874C268.958 197.639 268.916 196.429 268.753 195.308C268.672 194.755 268.562 194.228 268.419 193.73L275.723 187.452C276.259 189.146 276.868 191.005 277.499 192.73V192.727Z" fill="#E86A43" style="fill:#E86A43;fill:color(display-p3 0.9098 0.4157 0.2627);fill-opacity:1;"/>
<path d="M253.941 185.954C255.058 186.129 256.13 189.5 256.13 189.5C256.424 191.109 257.325 192.523 255.265 192.163C253.804 191.908 251.907 190.557 251.374 189.141C250.703 187.35 252.213 185.682 253.941 185.957V185.954Z" fill="#F48E69" style="fill:#F48E69;fill:color(display-p3 0.9569 0.5569 0.4118);fill-opacity:1;"/>
<path d="M251.635 188.161C251.649 188.044 251.68 187.931 251.714 187.821C251.787 187.6 251.888 187.384 252.017 187.186C252.146 186.988 252.3 186.804 252.491 186.654C252.682 186.503 252.915 186.39 253.176 186.365C253.434 186.339 253.698 186.41 253.916 186.535C254.141 186.656 254.326 186.823 254.494 187.002C254.828 187.362 255.078 187.772 255.303 188.189L255.07 188.566C255.07 188.566 255.05 188.574 255.025 188.591C255 188.605 254.969 188.625 254.941 188.651C254.882 188.699 254.826 188.755 254.783 188.818C254.739 188.877 254.705 188.942 254.705 188.976C254.705 188.996 254.711 188.976 254.713 188.982C254.719 188.993 254.725 188.993 254.725 188.988C254.725 188.982 254.727 188.979 254.739 188.985C254.747 188.985 254.767 188.993 254.792 188.999C254.842 189.01 254.915 189.016 254.997 189.016C255.078 189.016 255.165 189.01 255.258 189.002L255.401 188.985L255.479 188.976L255.566 188.968L255.572 189.846H255.507L255.434 189.84L255.275 189.835C255.165 189.829 255.05 189.821 254.927 189.804C254.806 189.784 254.677 189.758 254.537 189.699C254.466 189.668 254.393 189.628 254.321 189.571C254.248 189.515 254.177 189.438 254.127 189.345C254.076 189.251 254.051 189.152 254.046 189.061C254.034 188.968 254.057 188.84 254.088 188.764C254.152 188.6 254.242 188.498 254.332 188.407C254.424 188.314 254.523 188.24 254.635 188.175C254.66 188.161 254.685 188.149 254.711 188.135C254.567 187.826 254.405 187.526 254.203 187.263C254.071 187.093 253.925 186.937 253.754 186.821C253.585 186.704 253.395 186.631 253.195 186.631C252.996 186.631 252.791 186.699 252.612 186.818C252.429 186.934 252.269 187.09 252.129 187.265C251.992 187.441 251.871 187.636 251.781 187.846C251.736 187.951 251.697 188.059 251.672 188.169C251.646 188.28 251.632 188.396 251.666 188.509C251.621 188.401 251.624 188.28 251.638 188.163L251.635 188.161Z" fill="#E86A43" style="fill:#E86A43;fill:color(display-p3 0.9098 0.4157 0.2627);fill-opacity:1;"/>
<path d="M251.772 167.481C250.159 168.544 246.87 170.459 246.604 172.379C246.11 175.929 251.601 182.271 252.389 183.719C252.098 182.863 254.429 170.614 257.011 169.977L251.772 167.481Z" fill="#3A2019" style="fill:#3A2019;fill:color(display-p3 0.2275 0.1255 0.0980);fill-opacity:1;"/>
<path d="M275.542 186.883C274.363 182.982 269.419 171.019 266.456 168.929C263.154 166.598 258.067 165.685 254.439 168.045C249.739 171.104 251.596 181.325 251.871 182.419C251.989 182.886 252.542 183.897 253.142 185.773C253.417 186.634 253.341 188.594 253.675 189.619C255.822 196.166 261.891 200.846 261.88 203.381C261.874 204.823 264.675 204.639 267.337 203.803C276.196 201.027 276.746 190.877 275.536 186.883H275.542Z" fill="#F48E69" style="fill:#F48E69;fill:color(display-p3 0.9569 0.5569 0.4118);fill-opacity:1;"/>
<path d="M254.775 188.115C254.775 188.115 254.86 188.073 255.005 188.01C255.078 187.979 255.168 187.942 255.275 187.903C255.379 187.863 255.497 187.818 255.62 187.764C255.743 187.71 255.875 187.653 256.016 187.6C256.159 187.551 256.302 187.472 256.456 187.413C256.608 187.348 256.768 187.285 256.925 187.209C257.082 187.135 257.242 187.064 257.405 186.991C257.562 186.911 257.722 186.832 257.879 186.758C258.039 186.687 258.187 186.603 258.336 186.529C258.485 186.452 258.634 186.39 258.768 186.314C258.903 186.243 259.035 186.178 259.155 186.118C259.4 186.002 259.599 185.891 259.745 185.829C259.891 185.761 259.978 185.727 259.978 185.727C259.978 185.727 259.919 185.798 259.806 185.917C259.75 185.974 259.683 186.047 259.602 186.124C259.523 186.203 259.43 186.294 259.324 186.376C259.217 186.467 259.102 186.56 258.979 186.659C258.855 186.758 258.715 186.846 258.572 186.942C258.426 187.036 258.28 187.138 258.117 187.22C257.96 187.308 257.795 187.39 257.632 187.475C257.461 187.549 257.292 187.619 257.124 187.687C256.958 187.761 256.784 187.806 256.619 187.857C256.453 187.903 256.296 187.959 256.136 187.985C255.979 188.016 255.83 188.039 255.693 188.061C255.626 188.073 255.558 188.087 255.497 188.09C255.435 188.093 255.376 188.095 255.32 188.098C255.21 188.107 255.112 188.107 255.031 188.11C254.871 188.112 254.778 188.11 254.778 188.11L254.775 188.115Z" fill="#E86A43" style="fill:#E86A43;fill:color(display-p3 0.9098 0.4157 0.2627);fill-opacity:1;"/>
<path d="M254.669 179.41C253.816 179.625 252.8 180.161 252.205 180.841C252.623 181.702 254.023 186.2 254.29 187.336L259.517 185.557C259.719 184.971 257.845 178.603 254.669 179.41Z" fill="#E86A43" style="fill:#E86A43;fill:color(display-p3 0.9098 0.4157 0.2627);fill-opacity:1;"/>
<path d="M254.276 187.308C254.417 187.345 254.683 187.339 255.028 187.291C255.093 187.282 255.163 187.271 255.236 187.26C255.511 187.214 255.828 187.146 256.165 187.061C256.409 186.999 256.661 186.928 256.917 186.843C257.795 186.566 258.718 186.175 259.408 185.699C259.481 185.654 259.549 185.605 259.616 185.552C259.582 185.529 259.549 185.506 259.518 185.484C258.499 184.758 257.088 183.07 255.946 183.175C253.791 183.376 254.041 185.999 254.206 186.959C254.245 187.175 254.279 187.308 254.279 187.308H254.276Z" fill="white" style="fill:white;fill-opacity:1;"/>
<path d="M254.437 186.393C254.552 186.767 254.765 187.076 255.026 187.291C255.09 187.282 255.161 187.271 255.233 187.26C255.508 187.214 255.826 187.146 256.162 187.061C256.406 186.999 256.659 186.928 256.914 186.843C257.066 186.484 257.094 186.042 256.959 185.603C256.937 185.532 256.914 185.464 256.883 185.399C256.768 185.129 256.603 184.906 256.406 184.736C256.061 184.438 255.626 184.314 255.219 184.444C254.524 184.662 254.17 185.535 254.437 186.393Z" fill="#77524F" style="fill:#77524F;fill:color(display-p3 0.4667 0.3216 0.3098);fill-opacity:1;"/>
<path d="M254.738 186.62C254.827 186.911 255.013 187.138 255.234 187.26C255.509 187.214 255.826 187.146 256.163 187.061C256.331 186.826 256.387 186.481 256.281 186.138C256.256 186.053 256.222 185.974 256.18 185.897C256.104 185.761 256.003 185.651 255.891 185.566C255.689 185.416 255.445 185.356 255.217 185.427C254.788 185.563 254.575 186.095 254.735 186.62H254.738Z" fill="#23100C" style="fill:#23100C;fill:color(display-p3 0.1373 0.0627 0.0471);fill-opacity:1;"/>
<path d="M256.532 184.586C256.209 184.934 255.508 186.263 255.508 186.263C256.044 185.976 256.63 185.688 257.127 185.166C256.961 185.013 256.695 184.736 256.529 184.586H256.532Z" fill="white" style="fill:white;fill-opacity:1;"/>
<path d="M259.515 185.484C258.496 184.758 257.326 183.926 256.187 184.03C254.523 184.183 254.15 185.274 254.141 186.203C254.141 186.212 254.141 186.22 254.141 186.229C254.141 186.495 254.169 186.747 254.206 186.959C254.141 186.693 253.193 182.756 255.743 182.518C256.145 182.481 256.596 182.739 257.065 183.121C257.935 183.835 258.847 184.985 259.517 185.484H259.515Z" fill="#542316" style="fill:#542316;fill:color(display-p3 0.3294 0.1373 0.0863);fill-opacity:1;"/>
<path d="M269.996 182.594C269.996 182.594 269.903 182.614 269.749 182.656C269.673 182.679 269.578 182.705 269.474 182.739C269.367 182.773 269.249 182.812 269.12 182.846C268.991 182.88 268.854 182.92 268.708 182.965C268.567 183.013 268.405 183.045 268.248 183.09C268.088 183.132 267.925 183.186 267.757 183.22C267.588 183.26 267.417 183.305 267.246 183.348C267.075 183.384 266.901 183.421 266.732 183.461C266.564 183.503 266.396 183.532 266.233 183.566C266.07 183.597 265.913 183.642 265.762 183.665C265.61 183.693 265.47 183.724 265.338 183.753C265.074 183.812 264.852 183.852 264.695 183.892C264.541 183.928 264.451 183.957 264.451 183.957C264.451 183.957 264.541 183.977 264.701 183.999C264.779 184.011 264.878 184.025 264.987 184.036C265.099 184.05 265.226 184.062 265.363 184.062C265.501 184.064 265.649 184.07 265.806 184.067C265.964 184.07 266.129 184.05 266.3 184.036C266.471 184.019 266.651 184.008 266.828 183.971C267.007 183.94 267.187 183.903 267.367 183.869C267.543 183.821 267.723 183.77 267.897 183.719C268.071 183.673 268.236 183.603 268.399 183.537C268.559 183.469 268.713 183.416 268.856 183.336C269 183.263 269.131 183.189 269.252 183.121C269.311 183.087 269.37 183.056 269.423 183.022C269.474 182.985 269.524 182.951 269.569 182.92C269.662 182.858 269.738 182.795 269.802 182.75C269.928 182.651 270.001 182.591 270.001 182.591L269.996 182.594Z" fill="#E86A43" style="fill:#E86A43;fill:color(display-p3 0.9098 0.4157 0.2627);fill-opacity:1;"/>
<path d="M264.272 175.753C263.436 176.025 262.457 176.623 261.904 177.339C262.378 178.175 264.059 182.571 264.396 183.688L269.503 181.574C269.665 180.977 267.395 174.742 264.275 175.753H264.272Z" fill="#E86A43" style="fill:#E86A43;fill:color(display-p3 0.9098 0.4157 0.2627);fill-opacity:1;"/>
<path d="M264.404 183.62C264.486 183.62 264.57 183.614 264.654 183.603C265.038 183.569 265.445 183.492 265.858 183.382C266.329 183.26 266.806 183.096 267.255 182.917C268.431 182.45 269.421 181.869 269.637 181.572C269.637 181.572 269.578 181.447 269.475 181.257C269.003 180.404 267.553 178.215 265.76 179.436C265.355 179.713 265.117 180.271 264.949 180.914C264.881 181.181 264.822 181.461 264.772 181.744C264.772 181.744 264.772 181.746 264.772 181.75C264.654 182.387 264.57 183.028 264.435 183.506C264.427 183.546 264.416 183.586 264.404 183.622V183.62Z" fill="white" style="fill:white;fill-opacity:1;"/>
<path d="M264.884 182.325C265.069 182.841 265.439 183.223 265.858 183.382C266.329 183.26 266.806 183.096 267.255 182.917C267.502 182.521 267.561 181.962 267.37 181.421C267.359 181.393 267.35 181.365 267.336 181.339C267.244 181.11 267.112 180.909 266.955 180.747C266.576 180.345 266.048 180.172 265.58 180.342C265.302 180.444 265.086 180.648 264.946 180.914C264.819 181.152 264.758 181.441 264.769 181.744C264.769 181.744 264.769 181.746 264.769 181.75C264.777 181.94 264.814 182.135 264.884 182.328V182.325Z" fill="#77524F" style="fill:#77524F;fill:color(display-p3 0.4667 0.3216 0.3098);fill-opacity:1;"/>
<path d="M266.883 181.948C267.068 182.467 266.877 183.011 266.456 183.161C266.035 183.314 265.544 183.019 265.362 182.501C265.177 181.982 265.367 181.438 265.788 181.285C266.209 181.132 266.697 181.427 266.883 181.945V181.948Z" fill="#23100C" style="fill:#23100C;fill:color(display-p3 0.1373 0.0627 0.0471);fill-opacity:1;"/>
<path d="M267.324 180.331C266.968 180.645 266.129 181.886 266.129 181.886C266.693 181.659 267.307 181.436 267.857 180.974C267.709 180.804 267.473 180.501 267.324 180.331Z" fill="white" style="fill:white;fill-opacity:1;"/>
<path d="M264.436 183.503C264.769 182.291 265.154 180.9 266.105 180.251C267.491 179.308 268.462 179.912 269.051 180.628C269.057 180.634 269.063 180.64 269.068 180.648C269.234 180.852 269.371 181.067 269.475 181.254C269.357 181.005 267.629 177.351 265.502 178.795C265.168 179.022 264.977 179.512 264.856 180.107C264.629 181.215 264.643 182.688 264.438 183.501L264.436 183.503Z" fill="#542316" style="fill:#542316;fill:color(display-p3 0.3294 0.1373 0.0863);fill-opacity:1;"/>
<path d="M250.632 182.087C250.45 182.311 253.003 181.311 253.003 181.311C253.003 181.311 252.843 180.793 252.919 180.608C253.06 180.691 253.225 181.107 253.309 181.249C254.039 180.991 254.631 180.71 256.418 179.832C256.3 179.504 255.38 178.589 254.99 178.509C252.414 179.662 251.25 181.325 250.632 182.084V182.087Z" fill="#3A2019" style="fill:#3A2019;fill:color(display-p3 0.2275 0.1255 0.0980);fill-opacity:1;"/>
<path d="M266.79 174.402C267.065 174.481 264.399 175.118 264.399 175.118C264.399 175.118 264.239 174.6 264.073 174.49C264.003 174.637 264.102 175.073 264.113 175.24C263.366 175.444 262.721 175.552 260.754 175.849C260.667 175.509 260.914 174.232 261.189 173.943C263.958 173.419 265.852 174.127 266.787 174.399L266.79 174.402Z" fill="#3A2019" style="fill:#3A2019;fill:color(display-p3 0.2275 0.1255 0.0980);fill-opacity:1;"/>
<path d="M260.664 191.761L264.323 189.563C266.84 188.843 269.536 188.308 271.978 187.965C272.696 189.265 275.176 196.56 274.834 197.789C274.256 199.857 270.46 206.772 270.46 206.772L268.742 204.333C268.742 204.333 269.985 206.707 268.77 208.65C267.241 207.763 266.093 206.137 265.74 205.171C265.431 205.446 265.616 207.285 266.203 207.95C265.232 207.596 259.676 202.704 257.586 196.67C258.515 194.846 259.404 193.373 260.664 191.758V191.761Z" fill="#3A2019" style="fill:#3A2019;fill:color(display-p3 0.2275 0.1255 0.0980);fill-opacity:1;"/>
<path d="M260.983 190.566C260.463 190.509 258.696 189.815 258.651 191.044C258.597 192.461 263.715 193.126 264.858 188.948C263.96 189.979 262.27 190.704 260.983 190.566Z" fill="#E86A43" style="fill:#E86A43;fill:color(display-p3 0.9098 0.4157 0.2627);fill-opacity:1;"/>
<path d="M257.904 180.13C258.342 180.742 262.284 187.54 259.24 190.568L261.336 190.716C262.175 188.393 260.893 182.756 257.904 180.13Z" fill="#E86A43" style="fill:#E86A43;fill:color(display-p3 0.9098 0.4157 0.2627);fill-opacity:1;"/>
<path d="M271.032 189.846C271.093 190.591 271.065 191.418 270.925 192.254C270.891 192.449 270.852 192.645 270.807 192.84C270.773 192.979 270.737 193.115 270.698 193.254C270.656 193.398 270.611 193.54 270.563 193.682C269.951 195.463 268.734 197.07 266.632 197.727C265.653 198.033 264.822 198.177 264.109 198.203C263.711 198.22 263.349 198.2 263.021 198.149C260.782 197.817 260.117 196.186 259.682 195.931C259.682 195.931 259.903 195.823 260.321 195.616C260.655 195.449 261.115 195.217 261.693 194.92C263.646 193.917 266.921 192.189 271.034 189.843L271.032 189.846Z" fill="#682C19" style="fill:#682C19;fill:color(display-p3 0.4078 0.1725 0.0980);fill-opacity:1;"/>
<path d="M271.032 189.846C271.094 190.591 271.066 191.418 270.926 192.254C270.892 192.449 270.853 192.645 270.808 192.84C268.14 194.5 264.093 196.557 262.985 196.783C262.011 196.982 261.055 196.327 260.322 195.619C260.656 195.452 261.116 195.22 261.694 194.922C263.647 193.92 266.922 192.192 271.035 189.846H271.032Z" fill="white" style="fill:white;fill-opacity:1;"/>
<path d="M270.926 192.257C270.892 192.452 270.853 192.648 270.808 192.843C268.14 194.503 264.093 196.56 262.985 196.786C262.011 196.985 261.055 196.33 260.322 195.622C260.656 195.455 261.116 195.223 261.694 194.925C262.157 195.347 262.648 195.69 262.895 195.67C263.824 195.594 267.775 194.005 270.926 192.257Z" fill="#EFEFEF" style="fill:#EFEFEF;fill:color(display-p3 0.9375 0.9375 0.9375);fill-opacity:1;"/>
<path d="M270.698 193.257C270.656 193.401 270.612 193.543 270.564 193.684C269.952 195.466 268.734 197.072 266.633 197.73C265.653 198.036 264.823 198.18 264.11 198.206C263.712 198.223 263.35 198.203 263.021 198.152C263.094 197.809 263.238 197.497 263.482 197.254C264.239 196.5 268.333 194.228 270.698 193.254V193.257Z" fill="white" style="fill:white;fill-opacity:1;"/>
<path d="M270.698 193.257C270.656 193.401 270.612 193.543 270.564 193.685C267.822 195.076 264.711 197.209 264.206 197.843C264.149 197.914 264.121 198.042 264.11 198.209C263.712 198.226 263.35 198.206 263.021 198.155C263.094 197.812 263.238 197.5 263.482 197.257C264.239 196.503 268.333 194.231 270.698 193.257Z" fill="#EFEFEF" style="fill:#EFEFEF;fill:color(display-p3 0.9375 0.9375 0.9375);fill-opacity:1;"/>
<path d="M266.722 198.004H266.716C265.774 198.302 264.901 198.466 264.118 198.494C263.717 198.511 263.333 198.494 262.976 198.438C261.194 198.174 260.355 197.146 259.856 196.531C259.733 196.378 259.603 196.22 259.536 196.183L259.07 195.908L259.556 195.673C259.556 195.673 259.777 195.565 260.193 195.359C260.527 195.191 260.987 194.959 261.559 194.665C263.551 193.642 266.787 191.934 270.889 189.594L271.279 189.37L271.315 189.821C271.383 190.625 271.343 191.483 271.206 192.302C271.172 192.497 271.13 192.699 271.085 192.905C271.049 193.053 271.012 193.194 270.973 193.336C270.939 193.455 270.903 193.571 270.864 193.687L270.833 193.781C270.316 195.282 269.186 197.231 266.719 198.004H266.722ZM260.176 196.016C260.215 196.064 260.257 196.112 260.299 196.166C260.779 196.752 261.5 197.636 263.063 197.866C263.383 197.914 263.731 197.931 264.099 197.917C264.828 197.888 265.653 197.732 266.548 197.452H266.554C268.759 196.761 269.795 195.01 270.277 193.642L270.294 193.588C270.342 193.449 270.384 193.313 270.426 193.172C270.465 193.039 270.499 192.903 270.533 192.769C270.575 192.58 270.614 192.387 270.648 192.203C270.751 191.585 270.796 190.945 270.777 190.325C266.857 192.554 263.759 194.189 261.829 195.18C261.253 195.475 260.79 195.71 260.454 195.877C260.35 195.928 260.26 195.973 260.179 196.013L260.176 196.016Z" fill="#E86A43" style="fill:#E86A43;fill:color(display-p3 0.9098 0.4157 0.2627);fill-opacity:1;"/>
<path d="M266.829 161.136C247.527 159.89 242.291 167.609 240.835 170.648C238.756 174.977 246.859 178.331 249.794 180.016C254.292 177.931 243.596 177.736 255.201 172.711C257.469 171.728 264.065 171.444 266.467 173.068C267.651 173.866 272.236 179.212 272.663 180.645C273.333 180.26 274.052 179.829 274.792 179.597C274.45 178.266 274.879 177.322 274.341 173.764C273.17 166.056 272.576 161.51 266.832 161.139L266.829 161.136Z" fill="#3A2019" style="fill:#3A2019;fill:color(display-p3 0.2275 0.1255 0.0980);fill-opacity:1;"/>
<path d="M265.184 163.598C265.515 164.02 265.947 164.481 266.155 164.98C265.518 165.006 264.847 165.113 264.255 165.215C265.044 165.484 265.51 166.575 266.116 167.175C264.895 165.855 255.181 169.124 253.641 170.323C253.641 170.323 266.598 167.578 268.551 173.781C268.641 173.042 268.523 171.711 268.251 170.974C268.939 171.008 269.867 171.413 270.462 171.784C270.673 170.158 270.616 168.867 270.002 167.303C270.485 167.025 271.2 167.048 271.722 167.243C271.601 164.629 267.21 163.306 265.184 163.603V163.598Z" fill="#512E25" style="fill:#512E25;fill:color(display-p3 0.3176 0.1804 0.1451);fill-opacity:1;"/>
<path d="M272.545 178.314C271.63 179.365 273.238 183.39 273.238 183.39C274.209 185.138 274.462 187.186 276.123 185.212C277.301 183.812 278.042 181.036 277.439 179.28C276.678 177.059 273.959 176.685 272.542 178.311L272.545 178.314Z" fill="#F48E69" style="fill:#F48E69;fill:color(display-p3 0.9569 0.5569 0.4118);fill-opacity:1;"/>
<path d="M276.434 178.566C276.33 178.47 276.215 178.385 276.095 178.308C275.853 178.155 275.592 178.036 275.317 177.951C275.042 177.866 274.753 177.815 274.456 177.824C274.161 177.832 273.85 177.912 273.589 178.093C273.325 178.274 273.134 178.552 273.022 178.841C272.907 179.133 272.859 179.438 272.84 179.736C272.806 180.339 272.887 180.926 273.002 181.495L273.516 181.665C273.516 181.665 273.541 181.659 273.578 181.654C273.614 181.648 273.656 181.642 273.701 181.642C273.794 181.642 273.892 181.651 273.979 181.674C274.066 181.693 274.15 181.73 274.175 181.758C274.192 181.778 274.17 181.758 274.17 181.77C274.173 181.784 274.17 181.787 274.164 181.784C274.158 181.784 274.156 181.781 274.147 181.79C274.139 181.801 274.128 181.821 274.108 181.843C274.071 181.894 274.004 181.96 273.928 182.022C273.853 182.087 273.766 182.149 273.67 182.215L273.522 182.314L273.44 182.368L273.353 182.43L274.032 183.263L274.091 183.206L274.158 183.147L274.304 183.013C274.405 182.92 274.506 182.821 274.607 182.707C274.708 182.591 274.809 182.467 274.894 182.3C274.936 182.215 274.975 182.121 275 182.008C275.026 181.897 275.031 181.767 275.006 181.642C274.981 181.515 274.927 181.399 274.863 181.311C274.801 181.212 274.68 181.11 274.591 181.064C274.403 180.962 274.24 180.937 274.083 180.92C273.926 180.906 273.771 180.914 273.617 180.94C273.583 180.945 273.55 180.954 273.516 180.962C273.409 180.557 273.331 180.147 273.317 179.739C273.308 179.475 273.325 179.212 273.395 178.968C273.465 178.725 273.589 178.504 273.777 178.345C273.965 178.186 274.212 178.09 274.473 178.059C274.734 178.022 275.009 178.045 275.275 178.099C275.542 178.155 275.806 178.246 276.052 178.368C276.176 178.43 276.294 178.501 276.406 178.586C276.515 178.671 276.622 178.767 276.675 178.9C276.633 178.764 276.535 178.651 276.431 178.555L276.434 178.566Z" fill="#E86A43" style="fill:#E86A43;fill:color(display-p3 0.9098 0.4157 0.2627);fill-opacity:1;"/>
<path d="M302.11 285.276C300.996 280.945 299.613 275.917 304.091 272.962C301.959 272.815 297.913 274.073 296.546 272.274C295.629 271.064 289.736 225.097 290.028 221.137C281.56 225.44 269.957 225.035 260.484 225.06C260.484 225.06 267.48 328.507 268.501 337.657C282.634 339.028 297.062 340.665 311.389 339.609C309.119 334.736 303.6 291.055 302.11 285.276Z" fill="#F2D644" style="fill:#F2D644;fill:color(display-p3 0.9492 0.8399 0.2659);fill-opacity:1;"/>
<path d="M289.853 221.219C289.918 224.137 290.077 227.054 290.274 229.938L287.417 230.139C287.243 227.593 287.098 225.015 287.019 222.431C286.786 214.808 287.134 207.12 288.994 199.866C289.946 200.033 290.902 200.205 291.82 200.375C290.086 207.024 289.693 214.128 289.85 221.222L289.853 221.219Z" fill="#681831" style="fill:#681831;fill:color(display-p3 0.4078 0.0941 0.1922);fill-opacity:1;"/>
<path d="M264.488 232.131L263.147 232.369L261.668 232.635C261.242 230.19 260.838 227.714 260.493 225.227V225.21C260.481 225.134 260.473 225.06 260.462 224.986C259.814 220.219 259.393 215.4 259.446 210.63C260.119 209.826 261.158 208.894 262.401 207.905C262.095 213.553 262.566 219.338 263.36 225.057C263.691 227.431 264.076 229.794 264.485 232.128L264.488 232.131Z" fill="#F2D644" style="fill:#F2D644;fill:color(display-p3 0.9492 0.8399 0.2659);fill-opacity:1;"/>
<path d="M308.056 281.242C305.851 281.242 304.218 279.291 303.962 277.455C303.923 277.174 303.917 276.928 303.912 276.707C303.898 276.208 303.889 275.877 303.527 275.441C303.396 275.282 303.222 275.183 303.017 275.067C302.733 274.905 302.413 274.724 302.2 274.353L301.743 273.56L301.535 273.676C300.601 271.976 302.189 268.231 303.892 267.163C304.894 266.535 305.884 266.781 306.605 267.835C307.562 269.231 306.025 270.736 304.554 271.942C306.142 271.631 308.121 271.577 309.19 272.095C309.821 272.401 310.138 272.905 310.082 273.517C310.043 273.942 309.824 274.305 309.445 274.565C308.303 275.35 305.781 275.143 304.072 274.869C304.091 274.888 304.111 274.911 304.128 274.934C304.661 275.58 304.678 276.14 304.692 276.684C304.697 276.891 304.703 277.106 304.737 277.344C304.947 278.868 306.297 280.489 308.118 280.452L308.135 281.239C308.109 281.239 308.081 281.239 308.056 281.239V281.242ZM301.802 273.529L302.646 273.778C303.755 274.104 307.77 274.767 309.005 273.917C309.193 273.789 309.288 273.639 309.305 273.449C309.322 273.262 309.285 273.019 308.853 272.809C307.363 272.087 303.443 272.778 302.84 273.364L302.296 272.798C302.576 272.523 302.969 272.209 303.424 271.846C304.782 270.764 306.645 269.282 305.963 268.282C305.477 267.571 304.95 267.427 304.305 267.832C302.82 268.761 301.552 272.078 302.22 273.291L301.805 273.523L301.802 273.529Z" fill="#681831" style="fill:#681831;fill:color(display-p3 0.4078 0.0941 0.1922);fill-opacity:1;"/>
<path d="M283.992 249.716C273.866 247.071 263.473 247.011 252.757 244.841L251.359 250.512C266.958 260.855 287.138 267.186 291.65 260.586C289.065 256.399 288.341 252.75 283.989 249.716H283.992Z" fill="#F48E69" style="fill:#F48E69;fill:color(display-p3 0.9569 0.5569 0.4118);fill-opacity:1;"/>
<path d="M287.44 208.653C285.266 218.964 284.971 241.569 281.725 254.538C285.499 255.932 287.654 259.878 291.655 260.586C293.857 256.104 297.547 248.439 298.577 244.504C312.907 189.744 289.637 198.248 287.443 208.656L287.44 208.653Z" fill="#F48E69" style="fill:#F48E69;fill:color(display-p3 0.9569 0.5569 0.4118);fill-opacity:1;"/>
<path d="M299.716 230.595C300.665 231.009 301.613 231.428 302.564 231.845C309.804 191.458 288.782 199.021 286.778 208.52C285.95 212.451 284.618 219.93 284.385 226.295C285.788 226.78 296.346 229.122 299.716 230.595Z" fill="white" style="fill:white;fill-opacity:1;"/>
<path d="M235.149 234.391L231.98 239.061L233.367 240.02L236.535 235.35L235.149 234.391Z" fill="#728387" style="fill:#728387;fill:color(display-p3 0.4471 0.5137 0.5294);fill-opacity:1;"/>
<path d="M249.502 247.579L249.291 247.89L250.933 249.023L251.144 248.713L249.502 247.579Z" fill="#1D363D" style="fill:#1D363D;fill:color(display-p3 0.1137 0.2118 0.2392);fill-opacity:1;"/>
<path d="M248.54 246.613L248.119 247.232L249.758 248.366L250.178 247.747L248.54 246.613Z" fill="white" style="fill:white;fill-opacity:1;"/>
<path d="M240.041 238.176L240.346 237.428L239.249 236.972L238.155 236.216L237.928 236.553L238.924 237.244L238.758 237.646L240.041 238.176Z" fill="#403A51" style="fill:#403A51;fill:color(display-p3 0.2510 0.2275 0.3176);fill-opacity:1;"/>
<path d="M248.126 244.062C249.141 244.762 249.4 246.161 248.704 247.187C248.008 248.212 246.622 248.473 245.609 247.77C244.593 247.068 244.332 245.671 245.031 244.646C245.727 243.62 247.113 243.36 248.126 244.062Z" fill="white" style="fill:white;fill-opacity:1;"/>
<path d="M248.114 244.076L245.617 247.756L234.057 240.49L237.225 235.819L248.114 244.076Z" fill="#403A51" style="fill:#403A51;fill:color(display-p3 0.2510 0.2275 0.3176);fill-opacity:1;"/>
<path d="M235.841 234.868L232.672 239.537L234.058 240.496L237.227 235.827L235.841 234.868Z" fill="#A5A5A5" style="fill:#A5A5A5;fill:color(display-p3 0.6471 0.6471 0.6471);fill-opacity:1;"/>
<path d="M247.09 245.586C247.267 245.711 247.311 245.955 247.191 246.136C247.067 246.317 246.823 246.362 246.646 246.241C246.47 246.116 246.422 245.87 246.545 245.688C246.666 245.513 246.91 245.462 247.09 245.586Z" fill="#3F5051" style="fill:#3F5051;fill:color(display-p3 0.2471 0.3137 0.3176);fill-opacity:1;"/>
<path d="M246.992 245.734C247.084 245.799 247.109 245.929 247.045 246.025C246.98 246.122 246.849 246.147 246.756 246.082C246.661 246.017 246.635 245.884 246.7 245.787C246.764 245.691 246.896 245.666 246.992 245.734Z" fill="white" style="fill:white;fill-opacity:1;"/>
<path d="M230.265 237.477L230.092 237.731L232.658 239.518L232.832 239.263L230.265 237.477Z" fill="#728387" style="fill:#728387;fill:color(display-p3 0.4471 0.5137 0.5294);fill-opacity:1;"/>
<path d="M230.869 236.615L230.695 236.867L233.268 238.646L233.439 238.391L230.869 236.615Z" fill="#728387" style="fill:#728387;fill:color(display-p3 0.4471 0.5137 0.5294);fill-opacity:1;"/>
<path d="M231.471 235.747L231.299 236.002L233.876 237.773L234.048 237.518L231.471 235.747Z" fill="#728387" style="fill:#728387;fill:color(display-p3 0.4471 0.5137 0.5294);fill-opacity:1;"/>
<path d="M232.067 234.847L231.893 235.099L234.466 236.878L234.64 236.626L232.067 234.847Z" fill="#728387" style="fill:#728387;fill:color(display-p3 0.4471 0.5137 0.5294);fill-opacity:1;"/>
<path d="M232.665 233.963L232.494 234.218L235.064 235.997L235.238 235.742L232.665 233.963Z" fill="#728387" style="fill:#728387;fill:color(display-p3 0.4471 0.5137 0.5294);fill-opacity:1;"/>
<path d="M233.266 233.082L233.092 233.335L235.665 235.116L235.839 234.859L233.266 233.082Z" fill="#728387" style="fill:#728387;fill:color(display-p3 0.4471 0.5137 0.5294);fill-opacity:1;"/>
<path d="M233.29 239.215C233.402 239.261 233.461 239.388 233.416 239.499C233.371 239.612 233.247 239.672 233.132 239.626C233.02 239.584 232.964 239.456 233.006 239.343C233.051 239.227 233.175 239.17 233.287 239.213L233.29 239.215Z" fill="#1D363D" style="fill:#1D363D;fill:color(display-p3 0.1137 0.2118 0.2392);fill-opacity:1;"/>
<path d="M236.084 235.295C236.163 235.388 236.149 235.527 236.056 235.606C235.964 235.686 235.826 235.672 235.75 235.578C235.672 235.488 235.686 235.346 235.778 235.269C235.868 235.19 236.008 235.204 236.084 235.298V235.295Z" fill="#1D363D" style="fill:#1D363D;fill:color(display-p3 0.1137 0.2118 0.2392);fill-opacity:1;"/>
<path d="M250.897 243.986C249.803 243.479 248.664 242.924 247.55 242.439C246.671 242.057 245.914 241.334 244.985 241.15C243.933 240.943 242.561 241.36 241.528 241.572C240.072 241.873 235.072 242.337 236.503 244.473C236.772 244.875 237.3 244.96 237.549 245.354C237.883 245.875 237.754 246.515 238.077 247.045C238.616 247.935 239.702 248.198 240.395 248.875C241.422 249.878 241.87 250.102 243.254 250.476C244.432 250.793 245.187 250.51 246.425 250.529C247.673 250.549 248.871 250.773 250.111 250.779C251.433 250.782 252.609 250.391 253.838 250.243L254.615 245.685C254.489 245.173 251.725 244.371 250.894 243.983L250.897 243.986Z" fill="#F48E69" style="fill:#F48E69;fill:color(display-p3 0.9569 0.5569 0.4118);fill-opacity:1;"/>
</g>
<path d="M190.495 57.0376H194.446V58.1515C194.226 58.0915 193.995 58.0915 193.776 58.1515C193.601 58.2318 193.454 58.3608 193.351 58.5229C193.196 58.8013 193.126 59.1188 193.15 59.4363V88.8444H189.378L181.961 63.2683V86.4383C181.934 86.7489 182.004 87.06 182.162 87.3294C182.266 87.4902 182.413 87.6188 182.586 87.7008C182.805 87.7608 183.037 87.7608 183.256 87.7008V88.8593H179.324V87.7008C179.528 87.7602 179.746 87.7602 179.95 87.7008C180.127 87.6161 180.281 87.4884 180.397 87.3294C180.569 87.0659 180.648 86.7519 180.62 86.4383V59.4326C180.647 59.112 180.568 58.7915 180.397 58.5191C180.283 58.3582 180.129 58.2301 179.95 58.1478C179.746 58.0884 179.528 58.0884 179.324 58.1478V57.0339H183.882L191.791 84.1399V59.4326C191.818 59.112 191.739 58.7915 191.568 58.5191C191.454 58.3582 191.3 58.2301 191.121 58.1478C190.916 58.0884 190.699 58.0884 190.495 58.1478V57.0376Z" fill="white" style="fill:white;fill-opacity:1;"/>
<path d="M224.498 86.4902C224.505 86.7828 224.61 87.0649 224.796 87.2911C224.982 87.5173 225.239 87.6746 225.526 87.7378C225.791 87.7973 226.066 87.7973 226.33 87.7378V88.8517H219.766V87.7378C220 87.7973 220.246 87.7973 220.481 87.7378C220.65 87.6586 220.791 87.5289 220.883 87.3665C221.015 87.0887 221.047 86.7737 220.972 86.4753C220.972 86.4159 220.89 85.8886 220.726 84.8935C220.563 83.8984 220.366 82.5901 220.138 80.9687H214.4C214.102 82.6025 213.871 83.9169 213.707 84.9121C213.544 85.9072 213.462 86.4345 213.462 86.4939C213.365 86.7845 213.373 87.0995 213.484 87.385C213.562 87.5477 213.693 87.6787 213.856 87.7563C214.091 87.8167 214.337 87.8167 214.571 87.7563V88.8703H210.289V87.7563C210.554 87.8158 210.829 87.8158 211.093 87.7563C211.337 87.6895 211.56 87.5617 211.741 87.385C211.97 87.1375 212.118 86.8268 212.166 86.4939C212.166 86.4642 212.24 86.026 212.389 85.1794C212.538 84.3328 212.739 83.2189 212.992 81.8376C213.241 80.4563 213.531 78.8893 213.864 77.1367C214.196 75.3841 214.524 73.587 214.847 71.7453L217.528 57.1303H219.807C220.671 62.5763 221.445 67.4331 222.13 71.7007C222.428 73.5424 222.711 75.3396 222.979 77.0922C223.247 78.8448 223.496 80.4117 223.724 81.793C223.947 83.1743 224.134 84.2957 224.282 85.1572C224.431 86.0186 224.503 86.4629 224.498 86.4902ZM214.579 79.8065H219.985C219.807 78.5886 219.606 77.2816 219.382 75.8854C219.159 74.4893 218.935 73.0857 218.712 71.6747C218.488 70.2637 218.265 68.8899 218.042 67.5531C217.818 66.2164 217.617 64.9787 217.438 63.84C217.19 64.9688 216.952 66.2065 216.723 67.5531C216.495 68.8998 216.247 70.2736 215.979 71.6747C215.731 73.0857 215.482 74.4893 215.234 75.8854L214.579 79.8065Z" fill="white" style="fill:white;fill-opacity:1;"/>
<path d="M232.8 86.4452C232.777 86.7627 232.846 87.0801 233.001 87.3586C233.083 87.5095 233.215 87.6276 233.374 87.6928C233.464 87.7373 233.563 87.7604 233.664 87.7604C233.765 87.7604 233.864 87.7373 233.954 87.6928V88.8513H228.566V87.6928C228.664 87.738 228.771 87.7614 228.879 87.7614C228.987 87.7614 229.094 87.738 229.192 87.6928C229.333 87.615 229.449 87.4992 229.527 87.3586C229.682 87.0801 229.752 86.7627 229.728 86.4452V59.3986C229.755 59.0667 229.685 58.7341 229.527 58.4406C229.437 58.2989 229.324 58.1733 229.192 58.0693C228.988 58.0099 228.771 58.0099 228.566 58.0693V56.9999H233.973V58.0693C233.784 58.0091 233.581 58.0091 233.392 58.0693C233.24 58.1617 233.113 58.289 233.02 58.4406C232.862 58.7341 232.792 59.0667 232.819 59.3986L232.8 86.4452Z" fill="white" style="fill:white;fill-opacity:1;"/>
<path d="M205.452 61.5786C205.275 61.5796 205.098 61.5584 204.927 61.5155C204.49 61.4013 204.097 61.1622 203.795 60.8277C203.493 60.4932 203.296 60.0779 203.228 59.633C203.16 59.1881 203.224 58.7331 203.412 58.324C203.6 57.9149 203.904 57.5697 204.286 57.3308C204.535 57.1763 204.812 57.073 205.101 57.0271C205.39 56.9812 205.685 56.9936 205.969 57.0635C206.554 57.2127 207.056 57.5846 207.368 58.0991C207.679 58.6137 207.776 59.2298 207.638 59.8149C207.57 60.1098 207.445 60.3885 207.268 60.6345C207.092 60.8806 206.868 61.0892 206.61 61.2482C206.262 61.4643 205.861 61.5788 205.452 61.5786ZM205.452 57.743C205.179 57.7426 204.912 57.8185 204.681 57.962C204.507 58.0692 204.355 58.2102 204.236 58.3767C204.117 58.5431 204.033 58.7317 203.988 58.9312C203.894 59.3248 203.959 59.7395 204.167 60.0865C204.376 60.4335 204.713 60.6852 205.106 60.7877C205.294 60.8341 205.49 60.8422 205.682 60.8115C205.874 60.7809 206.058 60.7122 206.223 60.6095C206.397 60.5021 206.548 60.3611 206.667 60.1947C206.786 60.0282 206.87 59.8398 206.915 59.6404C207.009 59.2467 206.945 58.832 206.736 58.485C206.527 58.138 206.191 57.8863 205.798 57.7838C205.683 57.7571 205.566 57.7434 205.448 57.743H205.452Z" fill="black" style="fill:black;fill-opacity:1;"/>
<path d="M198.61 62.8043C198.334 62.8037 198.061 62.7495 197.806 62.6446C197.507 62.5193 197.238 62.3349 197.013 62.1025C196.788 61.8702 196.613 61.5948 196.499 61.293C196.258 60.7161 196.245 60.0696 196.464 59.4839C196.682 58.8982 197.115 58.4168 197.675 58.1368C197.938 58.0177 198.222 57.9533 198.51 57.9476C198.798 57.9418 199.084 57.9949 199.351 58.1034C199.649 58.2296 199.919 58.4143 200.144 58.6465C200.369 58.8787 200.545 59.1536 200.662 59.455C200.901 60.033 200.913 60.6801 200.694 61.2662C200.475 61.8523 200.042 62.3342 199.481 62.6149C199.208 62.7395 198.911 62.8041 198.61 62.8043ZM198.547 58.6901C198.353 58.69 198.161 58.7318 197.984 58.8126C197.592 59.0131 197.292 59.3554 197.144 59.7695C196.997 60.1837 197.014 60.6384 197.191 61.0405C197.268 61.2496 197.388 61.4405 197.542 61.6015C197.697 61.7625 197.883 61.89 198.089 61.9762C198.26 62.0507 198.445 62.0891 198.632 62.0891C198.819 62.0891 199.004 62.0507 199.176 61.9762C199.567 61.7751 199.867 61.4328 200.015 61.0189C200.162 60.605 200.146 60.1506 199.969 59.7484C199.891 59.54 199.771 59.3496 199.617 59.1888C199.462 59.0279 199.277 58.9 199.072 58.8126C198.911 58.7395 198.738 58.6979 198.562 58.6901H198.547Z" fill="black" style="fill:black;fill-opacity:1;"/>
<path d="M194.594 83.5681C194.438 84.385 194.129 84.9085 194.129 86.0225L194.587 88.4694L201.975 66.8775C202.016 66.4319 202.053 65.9826 202.094 65.5334C202.094 65.5037 202.466 65.0247 202.302 64.9207C202.138 64.8167 201.472 65.0804 201.457 65.1249C199.171 71.2788 196.883 77.4266 194.594 83.5681Z" fill="black" style="fill:black;fill-opacity:1;"/>
<path d="M209.109 88.9999L201.893 67.1852L202.265 63.2716C202.265 63.1862 202.429 62.9968 202.637 63.5575C202.678 63.6837 202.671 63.3235 202.701 63.3198C202.73 63.3161 202.723 63.357 202.723 63.3607C202.756 63.4609 205.504 71.719 209.407 83.4302C209.581 84.5354 209.619 85.6578 209.519 86.7721C209.445 87.5249 209.308 88.2701 209.109 88.9999Z" fill="black" style="fill:black;fill-opacity:1;"/>
<path d="M197.358 58.3335C196.678 58.3776 196.002 58.482 195.34 58.6454C194.969 58.7179 194.629 58.9034 194.368 59.1764C194.252 59.3046 194.152 59.4468 194.07 59.5997C194 59.8485 194.03 60.1146 194.152 60.3423C194.237 60.4881 194.368 60.6017 194.525 60.6653C194.451 60.4679 194.432 60.2543 194.47 60.0472C194.508 59.84 194.602 59.6469 194.741 59.4883C194.84 59.4193 194.954 59.374 195.073 59.356C195.192 59.3379 195.315 59.3476 195.43 59.3843C196.174 59.5365 196.588 60.3571 196.681 60.5651C196.904 59.8249 197.13 59.081 197.358 58.3335Z" fill="black" style="fill:black;fill-opacity:1;"/>
<path d="M203.329 59.9284L201.566 65.1547L202.272 65.3915L204.035 60.1651L203.329 59.9284Z" fill="black" style="fill:black;fill-opacity:1;"/>
<path d="M200.706 60.9181L199.984 61.1028L201.485 66.9327L202.207 66.748L200.706 60.9181Z" fill="black" style="fill:black;fill-opacity:1;"/>
<path d="M95.1 107.714C95.3147 107.238 95.6413 106.869 96.08 106.608C96.528 106.347 97.074 106.216 97.718 106.216V107.238H97.452C96.7427 107.238 96.1733 107.429 95.744 107.812C95.3147 108.195 95.1 108.834 95.1 109.73V114H94.12V106.356H95.1V107.714ZM106.108 109.786C106.108 110.122 106.099 110.379 106.08 110.556H99.7383C99.7663 111.135 99.9063 111.629 100.158 112.04C100.41 112.451 100.742 112.763 101.152 112.978C101.563 113.183 102.011 113.286 102.496 113.286C103.131 113.286 103.663 113.132 104.092 112.824C104.531 112.516 104.82 112.101 104.96 111.578H105.996C105.81 112.325 105.408 112.936 104.792 113.412C104.186 113.879 103.42 114.112 102.496 114.112C101.778 114.112 101.134 113.953 100.564 113.636C99.9949 113.309 99.5469 112.852 99.2203 112.264C98.9029 111.667 98.7443 110.971 98.7443 110.178C98.7443 109.385 98.9029 108.689 99.2203 108.092C99.5376 107.495 99.9809 107.037 100.55 106.72C101.12 106.403 101.768 106.244 102.496 106.244C103.224 106.244 103.859 106.403 104.4 106.72C104.951 107.037 105.371 107.467 105.66 108.008C105.959 108.54 106.108 109.133 106.108 109.786ZM105.114 109.758C105.124 109.189 105.007 108.703 104.764 108.302C104.531 107.901 104.209 107.597 103.798 107.392C103.388 107.187 102.94 107.084 102.454 107.084C101.726 107.084 101.106 107.317 100.592 107.784C100.079 108.251 99.7943 108.909 99.7383 109.758H105.114ZM107.453 110.164C107.453 109.38 107.612 108.694 107.929 108.106C108.247 107.509 108.681 107.051 109.231 106.734C109.791 106.407 110.421 106.244 111.121 106.244C111.793 106.244 112.4 106.407 112.941 106.734C113.483 107.061 113.879 107.485 114.131 108.008V103.64H115.111V114H114.131V112.292C113.898 112.824 113.515 113.263 112.983 113.608C112.451 113.944 111.826 114.112 111.107 114.112C110.407 114.112 109.777 113.949 109.217 113.622C108.667 113.295 108.233 112.833 107.915 112.236C107.607 111.639 107.453 110.948 107.453 110.164ZM114.131 110.178C114.131 109.562 114.005 109.021 113.753 108.554C113.501 108.087 113.156 107.728 112.717 107.476C112.288 107.224 111.812 107.098 111.289 107.098C110.748 107.098 110.263 107.219 109.833 107.462C109.404 107.705 109.063 108.059 108.811 108.526C108.569 108.983 108.447 109.529 108.447 110.164C108.447 110.789 108.569 111.34 108.811 111.816C109.063 112.283 109.404 112.642 109.833 112.894C110.263 113.137 110.748 113.258 111.289 113.258C111.812 113.258 112.288 113.132 112.717 112.88C113.156 112.628 113.501 112.269 113.753 111.802C114.005 111.335 114.131 110.794 114.131 110.178ZM124.265 109.786C124.265 110.122 124.255 110.379 124.237 110.556H117.895C117.923 111.135 118.063 111.629 118.315 112.04C118.567 112.451 118.898 112.763 119.309 112.978C119.719 113.183 120.167 113.286 120.653 113.286C121.287 113.286 121.819 113.132 122.249 112.824C122.687 112.516 122.977 112.101 123.117 111.578H124.153C123.966 112.325 123.565 112.936 122.949 113.412C122.342 113.879 121.577 114.112 120.653 114.112C119.934 114.112 119.29 113.953 118.721 113.636C118.151 113.309 117.703 112.852 117.377 112.264C117.059 111.667 116.901 110.971 116.901 110.178C116.901 109.385 117.059 108.689 117.377 108.092C117.694 107.495 118.137 107.037 118.707 106.72C119.276 106.403 119.925 106.244 120.653 106.244C121.381 106.244 122.015 106.403 122.557 106.72C123.107 107.037 123.527 107.467 123.817 108.008C124.115 108.54 124.265 109.133 124.265 109.786ZM123.271 109.758C123.28 109.189 123.163 108.703 122.921 108.302C122.687 107.901 122.365 107.597 121.955 107.392C121.544 107.187 121.096 107.084 120.611 107.084C119.883 107.084 119.262 107.317 118.749 107.784C118.235 108.251 117.951 108.909 117.895 109.758H123.271ZM129.068 107.182H127.29V114H126.31V107.182H125.246V106.356H126.31V105.824C126.31 104.993 126.52 104.382 126.94 103.99C127.369 103.598 128.06 103.402 129.012 103.402V104.242C128.377 104.242 127.929 104.363 127.668 104.606C127.416 104.849 127.29 105.255 127.29 105.824V106.356H129.068V107.182ZM131.1 104.914C130.904 104.914 130.736 104.844 130.596 104.704C130.456 104.564 130.386 104.391 130.386 104.186C130.386 103.981 130.456 103.813 130.596 103.682C130.736 103.542 130.904 103.472 131.1 103.472C131.296 103.472 131.464 103.542 131.604 103.682C131.744 103.813 131.814 103.981 131.814 104.186C131.814 104.391 131.744 104.564 131.604 104.704C131.464 104.844 131.296 104.914 131.1 104.914ZM131.59 106.356V114H130.61V106.356H131.59ZM137.393 106.216C138.308 106.216 139.055 106.501 139.633 107.07C140.212 107.63 140.501 108.447 140.501 109.52V114H139.535V109.632C139.535 108.801 139.325 108.167 138.905 107.728C138.495 107.289 137.93 107.07 137.211 107.07C136.474 107.07 135.886 107.303 135.447 107.77C135.009 108.237 134.789 108.923 134.789 109.828V114H133.809V106.356H134.789V107.658C135.032 107.191 135.382 106.837 135.839 106.594C136.297 106.342 136.815 106.216 137.393 106.216ZM143.159 104.914C142.963 104.914 142.795 104.844 142.655 104.704C142.515 104.564 142.445 104.391 142.445 104.186C142.445 103.981 142.515 103.813 142.655 103.682C142.795 103.542 142.963 103.472 143.159 103.472C143.355 103.472 143.523 103.542 143.663 103.682C143.803 103.813 143.873 103.981 143.873 104.186C143.873 104.391 143.803 104.564 143.663 104.704C143.523 104.844 143.355 104.914 143.159 104.914ZM143.649 106.356V114H142.669V106.356H143.649ZM149.452 106.216C150.367 106.216 151.113 106.501 151.692 107.07C152.271 107.63 152.56 108.447 152.56 109.52V114H151.594V109.632C151.594 108.801 151.384 108.167 150.964 107.728C150.553 107.289 149.989 107.07 149.27 107.07C148.533 107.07 147.945 107.303 147.506 107.77C147.067 108.237 146.848 108.923 146.848 109.828V114H145.868V106.356H146.848V107.658C147.091 107.191 147.441 106.837 147.898 106.594C148.355 106.342 148.873 106.216 149.452 106.216ZM157.933 106.244C158.652 106.244 159.277 106.412 159.809 106.748C160.341 107.084 160.724 107.509 160.957 108.022V106.356H161.937V114.196C161.937 114.896 161.783 115.517 161.475 116.058C161.177 116.599 160.757 117.015 160.215 117.304C159.674 117.603 159.058 117.752 158.367 117.752C157.387 117.752 156.571 117.519 155.917 117.052C155.273 116.585 154.872 115.951 154.713 115.148H155.679C155.847 115.68 156.165 116.105 156.631 116.422C157.107 116.739 157.686 116.898 158.367 116.898C158.862 116.898 159.305 116.791 159.697 116.576C160.089 116.371 160.397 116.063 160.621 115.652C160.845 115.241 160.957 114.756 160.957 114.196V112.306C160.715 112.829 160.327 113.263 159.795 113.608C159.273 113.944 158.652 114.112 157.933 114.112C157.233 114.112 156.603 113.949 156.043 113.622C155.493 113.295 155.059 112.833 154.741 112.236C154.433 111.639 154.279 110.948 154.279 110.164C154.279 109.38 154.433 108.694 154.741 108.106C155.059 107.509 155.493 107.051 156.043 106.734C156.603 106.407 157.233 106.244 157.933 106.244ZM160.957 110.178C160.957 109.562 160.831 109.021 160.579 108.554C160.327 108.087 159.982 107.728 159.543 107.476C159.114 107.224 158.638 107.098 158.115 107.098C157.574 107.098 157.089 107.219 156.659 107.462C156.23 107.705 155.889 108.059 155.637 108.526C155.395 108.983 155.273 109.529 155.273 110.164C155.273 110.789 155.395 111.34 155.637 111.816C155.889 112.283 156.23 112.642 156.659 112.894C157.089 113.137 157.574 113.258 158.115 113.258C158.638 113.258 159.114 113.132 159.543 112.88C159.982 112.628 160.327 112.269 160.579 111.802C160.831 111.335 160.957 110.794 160.957 110.178ZM174.316 106.356L169.78 117.598H168.758L170.242 113.958L167.106 106.356H168.184L170.788 112.88L173.308 106.356H174.316ZM178.991 114.112C178.273 114.112 177.624 113.953 177.045 113.636C176.476 113.309 176.023 112.852 175.687 112.264C175.361 111.667 175.197 110.971 175.197 110.178C175.197 109.385 175.365 108.694 175.701 108.106C176.037 107.509 176.495 107.051 177.073 106.734C177.652 106.407 178.301 106.244 179.019 106.244C179.738 106.244 180.387 106.407 180.965 106.734C181.553 107.051 182.011 107.509 182.337 108.106C182.673 108.694 182.841 109.385 182.841 110.178C182.841 110.962 182.673 111.653 182.337 112.25C182.001 112.847 181.539 113.309 180.951 113.636C180.363 113.953 179.71 114.112 178.991 114.112ZM178.991 113.258C179.495 113.258 179.962 113.146 180.391 112.922C180.821 112.689 181.166 112.343 181.427 111.886C181.698 111.419 181.833 110.85 181.833 110.178C181.833 109.506 181.703 108.941 181.441 108.484C181.18 108.017 180.835 107.672 180.405 107.448C179.976 107.215 179.509 107.098 179.005 107.098C178.501 107.098 178.035 107.215 177.605 107.448C177.176 107.672 176.831 108.017 176.569 108.484C176.317 108.941 176.191 109.506 176.191 110.178C176.191 110.85 176.317 111.419 176.569 111.886C176.831 112.343 177.171 112.689 177.591 112.922C178.021 113.146 178.487 113.258 178.991 113.258ZM191.25 106.356V114H190.27V112.656C190.046 113.132 189.7 113.496 189.234 113.748C188.767 114 188.244 114.126 187.666 114.126C186.751 114.126 186.004 113.846 185.426 113.286C184.847 112.717 184.558 111.895 184.558 110.822V106.356H185.524V110.71C185.524 111.541 185.729 112.175 186.14 112.614C186.56 113.053 187.129 113.272 187.848 113.272C188.585 113.272 189.173 113.039 189.612 112.572C190.05 112.105 190.27 111.419 190.27 110.514V106.356H191.25ZM194.467 107.714C194.682 107.238 195.009 106.869 195.447 106.608C195.895 106.347 196.441 106.216 197.085 106.216V107.238H196.819C196.11 107.238 195.541 107.429 195.111 107.812C194.682 108.195 194.467 108.834 194.467 109.73V114H193.487V106.356H194.467V107.714ZM205.033 114.112C204.156 114.112 203.437 113.911 202.877 113.51C202.327 113.099 202.019 112.544 201.953 111.844H202.961C203.008 112.273 203.209 112.623 203.563 112.894C203.927 113.155 204.413 113.286 205.019 113.286C205.551 113.286 205.967 113.16 206.265 112.908C206.573 112.656 206.727 112.343 206.727 111.97C206.727 111.709 206.643 111.494 206.475 111.326C206.307 111.158 206.093 111.027 205.831 110.934C205.579 110.831 205.234 110.724 204.795 110.612C204.226 110.463 203.764 110.313 203.409 110.164C203.055 110.015 202.751 109.795 202.499 109.506C202.257 109.207 202.135 108.811 202.135 108.316C202.135 107.943 202.247 107.597 202.471 107.28C202.695 106.963 203.013 106.711 203.423 106.524C203.834 106.337 204.301 106.244 204.823 106.244C205.645 106.244 206.307 106.454 206.811 106.874C207.315 107.285 207.586 107.854 207.623 108.582H206.643C206.615 108.134 206.438 107.775 206.111 107.504C205.794 107.224 205.355 107.084 204.795 107.084C204.301 107.084 203.899 107.201 203.591 107.434C203.283 107.667 203.129 107.957 203.129 108.302C203.129 108.601 203.218 108.848 203.395 109.044C203.582 109.231 203.811 109.38 204.081 109.492C204.352 109.595 204.716 109.711 205.173 109.842C205.724 109.991 206.163 110.136 206.489 110.276C206.816 110.416 207.096 110.621 207.329 110.892C207.563 111.163 207.684 111.522 207.693 111.97C207.693 112.381 207.581 112.749 207.357 113.076C207.133 113.393 206.821 113.645 206.419 113.832C206.018 114.019 205.556 114.112 205.033 114.112ZM209.09 110.164C209.09 109.38 209.244 108.694 209.552 108.106C209.869 107.509 210.303 107.051 210.854 106.734C211.414 106.407 212.044 106.244 212.744 106.244C213.472 106.244 214.097 106.412 214.62 106.748C215.152 107.084 215.535 107.513 215.768 108.036V106.356H216.748V114H215.768V112.306C215.525 112.829 215.138 113.263 214.606 113.608C214.083 113.944 213.458 114.112 212.73 114.112C212.039 114.112 211.414 113.949 210.854 113.622C210.303 113.295 209.869 112.833 209.552 112.236C209.244 111.639 209.09 110.948 209.09 110.164ZM215.768 110.178C215.768 109.562 215.642 109.021 215.39 108.554C215.138 108.087 214.793 107.728 214.354 107.476C213.925 107.224 213.449 107.098 212.926 107.098C212.385 107.098 211.899 107.219 211.47 107.462C211.041 107.705 210.7 108.059 210.448 108.526C210.205 108.983 210.084 109.529 210.084 110.164C210.084 110.789 210.205 111.34 210.448 111.816C210.7 112.283 211.041 112.642 211.47 112.894C211.899 113.137 212.385 113.258 212.926 113.258C213.449 113.258 213.925 113.132 214.354 112.88C214.793 112.628 215.138 112.269 215.39 111.802C215.642 111.335 215.768 110.794 215.768 110.178ZM219.965 103.64V114H218.985V103.64H219.965ZM225.53 114.112C224.812 114.112 224.163 113.953 223.584 113.636C223.015 113.309 222.562 112.852 222.226 112.264C221.9 111.667 221.736 110.971 221.736 110.178C221.736 109.385 221.904 108.694 222.24 108.106C222.576 107.509 223.034 107.051 223.612 106.734C224.191 106.407 224.84 106.244 225.558 106.244C226.277 106.244 226.926 106.407 227.504 106.734C228.092 107.051 228.55 107.509 228.876 108.106C229.212 108.694 229.38 109.385 229.38 110.178C229.38 110.962 229.212 111.653 228.876 112.25C228.54 112.847 228.078 113.309 227.49 113.636C226.902 113.953 226.249 114.112 225.53 114.112ZM225.53 113.258C226.034 113.258 226.501 113.146 226.93 112.922C227.36 112.689 227.705 112.343 227.966 111.886C228.237 111.419 228.372 110.85 228.372 110.178C228.372 109.506 228.242 108.941 227.98 108.484C227.719 108.017 227.374 107.672 226.944 107.448C226.515 107.215 226.048 107.098 225.544 107.098C225.04 107.098 224.574 107.215 224.144 107.448C223.715 107.672 223.37 108.017 223.108 108.484C222.856 108.941 222.73 109.506 222.73 110.178C222.73 110.85 222.856 111.419 223.108 111.886C223.37 112.343 223.71 112.689 224.13 112.922C224.56 113.146 225.026 113.258 225.53 113.258ZM234.751 106.216C235.666 106.216 236.412 106.501 236.991 107.07C237.57 107.63 237.859 108.447 237.859 109.52V114H236.893V109.632C236.893 108.801 236.683 108.167 236.263 107.728C235.852 107.289 235.288 107.07 234.569 107.07C233.832 107.07 233.244 107.303 232.805 107.77C232.366 108.237 232.147 108.923 232.147 109.828V114H231.167V106.356H232.147V107.658C232.39 107.191 232.74 106.837 233.197 106.594C233.654 106.342 234.172 106.216 234.751 106.216ZM250.784 109.786C250.784 110.122 250.775 110.379 250.756 110.556H244.414C244.442 111.135 244.582 111.629 244.834 112.04C245.086 112.451 245.417 112.763 245.828 112.978C246.239 113.183 246.687 113.286 247.172 113.286C247.807 113.286 248.339 113.132 248.768 112.824C249.207 112.516 249.496 112.101 249.636 111.578H250.672C250.485 112.325 250.084 112.936 249.468 113.412C248.861 113.879 248.096 114.112 247.172 114.112C246.453 114.112 245.809 113.953 245.24 113.636C244.671 113.309 244.223 112.852 243.896 112.264C243.579 111.667 243.42 110.971 243.42 110.178C243.42 109.385 243.579 108.689 243.896 108.092C244.213 107.495 244.657 107.037 245.226 106.72C245.795 106.403 246.444 106.244 247.172 106.244C247.9 106.244 248.535 106.403 249.076 106.72C249.627 107.037 250.047 107.467 250.336 108.008C250.635 108.54 250.784 109.133 250.784 109.786ZM249.79 109.758C249.799 109.189 249.683 108.703 249.44 108.302C249.207 107.901 248.885 107.597 248.474 107.392C248.063 107.187 247.615 107.084 247.13 107.084C246.402 107.084 245.781 107.317 245.268 107.784C244.755 108.251 244.47 108.909 244.414 109.758H249.79ZM256.581 114L254.607 110.92L252.703 114H251.667L254.131 110.178L251.695 106.356H252.801L254.747 109.394L256.637 106.356H257.659L255.223 110.136L257.687 114H256.581ZM259.982 108.036C260.225 107.523 260.608 107.098 261.13 106.762C261.662 106.417 262.292 106.244 263.02 106.244C263.711 106.244 264.332 106.407 264.882 106.734C265.442 107.051 265.876 107.509 266.184 108.106C266.502 108.694 266.66 109.38 266.66 110.164C266.66 110.948 266.502 111.639 266.184 112.236C265.876 112.833 265.442 113.295 264.882 113.622C264.332 113.949 263.711 114.112 263.02 114.112C262.302 114.112 261.676 113.944 261.144 113.608C260.612 113.263 260.225 112.833 259.982 112.32V117.612H259.016V106.356H259.982V108.036ZM265.666 110.164C265.666 109.529 265.54 108.983 265.288 108.526C265.046 108.059 264.71 107.705 264.28 107.462C263.851 107.219 263.366 107.098 262.824 107.098C262.302 107.098 261.821 107.224 261.382 107.476C260.953 107.728 260.612 108.087 260.36 108.554C260.108 109.021 259.982 109.562 259.982 110.178C259.982 110.794 260.108 111.335 260.36 111.802C260.612 112.269 260.953 112.628 261.382 112.88C261.821 113.132 262.302 113.258 262.824 113.258C263.366 113.258 263.851 113.137 264.28 112.894C264.71 112.642 265.046 112.283 265.288 111.816C265.54 111.34 265.666 110.789 265.666 110.164ZM275.38 109.786C275.38 110.122 275.37 110.379 275.352 110.556H269.01C269.038 111.135 269.178 111.629 269.43 112.04C269.682 112.451 270.013 112.763 270.424 112.978C270.834 113.183 271.282 113.286 271.768 113.286C272.402 113.286 272.934 113.132 273.364 112.824C273.802 112.516 274.092 112.101 274.232 111.578H275.268C275.081 112.325 274.68 112.936 274.064 113.412C273.457 113.879 272.692 114.112 271.768 114.112C271.049 114.112 270.405 113.953 269.836 113.636C269.266 113.309 268.818 112.852 268.492 112.264C268.174 111.667 268.016 110.971 268.016 110.178C268.016 109.385 268.174 108.689 268.492 108.092C268.809 107.495 269.252 107.037 269.822 106.72C270.391 106.403 271.04 106.244 271.768 106.244C272.496 106.244 273.13 106.403 273.672 106.72C274.222 107.037 274.642 107.467 274.932 108.008C275.23 108.54 275.38 109.133 275.38 109.786ZM274.386 109.758C274.395 109.189 274.278 108.703 274.036 108.302C273.802 107.901 273.48 107.597 273.07 107.392C272.659 107.187 272.211 107.084 271.726 107.084C270.998 107.084 270.377 107.317 269.864 107.784C269.35 108.251 269.066 108.909 269.01 109.758H274.386ZM278.153 107.714C278.367 107.238 278.694 106.869 279.133 106.608C279.581 106.347 280.127 106.216 280.771 106.216V107.238H280.505C279.795 107.238 279.226 107.429 278.797 107.812C278.367 108.195 278.153 108.834 278.153 109.73V114H277.173V106.356H278.153V107.714ZM282.735 104.914C282.539 104.914 282.371 104.844 282.231 104.704C282.091 104.564 282.021 104.391 282.021 104.186C282.021 103.981 282.091 103.813 282.231 103.682C282.371 103.542 282.539 103.472 282.735 103.472C282.931 103.472 283.099 103.542 283.239 103.682C283.379 103.813 283.449 103.981 283.449 104.186C283.449 104.391 283.379 104.564 283.239 104.704C283.099 104.844 282.931 104.914 282.735 104.914ZM283.225 106.356V114H282.245V106.356H283.225ZM292.36 109.786C292.36 110.122 292.351 110.379 292.332 110.556H285.99C286.018 111.135 286.158 111.629 286.41 112.04C286.662 112.451 286.994 112.763 287.404 112.978C287.815 113.183 288.263 113.286 288.748 113.286C289.383 113.286 289.915 113.132 290.344 112.824C290.783 112.516 291.072 112.101 291.212 111.578H292.248C292.062 112.325 291.66 112.936 291.044 113.412C290.438 113.879 289.672 114.112 288.748 114.112C288.03 114.112 287.386 113.953 286.816 113.636C286.247 113.309 285.799 112.852 285.472 112.264C285.155 111.667 284.996 110.971 284.996 110.178C284.996 109.385 285.155 108.689 285.472 108.092C285.79 107.495 286.233 107.037 286.802 106.72C287.372 106.403 288.02 106.244 288.748 106.244C289.476 106.244 290.111 106.403 290.652 106.72C291.203 107.037 291.623 107.467 291.912 108.008C292.211 108.54 292.36 109.133 292.36 109.786ZM291.366 109.758C291.376 109.189 291.259 108.703 291.016 108.302C290.783 107.901 290.461 107.597 290.05 107.392C289.64 107.187 289.192 107.084 288.706 107.084C287.978 107.084 287.358 107.317 286.844 107.784C286.331 108.251 286.046 108.909 285.99 109.758H291.366ZM297.737 106.216C298.652 106.216 299.399 106.501 299.977 107.07C300.556 107.63 300.845 108.447 300.845 109.52V114H299.879V109.632C299.879 108.801 299.669 108.167 299.249 107.728C298.839 107.289 298.274 107.07 297.555 107.07C296.818 107.07 296.23 107.303 295.791 107.77C295.353 108.237 295.133 108.923 295.133 109.828V114H294.153V106.356H295.133V107.658C295.376 107.191 295.726 106.837 296.183 106.594C296.641 106.342 297.159 106.216 297.737 106.216ZM302.565 110.178C302.565 109.385 302.723 108.694 303.041 108.106C303.358 107.509 303.797 107.051 304.357 106.734C304.917 106.407 305.556 106.244 306.275 106.244C307.217 106.244 307.992 106.477 308.599 106.944C309.215 107.411 309.611 108.045 309.789 108.848H308.739C308.608 108.297 308.323 107.868 307.885 107.56C307.455 107.243 306.919 107.084 306.275 107.084C305.761 107.084 305.299 107.201 304.889 107.434C304.478 107.667 304.151 108.017 303.909 108.484C303.675 108.941 303.559 109.506 303.559 110.178C303.559 110.85 303.675 111.419 303.909 111.886C304.151 112.353 304.478 112.703 304.889 112.936C305.299 113.169 305.761 113.286 306.275 113.286C306.919 113.286 307.455 113.132 307.885 112.824C308.323 112.507 308.608 112.068 308.739 111.508H309.789C309.611 112.292 309.215 112.922 308.599 113.398C307.983 113.874 307.208 114.112 306.275 114.112C305.556 114.112 304.917 113.953 304.357 113.636C303.797 113.309 303.358 112.852 303.041 112.264C302.723 111.667 302.565 110.971 302.565 110.178ZM318.515 109.786C318.515 110.122 318.505 110.379 318.487 110.556H312.145C312.173 111.135 312.313 111.629 312.565 112.04C312.817 112.451 313.148 112.763 313.559 112.978C313.969 113.183 314.417 113.286 314.903 113.286C315.537 113.286 316.069 113.132 316.499 112.824C316.937 112.516 317.227 112.101 317.367 111.578H318.403C318.216 112.325 317.815 112.936 317.199 113.412C316.592 113.879 315.827 114.112 314.903 114.112C314.184 114.112 313.54 113.953 312.971 113.636C312.401 113.309 311.953 112.852 311.627 112.264C311.309 111.667 311.151 110.971 311.151 110.178C311.151 109.385 311.309 108.689 311.627 108.092C311.944 107.495 312.387 107.037 312.957 106.72C313.526 106.403 314.175 106.244 314.903 106.244C315.631 106.244 316.265 106.403 316.807 106.72C317.357 107.037 317.777 107.467 318.067 108.008C318.365 108.54 318.515 109.133 318.515 109.786ZM317.521 109.758C317.53 109.189 317.413 108.703 317.171 108.302C316.937 107.901 316.615 107.597 316.205 107.392C315.794 107.187 315.346 107.084 314.861 107.084C314.133 107.084 313.512 107.317 312.999 107.784C312.485 108.251 312.201 108.909 312.145 109.758H317.521Z" fill="white" style="fill:white;fill-opacity:1;"/>
</g>
<defs>
<clipPath id="clip0_3930_12126">
<rect width="414" height="342" fill="white" style="fill:white;fill-opacity:1;"/>
</clipPath>
<clipPath id="clip1_3930_12126">
<rect width="244" height="247" fill="white" style="fill:white;fill-opacity:1;" transform="translate(78 161)"/>
</clipPath>
</defs>
</svg>
